ISO-10303-21;
HEADER;
/* Generated by software containing ST-Developer
 * from STEP Tools, Inc. (www.steptools.com) 
 */
/* OPTION: using custom renumber hook */

FILE_DESCRIPTION(
/* description */ ('STEP AP242 Edition 2',
'CAx-IF Rec.Pracs.---Representation and Presentation of Product Manufa
cturing Information (PMI)---4.0---2014-10-13',
'CAx-IF Rec.Pracs.---3D Tessellated Geometry---0.4---2014-09-14','2;1',
'CAx-IF Rec.Pracs.---User Defined Attributes---1.5---2016-08-15'),
/* implementation_level */ '2;1');

FILE_NAME(
/* name */ '6aa39766bb916cfe3760dde0',
/* time_stamp */ '2026-09-11T05:53:43Z',
/* author */ (''),
/* organization */ (''),
/* preprocessor_version */ 'ST-DEVELOPER v20',
/* originating_system */ 'ONSHAPE BY PTC INC, 1.220',
/* authorisation */ '  ');

FILE_SCHEMA (('AP242_MANAGED_MODEL_BASED_3D_ENGINEERING_MIM_LF { 1 0 10303 442 3 1 4 }'));
ENDSEC;

DATA;
#10=CONTEXT_DEPENDENT_SHAPE_REPRESENTATION(#12,#1642);
#11=NEXT_ASSEMBLY_USAGE_OCCURRENCE('NAUO1','Part 3','Part 3',#1643,#1644,
'');
#12=(
REPRESENTATION_RELATIONSHIP(' ',' ',#1015,#1014)
REPRESENTATION_RELATIONSHIP_WITH_TRANSFORMATION(#13)
SHAPE_REPRESENTATION_RELATIONSHIP()
);
#13=ITEM_DEFINED_TRANSFORMATION(' ',' ',#1016,#1089);
#14=SHAPE_REPRESENTATION_RELATIONSHIP('','',#1015,#15);
#15=ADVANCED_BREP_SHAPE_REPRESENTATION('',(#1011),#1634);
#16=CYLINDRICAL_SURFACE('',#1026,0.0023);
#17=CYLINDRICAL_SURFACE('',#1038,0.0023);
#18=CYLINDRICAL_SURFACE('',#1049,0.0023);
#19=CYLINDRICAL_SURFACE('',#1074,0.0023);
#20=CYLINDRICAL_SURFACE('',#1077,0.0023);
#21=CYLINDRICAL_SURFACE('',#1080,0.0023);
#22=CYLINDRICAL_SURFACE('',#1083,0.0023);
#23=CYLINDRICAL_SURFACE('',#1086,0.0023);
#24=CIRCLE('',#1023,0.0023);
#25=CIRCLE('',#1027,0.0023);
#26=CIRCLE('',#1032,0.0023);
#27=CIRCLE('',#1033,0.0023);
#28=CIRCLE('',#1034,0.0023);
#29=CIRCLE('',#1035,0.0023);
#30=CIRCLE('',#1037,0.0023);
#31=CIRCLE('',#1039,0.0023);
#32=CIRCLE('',#1045,0.0023);
#33=CIRCLE('',#1047,0.0023);
#34=CIRCLE('',#1072,0.0023);
#35=CIRCLE('',#1075,0.0023);
#36=CIRCLE('',#1078,0.0023);
#37=CIRCLE('',#1081,0.0023);
#38=CIRCLE('',#1084,0.0023);
#39=CIRCLE('',#1087,0.0023);
#40=ORIENTED_EDGE('',*,*,#300,.F.);
#41=ORIENTED_EDGE('',*,*,#301,.T.);
#42=ORIENTED_EDGE('',*,*,#302,.F.);
#43=ORIENTED_EDGE('',*,*,#303,.F.);
#44=ORIENTED_EDGE('',*,*,#304,.F.);
#45=ORIENTED_EDGE('',*,*,#305,.T.);
#46=ORIENTED_EDGE('',*,*,#306,.T.);
#47=ORIENTED_EDGE('',*,*,#307,.T.);
#48=ORIENTED_EDGE('',*,*,#308,.T.);
#49=ORIENTED_EDGE('',*,*,#309,.F.);
#50=ORIENTED_EDGE('',*,*,#310,.T.);
#51=ORIENTED_EDGE('',*,*,#311,.T.);
#52=ORIENTED_EDGE('',*,*,#312,.F.);
#53=ORIENTED_EDGE('',*,*,#313,.F.);
#54=ORIENTED_EDGE('',*,*,#314,.F.);
#55=ORIENTED_EDGE('',*,*,#315,.T.);
#56=ORIENTED_EDGE('',*,*,#316,.T.);
#57=ORIENTED_EDGE('',*,*,#317,.F.);
#58=ORIENTED_EDGE('',*,*,#318,.F.);
#59=ORIENTED_EDGE('',*,*,#319,.F.);
#60=ORIENTED_EDGE('',*,*,#320,.T.);
#61=ORIENTED_EDGE('',*,*,#321,.T.);
#62=ORIENTED_EDGE('',*,*,#322,.T.);
#63=ORIENTED_EDGE('',*,*,#323,.F.);
#64=ORIENTED_EDGE('',*,*,#324,.F.);
#65=ORIENTED_EDGE('',*,*,#325,.F.);
#66=ORIENTED_EDGE('',*,*,#304,.T.);
#67=ORIENTED_EDGE('',*,*,#326,.T.);
#68=ORIENTED_EDGE('',*,*,#327,.F.);
#69=ORIENTED_EDGE('',*,*,#328,.F.);
#70=ORIENTED_EDGE('',*,*,#300,.T.);
#71=ORIENTED_EDGE('',*,*,#329,.T.);
#72=ORIENTED_EDGE('',*,*,#330,.F.);
#73=ORIENTED_EDGE('',*,*,#331,.T.);
#74=ORIENTED_EDGE('',*,*,#329,.F.);
#75=ORIENTED_EDGE('',*,*,#325,.T.);
#76=ORIENTED_EDGE('',*,*,#332,.T.);
#77=ORIENTED_EDGE('',*,*,#333,.F.);
#78=ORIENTED_EDGE('',*,*,#334,.F.);
#79=ORIENTED_EDGE('',*,*,#335,.F.);
#80=ORIENTED_EDGE('',*,*,#320,.F.);
#81=ORIENTED_EDGE('',*,*,#336,.T.);
#82=ORIENTED_EDGE('',*,*,#337,.T.);
#83=ORIENTED_EDGE('',*,*,#338,.F.);
#84=ORIENTED_EDGE('',*,*,#339,.F.);
#85=ORIENTED_EDGE('',*,*,#340,.T.);
#86=ORIENTED_EDGE('',*,*,#341,.T.);
#87=ORIENTED_EDGE('',*,*,#334,.T.);
#88=ORIENTED_EDGE('',*,*,#342,.T.);
#89=ORIENTED_EDGE('',*,*,#343,.T.);
#90=ORIENTED_EDGE('',*,*,#332,.F.);
#91=ORIENTED_EDGE('',*,*,#324,.T.);
#92=ORIENTED_EDGE('',*,*,#344,.F.);
#93=ORIENTED_EDGE('',*,*,#345,.F.);
#94=ORIENTED_EDGE('',*,*,#346,.F.);
#95=ORIENTED_EDGE('',*,*,#342,.F.);
#96=ORIENTED_EDGE('',*,*,#333,.T.);
#97=ORIENTED_EDGE('',*,*,#345,.T.);
#98=ORIENTED_EDGE('',*,*,#347,.T.);
#99=ORIENTED_EDGE('',*,*,#348,.F.);
#100=ORIENTED_EDGE('',*,*,#349,.F.);
#101=ORIENTED_EDGE('',*,*,#343,.F.);
#102=ORIENTED_EDGE('',*,*,#349,.T.);
#103=ORIENTED_EDGE('',*,*,#350,.T.);
#104=ORIENTED_EDGE('',*,*,#321,.F.);
#105=ORIENTED_EDGE('',*,*,#323,.T.);
#106=ORIENTED_EDGE('',*,*,#351,.F.);
#107=ORIENTED_EDGE('',*,*,#347,.F.);
#108=ORIENTED_EDGE('',*,*,#344,.T.);
#109=ORIENTED_EDGE('',*,*,#346,.T.);
#110=ORIENTED_EDGE('',*,*,#352,.F.);
#111=ORIENTED_EDGE('',*,*,#322,.F.);
#112=ORIENTED_EDGE('',*,*,#350,.F.);
#113=ORIENTED_EDGE('',*,*,#348,.T.);
#114=ORIENTED_EDGE('',*,*,#351,.T.);
#115=ORIENTED_EDGE('',*,*,#353,.T.);
#116=ORIENTED_EDGE('',*,*,#338,.T.);
#117=ORIENTED_EDGE('',*,*,#354,.F.);
#118=ORIENTED_EDGE('',*,*,#355,.F.);
#119=ORIENTED_EDGE('',*,*,#356,.F.);
#120=ORIENTED_EDGE('',*,*,#357,.F.);
#121=ORIENTED_EDGE('',*,*,#358,.T.);
#122=ORIENTED_EDGE('',*,*,#359,.T.);
#123=ORIENTED_EDGE('',*,*,#357,.T.);
#124=ORIENTED_EDGE('',*,*,#360,.F.);
#125=ORIENTED_EDGE('',*,*,#361,.T.);
#126=ORIENTED_EDGE('',*,*,#362,.F.);
#127=ORIENTED_EDGE('',*,*,#363,.F.);
#128=ORIENTED_EDGE('',*,*,#364,.F.);
#129=ORIENTED_EDGE('',*,*,#365,.F.);
#130=ORIENTED_EDGE('',*,*,#366,.F.);
#131=ORIENTED_EDGE('',*,*,#330,.T.);
#132=ORIENTED_EDGE('',*,*,#335,.T.);
#133=ORIENTED_EDGE('',*,*,#341,.F.);
#134=ORIENTED_EDGE('',*,*,#367,.T.);
#135=ORIENTED_EDGE('',*,*,#368,.T.);
#136=ORIENTED_EDGE('',*,*,#369,.F.);
#137=ORIENTED_EDGE('',*,*,#370,.F.);
#138=ORIENTED_EDGE('',*,*,#371,.F.);
#139=ORIENTED_EDGE('',*,*,#362,.T.);
#140=ORIENTED_EDGE('',*,*,#372,.T.);
#141=ORIENTED_EDGE('',*,*,#373,.F.);
#142=ORIENTED_EDGE('',*,*,#358,.F.);
#143=ORIENTED_EDGE('',*,*,#374,.T.);
#144=ORIENTED_EDGE('',*,*,#375,.T.);
#145=ORIENTED_EDGE('',*,*,#374,.F.);
#146=ORIENTED_EDGE('',*,*,#376,.F.);
#147=ORIENTED_EDGE('',*,*,#377,.T.);
#148=ORIENTED_EDGE('',*,*,#378,.T.);
#149=ORIENTED_EDGE('',*,*,#311,.F.);
#150=ORIENTED_EDGE('',*,*,#375,.F.);
#151=ORIENTED_EDGE('',*,*,#379,.F.);
#152=ORIENTED_EDGE('',*,*,#380,.T.);
#153=ORIENTED_EDGE('',*,*,#381,.T.);
#154=ORIENTED_EDGE('',*,*,#382,.F.);
#155=ORIENTED_EDGE('',*,*,#383,.T.);
#156=ORIENTED_EDGE('',*,*,#384,.T.);
#157=ORIENTED_EDGE('',*,*,#377,.F.);
#158=ORIENTED_EDGE('',*,*,#385,.F.);
#159=ORIENTED_EDGE('',*,*,#386,.F.);
#160=ORIENTED_EDGE('',*,*,#312,.T.);
#161=ORIENTED_EDGE('',*,*,#378,.F.);
#162=ORIENTED_EDGE('',*,*,#384,.F.);
#163=ORIENTED_EDGE('',*,*,#387,.F.);
#164=ORIENTED_EDGE('',*,*,#317,.T.);
#165=ORIENTED_EDGE('',*,*,#388,.T.);
#166=ORIENTED_EDGE('',*,*,#381,.F.);
#167=ORIENTED_EDGE('',*,*,#389,.T.);
#168=ORIENTED_EDGE('',*,*,#390,.F.);
#169=ORIENTED_EDGE('',*,*,#391,.T.);
#170=ORIENTED_EDGE('',*,*,#392,.F.);
#171=ORIENTED_EDGE('',*,*,#393,.F.);
#172=ORIENTED_EDGE('',*,*,#394,.F.);
#173=ORIENTED_EDGE('',*,*,#308,.F.);
#174=ORIENTED_EDGE('',*,*,#395,.F.);
#175=ORIENTED_EDGE('',*,*,#392,.T.);
#176=ORIENTED_EDGE('',*,*,#396,.T.);
#177=ORIENTED_EDGE('',*,*,#394,.T.);
#178=ORIENTED_EDGE('',*,*,#389,.F.);
#179=ORIENTED_EDGE('',*,*,#391,.F.);
#180=ORIENTED_EDGE('',*,*,#397,.T.);
#181=ORIENTED_EDGE('',*,*,#309,.T.);
#182=ORIENTED_EDGE('',*,*,#396,.F.);
#183=ORIENTED_EDGE('',*,*,#398,.F.);
#184=ORIENTED_EDGE('',*,*,#393,.T.);
#185=ORIENTED_EDGE('',*,*,#395,.T.);
#186=ORIENTED_EDGE('',*,*,#307,.F.);
#187=ORIENTED_EDGE('',*,*,#354,.T.);
#188=ORIENTED_EDGE('',*,*,#337,.F.);
#189=ORIENTED_EDGE('',*,*,#399,.F.);
#190=ORIENTED_EDGE('',*,*,#400,.T.);
#191=ORIENTED_EDGE('',*,*,#355,.T.);
#192=ORIENTED_EDGE('',*,*,#400,.F.);
#193=ORIENTED_EDGE('',*,*,#401,.F.);
#194=ORIENTED_EDGE('',*,*,#402,.T.);
#195=ORIENTED_EDGE('',*,*,#353,.F.);
#196=ORIENTED_EDGE('',*,*,#402,.F.);
#197=ORIENTED_EDGE('',*,*,#403,.T.);
#198=ORIENTED_EDGE('',*,*,#339,.T.);
#199=ORIENTED_EDGE('',*,*,#404,.F.);
#200=ORIENTED_EDGE('',*,*,#405,.T.);
#201=ORIENTED_EDGE('',*,*,#406,.T.);
#202=ORIENTED_EDGE('',*,*,#407,.F.);
#203=ORIENTED_EDGE('',*,*,#314,.T.);
#204=ORIENTED_EDGE('',*,*,#408,.F.);
#205=ORIENTED_EDGE('',*,*,#405,.F.);
#206=ORIENTED_EDGE('',*,*,#409,.T.);
#207=ORIENTED_EDGE('',*,*,#315,.F.);
#208=ORIENTED_EDGE('',*,*,#409,.F.);
#209=ORIENTED_EDGE('',*,*,#404,.T.);
#210=ORIENTED_EDGE('',*,*,#410,.T.);
#211=ORIENTED_EDGE('',*,*,#385,.T.);
#212=ORIENTED_EDGE('',*,*,#376,.T.);
#213=ORIENTED_EDGE('',*,*,#310,.F.);
#214=ORIENTED_EDGE('',*,*,#397,.F.);
#215=ORIENTED_EDGE('',*,*,#390,.T.);
#216=ORIENTED_EDGE('',*,*,#398,.T.);
#217=ORIENTED_EDGE('',*,*,#306,.F.);
#218=ORIENTED_EDGE('',*,*,#411,.F.);
#219=ORIENTED_EDGE('',*,*,#370,.T.);
#220=ORIENTED_EDGE('',*,*,#412,.T.);
#221=ORIENTED_EDGE('',*,*,#305,.F.);
#222=ORIENTED_EDGE('',*,*,#331,.F.);
#223=ORIENTED_EDGE('',*,*,#371,.T.);
#224=ORIENTED_EDGE('',*,*,#411,.T.);
#225=ORIENTED_EDGE('',*,*,#360,.T.);
#226=ORIENTED_EDGE('',*,*,#356,.T.);
#227=ORIENTED_EDGE('',*,*,#413,.F.);
#228=ORIENTED_EDGE('',*,*,#414,.F.);
#229=ORIENTED_EDGE('',*,*,#415,.T.);
#230=ORIENTED_EDGE('',*,*,#372,.F.);
#231=ORIENTED_EDGE('',*,*,#361,.F.);
#232=ORIENTED_EDGE('',*,*,#414,.T.);
#233=ORIENTED_EDGE('',*,*,#336,.F.);
#234=ORIENTED_EDGE('',*,*,#319,.T.);
#235=ORIENTED_EDGE('',*,*,#416,.T.);
#236=ORIENTED_EDGE('',*,*,#367,.F.);
#237=ORIENTED_EDGE('',*,*,#340,.F.);
#238=ORIENTED_EDGE('',*,*,#403,.F.);
#239=ORIENTED_EDGE('',*,*,#401,.T.);
#240=ORIENTED_EDGE('',*,*,#399,.T.);
#241=ORIENTED_EDGE('',*,*,#417,.T.);
#242=ORIENTED_EDGE('',*,*,#379,.T.);
#243=ORIENTED_EDGE('',*,*,#412,.F.);
#244=ORIENTED_EDGE('',*,*,#369,.T.);
#245=ORIENTED_EDGE('',*,*,#413,.T.);
#246=ORIENTED_EDGE('',*,*,#359,.F.);
#247=ORIENTED_EDGE('',*,*,#373,.T.);
#248=ORIENTED_EDGE('',*,*,#415,.F.);
#249=ORIENTED_EDGE('',*,*,#388,.F.);
#250=ORIENTED_EDGE('',*,*,#316,.F.);
#251=ORIENTED_EDGE('',*,*,#410,.F.);
#252=ORIENTED_EDGE('',*,*,#407,.T.);
#253=ORIENTED_EDGE('',*,*,#418,.T.);
#254=ORIENTED_EDGE('',*,*,#382,.T.);
#255=ORIENTED_EDGE('',*,*,#313,.T.);
#256=ORIENTED_EDGE('',*,*,#386,.T.);
#257=ORIENTED_EDGE('',*,*,#383,.F.);
#258=ORIENTED_EDGE('',*,*,#418,.F.);
#259=ORIENTED_EDGE('',*,*,#406,.F.);
#260=ORIENTED_EDGE('',*,*,#408,.T.);
#261=ORIENTED_EDGE('',*,*,#318,.T.);
#262=ORIENTED_EDGE('',*,*,#387,.T.);
#263=ORIENTED_EDGE('',*,*,#380,.F.);
#264=ORIENTED_EDGE('',*,*,#417,.F.);
#265=ORIENTED_EDGE('',*,*,#368,.F.);
#266=ORIENTED_EDGE('',*,*,#416,.F.);
#267=ORIENTED_EDGE('',*,*,#352,.T.);
#268=ORIENTED_EDGE('',*,*,#326,.F.);
#269=ORIENTED_EDGE('',*,*,#303,.T.);
#270=ORIENTED_EDGE('',*,*,#419,.F.);
#271=ORIENTED_EDGE('',*,*,#420,.F.);
#272=ORIENTED_EDGE('',*,*,#301,.F.);
#273=ORIENTED_EDGE('',*,*,#328,.T.);
#274=ORIENTED_EDGE('',*,*,#421,.T.);
#275=ORIENTED_EDGE('',*,*,#422,.T.);
#276=ORIENTED_EDGE('',*,*,#423,.F.);
#277=ORIENTED_EDGE('',*,*,#421,.F.);
#278=ORIENTED_EDGE('',*,*,#327,.T.);
#279=ORIENTED_EDGE('',*,*,#420,.T.);
#280=ORIENTED_EDGE('',*,*,#424,.T.);
#281=ORIENTED_EDGE('',*,*,#302,.T.);
#282=ORIENTED_EDGE('',*,*,#422,.F.);
#283=ORIENTED_EDGE('',*,*,#424,.F.);
#284=ORIENTED_EDGE('',*,*,#419,.T.);
#285=ORIENTED_EDGE('',*,*,#423,.T.);
#286=ORIENTED_EDGE('',*,*,#425,.F.);
#287=ORIENTED_EDGE('',*,*,#425,.T.);
#288=ORIENTED_EDGE('',*,*,#426,.F.);
#289=ORIENTED_EDGE('',*,*,#366,.T.);
#290=ORIENTED_EDGE('',*,*,#426,.T.);
#291=ORIENTED_EDGE('',*,*,#427,.F.);
#292=ORIENTED_EDGE('',*,*,#365,.T.);
#293=ORIENTED_EDGE('',*,*,#427,.T.);
#294=ORIENTED_EDGE('',*,*,#428,.F.);
#295=ORIENTED_EDGE('',*,*,#364,.T.);
#296=ORIENTED_EDGE('',*,*,#428,.T.);
#297=ORIENTED_EDGE('',*,*,#429,.F.);
#298=ORIENTED_EDGE('',*,*,#363,.T.);
#299=ORIENTED_EDGE('',*,*,#429,.T.);
#300=EDGE_CURVE('',#430,#431,#522,.T.);
#301=EDGE_CURVE('',#430,#432,#523,.T.);
#302=EDGE_CURVE('',#433,#432,#524,.T.);
#303=EDGE_CURVE('',#434,#433,#525,.T.);
#304=EDGE_CURVE('',#435,#434,#526,.T.);
#305=EDGE_CURVE('',#435,#436,#527,.T.);
#306=EDGE_CURVE('',#436,#437,#528,.T.);
#307=EDGE_CURVE('',#437,#438,#529,.T.);
#308=EDGE_CURVE('',#438,#439,#530,.T.);
#309=EDGE_CURVE('',#440,#439,#531,.T.);
#310=EDGE_CURVE('',#440,#441,#532,.T.);
#311=EDGE_CURVE('',#441,#442,#533,.T.);
#312=EDGE_CURVE('',#443,#442,#534,.T.);
#313=EDGE_CURVE('',#444,#443,#535,.T.);
#314=EDGE_CURVE('',#445,#444,#536,.T.);
#315=EDGE_CURVE('',#445,#446,#537,.T.);
#316=EDGE_CURVE('',#446,#447,#538,.T.);
#317=EDGE_CURVE('',#448,#447,#539,.T.);
#318=EDGE_CURVE('',#449,#448,#540,.T.);
#319=EDGE_CURVE('',#450,#449,#541,.T.);
#320=EDGE_CURVE('',#450,#451,#542,.T.);
#321=EDGE_CURVE('',#451,#452,#543,.T.);
#322=EDGE_CURVE('',#452,#453,#544,.T.);
#323=EDGE_CURVE('',#454,#453,#545,.T.);
#324=EDGE_CURVE('',#455,#454,#546,.T.);
#325=EDGE_CURVE('',#431,#455,#547,.T.);
#326=EDGE_CURVE('',#434,#456,#548,.T.);
#327=EDGE_CURVE('',#457,#456,#549,.T.);
#328=EDGE_CURVE('',#430,#457,#550,.T.);
#329=EDGE_CURVE('',#431,#458,#551,.T.);
#330=EDGE_CURVE('',#459,#458,#552,.T.);
#331=EDGE_CURVE('',#459,#435,#553,.T.);
#332=EDGE_CURVE('',#455,#460,#554,.T.);
#333=EDGE_CURVE('',#461,#460,#555,.T.);
#334=EDGE_CURVE('',#462,#461,#556,.T.);
#335=EDGE_CURVE('',#458,#462,#557,.T.);
#336=EDGE_CURVE('',#450,#463,#558,.T.);
#337=EDGE_CURVE('',#463,#464,#559,.T.);
#338=EDGE_CURVE('',#465,#464,#560,.T.);
#339=EDGE_CURVE('',#466,#465,#561,.T.);
#340=EDGE_CURVE('',#466,#467,#562,.T.);
#341=EDGE_CURVE('',#467,#462,#563,.T.);
#342=EDGE_CURVE('',#461,#468,#564,.T.);
#343=EDGE_CURVE('',#468,#451,#565,.T.);
#344=EDGE_CURVE('',#469,#454,#566,.T.);
#345=EDGE_CURVE('',#460,#469,#567,.T.);
#346=EDGE_CURVE('',#470,#470,#24,.T.);
#347=EDGE_CURVE('',#469,#471,#568,.T.);
#348=EDGE_CURVE('',#472,#471,#569,.T.);
#349=EDGE_CURVE('',#468,#472,#570,.T.);
#350=EDGE_CURVE('',#472,#452,#571,.T.);
#351=EDGE_CURVE('',#471,#453,#572,.T.);
#352=EDGE_CURVE('',#473,#473,#25,.T.);
#353=EDGE_CURVE('',#474,#465,#573,.T.);
#354=EDGE_CURVE('',#475,#464,#574,.T.);
#355=EDGE_CURVE('',#474,#475,#575,.T.);
#356=EDGE_CURVE('',#476,#477,#576,.T.);
#357=EDGE_CURVE('',#478,#476,#577,.T.);
#358=EDGE_CURVE('',#478,#479,#578,.T.);
#359=EDGE_CURVE('',#479,#477,#579,.T.);
#360=EDGE_CURVE('',#480,#476,#580,.T.);
#361=EDGE_CURVE('',#480,#481,#581,.T.);
#362=EDGE_CURVE('',#478,#481,#582,.T.);
#363=EDGE_CURVE('',#482,#482,#26,.T.);
#364=EDGE_CURVE('',#483,#483,#27,.T.);
#365=EDGE_CURVE('',#484,#484,#28,.T.);
#366=EDGE_CURVE('',#485,#485,#29,.T.);
#367=EDGE_CURVE('',#467,#486,#583,.T.);
#368=EDGE_CURVE('',#486,#487,#584,.T.);
#369=EDGE_CURVE('',#488,#487,#585,.T.);
#370=EDGE_CURVE('',#489,#488,#586,.T.);
#371=EDGE_CURVE('',#459,#489,#587,.T.);
#372=EDGE_CURVE('',#481,#490,#588,.T.);
#373=EDGE_CURVE('',#479,#490,#589,.T.);
#374=EDGE_CURVE('',#491,#491,#30,.T.);
#375=EDGE_CURVE('',#492,#492,#31,.T.);
#376=EDGE_CURVE('',#493,#441,#590,.T.);
#377=EDGE_CURVE('',#493,#494,#591,.T.);
#378=EDGE_CURVE('',#494,#442,#592,.T.);
#379=EDGE_CURVE('',#495,#496,#593,.T.);
#380=EDGE_CURVE('',#495,#497,#594,.T.);
#381=EDGE_CURVE('',#497,#498,#595,.T.);
#382=EDGE_CURVE('',#499,#498,#596,.T.);
#383=EDGE_CURVE('',#499,#500,#597,.T.);
#384=EDGE_CURVE('',#500,#494,#598,.T.);
#385=EDGE_CURVE('',#496,#493,#599,.T.);
#386=EDGE_CURVE('',#443,#500,#600,.T.);
#387=EDGE_CURVE('',#448,#497,#601,.T.);
#388=EDGE_CURVE('',#447,#498,#602,.T.);
#389=EDGE_CURVE('',#501,#501,#32,.T.);
#390=EDGE_CURVE('',#502,#503,#603,.T.);
#391=EDGE_CURVE('',#502,#504,#604,.T.);
#392=EDGE_CURVE('',#505,#504,#605,.T.);
#393=EDGE_CURVE('',#503,#505,#606,.T.);
#394=EDGE_CURVE('',#506,#506,#33,.T.);
#395=EDGE_CURVE('',#505,#438,#607,.T.);
#396=EDGE_CURVE('',#504,#439,#608,.T.);
#397=EDGE_CURVE('',#502,#440,#609,.T.);
#398=EDGE_CURVE('',#503,#437,#610,.T.);
#399=EDGE_CURVE('',#507,#463,#611,.T.);
#400=EDGE_CURVE('',#507,#475,#612,.T.);
#401=EDGE_CURVE('',#508,#507,#613,.T.);
#402=EDGE_CURVE('',#508,#474,#614,.T.);
#403=EDGE_CURVE('',#508,#466,#615,.T.);
#404=EDGE_CURVE('',#509,#510,#616,.T.);
#405=EDGE_CURVE('',#509,#511,#617,.T.);
#406=EDGE_CURVE('',#511,#512,#618,.T.);
#407=EDGE_CURVE('',#510,#512,#619,.T.);
#408=EDGE_CURVE('',#511,#444,#620,.T.);
#409=EDGE_CURVE('',#509,#445,#621,.T.);
#410=EDGE_CURVE('',#510,#446,#622,.T.);
#411=EDGE_CURVE('',#489,#436,#623,.T.);
#412=EDGE_CURVE('',#488,#496,#624,.T.);
#413=EDGE_CURVE('',#513,#477,#625,.T.);
#414=EDGE_CURVE('',#480,#513,#626,.T.);
#415=EDGE_CURVE('',#513,#490,#627,.T.);
#416=EDGE_CURVE('',#449,#486,#628,.T.);
#417=EDGE_CURVE('',#487,#495,#629,.T.);
#418=EDGE_CURVE('',#512,#499,#630,.T.);
#419=EDGE_CURVE('',#514,#433,#631,.T.);
#420=EDGE_CURVE('',#456,#514,#632,.T.);
#421=EDGE_CURVE('',#457,#515,#633,.T.);
#422=EDGE_CURVE('',#515,#432,#634,.T.);
#423=EDGE_CURVE('',#516,#516,#34,.T.);
#424=EDGE_CURVE('',#514,#515,#635,.T.);
#425=EDGE_CURVE('',#517,#517,#35,.T.);
#426=EDGE_CURVE('',#518,#518,#36,.T.);
#427=EDGE_CURVE('',#519,#519,#37,.T.);
#428=EDGE_CURVE('',#520,#520,#38,.T.);
#429=EDGE_CURVE('',#521,#521,#39,.T.);
#430=VERTEX_POINT('',#1355);
#431=VERTEX_POINT('',#1356);
#432=VERTEX_POINT('',#1358);
#433=VERTEX_POINT('',#1360);
#434=VERTEX_POINT('',#1362);
#435=VERTEX_POINT('',#1364);
#436=VERTEX_POINT('',#1366);
#437=VERTEX_POINT('',#1368);
#438=VERTEX_POINT('',#1370);
#439=VERTEX_POINT('',#1372);
#440=VERTEX_POINT('',#1374);
#441=VERTEX_POINT('',#1376);
#442=VERTEX_POINT('',#1378);
#443=VERTEX_POINT('',#1380);
#444=VERTEX_POINT('',#1382);
#445=VERTEX_POINT('',#1384);
#446=VERTEX_POINT('',#1386);
#447=VERTEX_POINT('',#1388);
#448=VERTEX_POINT('',#1390);
#449=VERTEX_POINT('',#1392);
#450=VERTEX_POINT('',#1394);
#451=VERTEX_POINT('',#1396);
#452=VERTEX_POINT('',#1398);
#453=VERTEX_POINT('',#1400);
#454=VERTEX_POINT('',#1402);
#455=VERTEX_POINT('',#1404);
#456=VERTEX_POINT('',#1408);
#457=VERTEX_POINT('',#1410);
#458=VERTEX_POINT('',#1413);
#459=VERTEX_POINT('',#1415);
#460=VERTEX_POINT('',#1419);
#461=VERTEX_POINT('',#1421);
#462=VERTEX_POINT('',#1423);
#463=VERTEX_POINT('',#1427);
#464=VERTEX_POINT('',#1429);
#465=VERTEX_POINT('',#1431);
#466=VERTEX_POINT('',#1433);
#467=VERTEX_POINT('',#1435);
#468=VERTEX_POINT('',#1438);
#469=VERTEX_POINT('',#1442);
#470=VERTEX_POINT('',#1446);
#471=VERTEX_POINT('',#1448);
#472=VERTEX_POINT('',#1450);
#473=VERTEX_POINT('',#1458);
#474=VERTEX_POINT('',#1462);
#475=VERTEX_POINT('',#1464);
#476=VERTEX_POINT('',#1467);
#477=VERTEX_POINT('',#1468);
#478=VERTEX_POINT('',#1470);
#479=VERTEX_POINT('',#1472);
#480=VERTEX_POINT('',#1476);
#481=VERTEX_POINT('',#1478);
#482=VERTEX_POINT('',#1482);
#483=VERTEX_POINT('',#1484);
#484=VERTEX_POINT('',#1486);
#485=VERTEX_POINT('',#1488);
#486=VERTEX_POINT('',#1490);
#487=VERTEX_POINT('',#1492);
#488=VERTEX_POINT('',#1494);
#489=VERTEX_POINT('',#1496);
#490=VERTEX_POINT('',#1499);
#491=VERTEX_POINT('',#1503);
#492=VERTEX_POINT('',#1506);
#493=VERTEX_POINT('',#1509);
#494=VERTEX_POINT('',#1511);
#495=VERTEX_POINT('',#1515);
#496=VERTEX_POINT('',#1516);
#497=VERTEX_POINT('',#1518);
#498=VERTEX_POINT('',#1520);
#499=VERTEX_POINT('',#1522);
#500=VERTEX_POINT('',#1524);
#501=VERTEX_POINT('',#1534);
#502=VERTEX_POINT('',#1537);
#503=VERTEX_POINT('',#1538);
#504=VERTEX_POINT('',#1540);
#505=VERTEX_POINT('',#1542);
#506=VERTEX_POINT('',#1545);
#507=VERTEX_POINT('',#1556);
#508=VERTEX_POINT('',#1560);
#509=VERTEX_POINT('',#1566);
#510=VERTEX_POINT('',#1567);
#511=VERTEX_POINT('',#1569);
#512=VERTEX_POINT('',#1571);
#513=VERTEX_POINT('',#1584);
#514=VERTEX_POINT('',#1600);
#515=VERTEX_POINT('',#1604);
#516=VERTEX_POINT('',#1608);
#517=VERTEX_POINT('',#1613);
#518=VERTEX_POINT('',#1617);
#519=VERTEX_POINT('',#1621);
#520=VERTEX_POINT('',#1625);
#521=VERTEX_POINT('',#1629);
#522=LINE('',#1354,#636);
#523=LINE('',#1357,#637);
#524=LINE('',#1359,#638);
#525=LINE('',#1361,#639);
#526=LINE('',#1363,#640);
#527=LINE('',#1365,#641);
#528=LINE('',#1367,#642);
#529=LINE('',#1369,#643);
#530=LINE('',#1371,#644);
#531=LINE('',#1373,#645);
#532=LINE('',#1375,#646);
#533=LINE('',#1377,#647);
#534=LINE('',#1379,#648);
#535=LINE('',#1381,#649);
#536=LINE('',#1383,#650);
#537=LINE('',#1385,#651);
#538=LINE('',#1387,#652);
#539=LINE('',#1389,#653);
#540=LINE('',#1391,#654);
#541=LINE('',#1393,#655);
#542=LINE('',#1395,#656);
#543=LINE('',#1397,#657);
#544=LINE('',#1399,#658);
#545=LINE('',#1401,#659);
#546=LINE('',#1403,#660);
#547=LINE('',#1405,#661);
#548=LINE('',#1407,#662);
#549=LINE('',#1409,#663);
#550=LINE('',#1411,#664);
#551=LINE('',#1412,#665);
#552=LINE('',#1414,#666);
#553=LINE('',#1416,#667);
#554=LINE('',#1418,#668);
#555=LINE('',#1420,#669);
#556=LINE('',#1422,#670);
#557=LINE('',#1424,#671);
#558=LINE('',#1426,#672);
#559=LINE('',#1428,#673);
#560=LINE('',#1430,#674);
#561=LINE('',#1432,#675);
#562=LINE('',#1434,#676);
#563=LINE('',#1436,#677);
#564=LINE('',#1437,#678);
#565=LINE('',#1439,#679);
#566=LINE('',#1441,#680);
#567=LINE('',#1443,#681);
#568=LINE('',#1447,#682);
#569=LINE('',#1449,#683);
#570=LINE('',#1451,#684);
#571=LINE('',#1453,#685);
#572=LINE('',#1455,#686);
#573=LINE('',#1461,#687);
#574=LINE('',#1463,#688);
#575=LINE('',#1465,#689);
#576=LINE('',#1466,#690);
#577=LINE('',#1469,#691);
#578=LINE('',#1471,#692);
#579=LINE('',#1473,#693);
#580=LINE('',#1475,#694);
#581=LINE('',#1477,#695);
#582=LINE('',#1479,#696);
#583=LINE('',#1489,#697);
#584=LINE('',#1491,#698);
#585=LINE('',#1493,#699);
#586=LINE('',#1495,#700);
#587=LINE('',#1497,#701);
#588=LINE('',#1498,#702);
#589=LINE('',#1500,#703);
#590=LINE('',#1508,#704);
#591=LINE('',#1510,#705);
#592=LINE('',#1512,#706);
#593=LINE('',#1514,#707);
#594=LINE('',#1517,#708);
#595=LINE('',#1519,#709);
#596=LINE('',#1521,#710);
#597=LINE('',#1523,#711);
#598=LINE('',#1525,#712);
#599=LINE('',#1526,#713);
#600=LINE('',#1528,#714);
#601=LINE('',#1530,#715);
#602=LINE('',#1531,#716);
#603=LINE('',#1536,#717);
#604=LINE('',#1539,#718);
#605=LINE('',#1541,#719);
#606=LINE('',#1543,#720);
#607=LINE('',#1547,#721);
#608=LINE('',#1548,#722);
#609=LINE('',#1551,#723);
#610=LINE('',#1553,#724);
#611=LINE('',#1555,#725);
#612=LINE('',#1557,#726);
#613=LINE('',#1559,#727);
#614=LINE('',#1561,#728);
#615=LINE('',#1563,#729);
#616=LINE('',#1565,#730);
#617=LINE('',#1568,#731);
#618=LINE('',#1570,#732);
#619=LINE('',#1572,#733);
#620=LINE('',#1574,#734);
#621=LINE('',#1575,#735);
#622=LINE('',#1577,#736);
#623=LINE('',#1579,#737);
#624=LINE('',#1580,#738);
#625=LINE('',#1583,#739);
#626=LINE('',#1585,#740);
#627=LINE('',#1587,#741);
#628=LINE('',#1589,#742);
#629=LINE('',#1591,#743);
#630=LINE('',#1594,#744);
#631=LINE('',#1599,#745);
#632=LINE('',#1601,#746);
#633=LINE('',#1603,#747);
#634=LINE('',#1605,#748);
#635=LINE('',#1609,#749);
#636=VECTOR('',#1094,1.);
#637=VECTOR('',#1095,1.);
#638=VECTOR('',#1096,1.);
#639=VECTOR('',#1097,1.);
#640=VECTOR('',#1098,1.);
#641=VECTOR('',#1099,1.);
#642=VECTOR('',#1100,1.);
#643=VECTOR('',#1101,1.);
#644=VECTOR('',#1102,1.);
#645=VECTOR('',#1103,1.);
#646=VECTOR('',#1104,1.);
#647=VECTOR('',#1105,1.);
#648=VECTOR('',#1106,1.);
#649=VECTOR('',#1107,1.);
#650=VECTOR('',#1108,1.);
#651=VECTOR('',#1109,1.);
#652=VECTOR('',#1110,1.);
#653=VECTOR('',#1111,1.);
#654=VECTOR('',#1112,1.);
#655=VECTOR('',#1113,1.);
#656=VECTOR('',#1114,1.);
#657=VECTOR('',#1115,1.);
#658=VECTOR('',#1116,1.);
#659=VECTOR('',#1117,1.);
#660=VECTOR('',#1118,1.);
#661=VECTOR('',#1119,1.);
#662=VECTOR('',#1122,1.);
#663=VECTOR('',#1123,1.);
#664=VECTOR('',#1124,1.);
#665=VECTOR('',#1125,1.);
#666=VECTOR('',#1126,1.);
#667=VECTOR('',#1127,1.);
#668=VECTOR('',#1130,1.);
#669=VECTOR('',#1131,1.);
#670=VECTOR('',#1132,1.);
#671=VECTOR('',#1133,1.);
#672=VECTOR('',#1136,1.);
#673=VECTOR('',#1137,1.);
#674=VECTOR('',#1138,1.);
#675=VECTOR('',#1139,1.);
#676=VECTOR('',#1140,1.);
#677=VECTOR('',#1141,1.);
#678=VECTOR('',#1142,1.);
#679=VECTOR('',#1143,1.);
#680=VECTOR('',#1146,1.);
#681=VECTOR('',#1147,1.);
#682=VECTOR('',#1152,1.);
#683=VECTOR('',#1153,1.);
#684=VECTOR('',#1154,1.);
#685=VECTOR('',#1157,1.);
#686=VECTOR('',#1160,1.);
#687=VECTOR('',#1169,1.);
#688=VECTOR('',#1170,1.);
#689=VECTOR('',#1171,1.);
#690=VECTOR('',#1172,1.);
#691=VECTOR('',#1173,1.);
#692=VECTOR('',#1174,1.);
#693=VECTOR('',#1175,1.);
#694=VECTOR('',#1178,1.);
#695=VECTOR('',#1179,1.);
#696=VECTOR('',#1180,1.);
#697=VECTOR('',#1191,1.);
#698=VECTOR('',#1192,1.);
#699=VECTOR('',#1193,1.);
#700=VECTOR('',#1194,1.);
#701=VECTOR('',#1195,1.);
#702=VECTOR('',#1196,1.);
#703=VECTOR('',#1197,1.);
#704=VECTOR('',#1208,1.);
#705=VECTOR('',#1209,1.);
#706=VECTOR('',#1210,1.);
#707=VECTOR('',#1213,1.);
#708=VECTOR('',#1214,1.);
#709=VECTOR('',#1215,1.);
#710=VECTOR('',#1216,1.);
#711=VECTOR('',#1217,1.);
#712=VECTOR('',#1218,1.);
#713=VECTOR('',#1219,1.);
#714=VECTOR('',#1222,1.);
#715=VECTOR('',#1225,1.);
#716=VECTOR('',#1226,1.);
#717=VECTOR('',#1233,1.);
#718=VECTOR('',#1234,1.);
#719=VECTOR('',#1235,1.);
#720=VECTOR('',#1236,1.);
#721=VECTOR('',#1241,1.);
#722=VECTOR('',#1242,1.);
#723=VECTOR('',#1247,1.);
#724=VECTOR('',#1250,1.);
#725=VECTOR('',#1253,1.);
#726=VECTOR('',#1254,1.);
#727=VECTOR('',#1257,1.);
#728=VECTOR('',#1258,1.);
#729=VECTOR('',#1261,1.);
#730=VECTOR('',#1264,1.);
#731=VECTOR('',#1265,1.);
#732=VECTOR('',#1266,1.);
#733=VECTOR('',#1267,1.);
#734=VECTOR('',#1270,1.);
#735=VECTOR('',#1271,1.);
#736=VECTOR('',#1274,1.);
#737=VECTOR('',#1277,1.);
#738=VECTOR('',#1278,1.);
#739=VECTOR('',#1283,1.);
#740=VECTOR('',#1284,1.);
#741=VECTOR('',#1287,1.);
#742=VECTOR('',#1290,1.);
#743=VECTOR('',#1293,1.);
#744=VECTOR('',#1298,1.);
#745=VECTOR('',#1307,1.);
#746=VECTOR('',#1308,1.);
#747=VECTOR('',#1311,1.);
#748=VECTOR('',#1312,1.);
#749=VECTOR('',#1317,1.);
#750=EDGE_LOOP('',(#40,#41,#42,#43,#44,#45,#46,#47,#48,#49,#50,#51,#52,
#53,#54,#55,#56,#57,#58,#59,#60,#61,#62,#63,#64,#65));
#751=EDGE_LOOP('',(#66,#67,#68,#69,#70,#71,#72,#73));
#752=EDGE_LOOP('',(#74,#75,#76,#77,#78,#79));
#753=EDGE_LOOP('',(#80,#81,#82,#83,#84,#85,#86,#87,#88,#89));
#754=EDGE_LOOP('',(#90,#91,#92,#93));
#755=EDGE_LOOP('',(#94));
#756=EDGE_LOOP('',(#95,#96,#97,#98,#99,#100));
#757=EDGE_LOOP('',(#101,#102,#103,#104));
#758=EDGE_LOOP('',(#105,#106,#107,#108));
#759=EDGE_LOOP('',(#109));
#760=EDGE_LOOP('',(#110));
#761=EDGE_LOOP('',(#111,#112,#113,#114));
#762=EDGE_LOOP('',(#115,#116,#117,#118));
#763=EDGE_LOOP('',(#119,#120,#121,#122));
#764=EDGE_LOOP('',(#123,#124,#125,#126));
#765=EDGE_LOOP('',(#127));
#766=EDGE_LOOP('',(#128));
#767=EDGE_LOOP('',(#129));
#768=EDGE_LOOP('',(#130));
#769=EDGE_LOOP('',(#131,#132,#133,#134,#135,#136,#137,#138));
#770=EDGE_LOOP('',(#139,#140,#141,#142));
#771=EDGE_LOOP('',(#143));
#772=EDGE_LOOP('',(#144));
#773=EDGE_LOOP('',(#145));
#774=EDGE_LOOP('',(#146,#147,#148,#149));
#775=EDGE_LOOP('',(#150));
#776=EDGE_LOOP('',(#151,#152,#153,#154,#155,#156,#157,#158));
#777=EDGE_LOOP('',(#159,#160,#161,#162));
#778=EDGE_LOOP('',(#163,#164,#165,#166));
#779=EDGE_LOOP('',(#167));
#780=EDGE_LOOP('',(#168,#169,#170,#171));
#781=EDGE_LOOP('',(#172));
#782=EDGE_LOOP('',(#173,#174,#175,#176));
#783=EDGE_LOOP('',(#177));
#784=EDGE_LOOP('',(#178));
#785=EDGE_LOOP('',(#179,#180,#181,#182));
#786=EDGE_LOOP('',(#183,#184,#185,#186));
#787=EDGE_LOOP('',(#187,#188,#189,#190));
#788=EDGE_LOOP('',(#191,#192,#193,#194));
#789=EDGE_LOOP('',(#195,#196,#197,#198));
#790=EDGE_LOOP('',(#199,#200,#201,#202));
#791=EDGE_LOOP('',(#203,#204,#205,#206));
#792=EDGE_LOOP('',(#207,#208,#209,#210));
#793=EDGE_LOOP('',(#211,#212,#213,#214,#215,#216,#217,#218,#219,#220));
#794=EDGE_LOOP('',(#221,#222,#223,#224));
#795=EDGE_LOOP('',(#225,#226,#227,#228));
#796=EDGE_LOOP('',(#229,#230,#231,#232));
#797=EDGE_LOOP('',(#233,#234,#235,#236,#237,#238,#239,#240));
#798=EDGE_LOOP('',(#241,#242,#243,#244));
#799=EDGE_LOOP('',(#245,#246,#247,#248));
#800=EDGE_LOOP('',(#249,#250,#251,#252,#253,#254));
#801=EDGE_LOOP('',(#255,#256,#257,#258,#259,#260));
#802=EDGE_LOOP('',(#261,#262,#263,#264,#265,#266));
#803=EDGE_LOOP('',(#267));
#804=EDGE_LOOP('',(#268,#269,#270,#271));
#805=EDGE_LOOP('',(#272,#273,#274,#275));
#806=EDGE_LOOP('',(#276));
#807=EDGE_LOOP('',(#277,#278,#279,#280));
#808=EDGE_LOOP('',(#281,#282,#283,#284));
#809=EDGE_LOOP('',(#285));
#810=EDGE_LOOP('',(#286));
#811=EDGE_LOOP('',(#287));
#812=EDGE_LOOP('',(#288));
#813=EDGE_LOOP('',(#289));
#814=EDGE_LOOP('',(#290));
#815=EDGE_LOOP('',(#291));
#816=EDGE_LOOP('',(#292));
#817=EDGE_LOOP('',(#293));
#818=EDGE_LOOP('',(#294));
#819=EDGE_LOOP('',(#295));
#820=EDGE_LOOP('',(#296));
#821=EDGE_LOOP('',(#297));
#822=EDGE_LOOP('',(#298));
#823=EDGE_LOOP('',(#299));
#824=FACE_BOUND('',#750,.T.);
#825=FACE_BOUND('',#751,.T.);
#826=FACE_BOUND('',#752,.T.);
#827=FACE_BOUND('',#753,.T.);
#828=FACE_BOUND('',#754,.T.);
#829=FACE_BOUND('',#755,.T.);
#830=FACE_BOUND('',#756,.T.);
#831=FACE_BOUND('',#757,.T.);
#832=FACE_BOUND('',#758,.T.);
#833=FACE_BOUND('',#759,.T.);
#834=FACE_BOUND('',#760,.T.);
#835=FACE_BOUND('',#761,.T.);
#836=FACE_BOUND('',#762,.T.);
#837=FACE_BOUND('',#763,.T.);
#838=FACE_BOUND('',#764,.T.);
#839=FACE_BOUND('',#765,.T.);
#840=FACE_BOUND('',#766,.T.);
#841=FACE_BOUND('',#767,.T.);
#842=FACE_BOUND('',#768,.T.);
#843=FACE_BOUND('',#769,.T.);
#844=FACE_BOUND('',#770,.T.);
#845=FACE_BOUND('',#771,.T.);
#846=FACE_BOUND('',#772,.T.);
#847=FACE_BOUND('',#773,.T.);
#848=FACE_BOUND('',#774,.T.);
#849=FACE_BOUND('',#775,.T.);
#850=FACE_BOUND('',#776,.T.);
#851=FACE_BOUND('',#777,.T.);
#852=FACE_BOUND('',#778,.T.);
#853=FACE_BOUND('',#779,.T.);
#854=FACE_BOUND('',#780,.T.);
#855=FACE_BOUND('',#781,.T.);
#856=FACE_BOUND('',#782,.T.);
#857=FACE_BOUND('',#783,.T.);
#858=FACE_BOUND('',#784,.T.);
#859=FACE_BOUND('',#785,.T.);
#860=FACE_BOUND('',#786,.T.);
#861=FACE_BOUND('',#787,.T.);
#862=FACE_BOUND('',#788,.T.);
#863=FACE_BOUND('',#789,.T.);
#864=FACE_BOUND('',#790,.T.);
#865=FACE_BOUND('',#791,.T.);
#866=FACE_BOUND('',#792,.T.);
#867=FACE_BOUND('',#793,.T.);
#868=FACE_BOUND('',#794,.T.);
#869=FACE_BOUND('',#795,.T.);
#870=FACE_BOUND('',#796,.T.);
#871=FACE_BOUND('',#797,.T.);
#872=FACE_BOUND('',#798,.T.);
#873=FACE_BOUND('',#799,.T.);
#874=FACE_BOUND('',#800,.T.);
#875=FACE_BOUND('',#801,.T.);
#876=FACE_BOUND('',#802,.T.);
#877=FACE_BOUND('',#803,.T.);
#878=FACE_BOUND('',#804,.T.);
#879=FACE_BOUND('',#805,.T.);
#880=FACE_BOUND('',#806,.T.);
#881=FACE_BOUND('',#807,.T.);
#882=FACE_BOUND('',#808,.T.);
#883=FACE_BOUND('',#809,.T.);
#884=FACE_BOUND('',#810,.T.);
#885=FACE_BOUND('',#811,.T.);
#886=FACE_BOUND('',#812,.T.);
#887=FACE_BOUND('',#813,.T.);
#888=FACE_BOUND('',#814,.T.);
#889=FACE_BOUND('',#815,.T.);
#890=FACE_BOUND('',#816,.T.);
#891=FACE_BOUND('',#817,.T.);
#892=FACE_BOUND('',#818,.T.);
#893=FACE_BOUND('',#819,.T.);
#894=FACE_BOUND('',#820,.T.);
#895=FACE_BOUND('',#821,.T.);
#896=FACE_BOUND('',#822,.T.);
#897=FACE_BOUND('',#823,.T.);
#898=PLANE('',#1017);
#899=PLANE('',#1018);
#900=PLANE('',#1019);
#901=PLANE('',#1020);
#902=PLANE('',#1021);
#903=PLANE('',#1022);
#904=PLANE('',#1024);
#905=PLANE('',#1025);
#906=PLANE('',#1028);
#907=PLANE('',#1029);
#908=PLANE('',#1030);
#909=PLANE('',#1031);
#910=PLANE('',#1036);
#911=PLANE('',#1040);
#912=PLANE('',#1041);
#913=PLANE('',#1042);
#914=PLANE('',#1043);
#915=PLANE('',#1044);
#916=PLANE('',#1046);
#917=PLANE('',#1048);
#918=PLANE('',#1050);
#919=PLANE('',#1051);
#920=PLANE('',#1052);
#921=PLANE('',#1053);
#922=PLANE('',#1054);
#923=PLANE('',#1055);
#924=PLANE('',#1056);
#925=PLANE('',#1057);
#926=PLANE('',#1058);
#927=PLANE('',#1059);
#928=PLANE('',#1060);
#929=PLANE('',#1061);
#930=PLANE('',#1062);
#931=PLANE('',#1063);
#932=PLANE('',#1064);
#933=PLANE('',#1065);
#934=PLANE('',#1066);
#935=PLANE('',#1067);
#936=PLANE('',#1068);
#937=PLANE('',#1069);
#938=PLANE('',#1070);
#939=PLANE('',#1071);
#940=PLANE('',#1073);
#941=PLANE('',#1076);
#942=PLANE('',#1079);
#943=PLANE('',#1082);
#944=PLANE('',#1085);
#945=PLANE('',#1088);
#946=ADVANCED_FACE('',(#824),#898,.T.);
#947=ADVANCED_FACE('',(#825),#899,.F.);
#948=ADVANCED_FACE('',(#826),#900,.F.);
#949=ADVANCED_FACE('',(#827),#901,.T.);
#950=ADVANCED_FACE('',(#828),#902,.F.);
#951=ADVANCED_FACE('',(#829,#830),#903,.T.);
#952=ADVANCED_FACE('',(#831),#904,.T.);
#953=ADVANCED_FACE('',(#832),#905,.F.);
#954=ADVANCED_FACE('',(#833,#834),#16,.F.);
#955=ADVANCED_FACE('',(#835),#906,.T.);
#956=ADVANCED_FACE('',(#836,#837),#907,.T.);
#957=ADVANCED_FACE('',(#838),#908,.F.);
#958=ADVANCED_FACE('',(#839,#840,#841,#842,#843,#844),#909,.T.);
#959=ADVANCED_FACE('',(#845),#910,.T.);
#960=ADVANCED_FACE('',(#846,#847),#17,.F.);
#961=ADVANCED_FACE('',(#848),#911,.T.);
#962=ADVANCED_FACE('',(#849,#850),#912,.T.);
#963=ADVANCED_FACE('',(#851),#913,.F.);
#964=ADVANCED_FACE('',(#852),#914,.F.);
#965=ADVANCED_FACE('',(#853),#915,.T.);
#966=ADVANCED_FACE('',(#854,#855),#916,.T.);
#967=ADVANCED_FACE('',(#856),#917,.T.);
#968=ADVANCED_FACE('',(#857,#858),#18,.F.);
#969=ADVANCED_FACE('',(#859),#918,.F.);
#970=ADVANCED_FACE('',(#860),#919,.T.);
#971=ADVANCED_FACE('',(#861),#920,.F.);
#972=ADVANCED_FACE('',(#862),#921,.F.);
#973=ADVANCED_FACE('',(#863),#922,.T.);
#974=ADVANCED_FACE('',(#864),#923,.T.);
#975=ADVANCED_FACE('',(#865),#924,.F.);
#976=ADVANCED_FACE('',(#866),#925,.T.);
#977=ADVANCED_FACE('',(#867),#926,.T.);
#978=ADVANCED_FACE('',(#868),#927,.T.);
#979=ADVANCED_FACE('',(#869),#928,.F.);
#980=ADVANCED_FACE('',(#870),#929,.T.);
#981=ADVANCED_FACE('',(#871),#930,.F.);
#982=ADVANCED_FACE('',(#872),#931,.T.);
#983=ADVANCED_FACE('',(#873),#932,.T.);
#984=ADVANCED_FACE('',(#874),#933,.T.);
#985=ADVANCED_FACE('',(#875),#934,.F.);
#986=ADVANCED_FACE('',(#876),#935,.F.);
#987=ADVANCED_FACE('',(#877),#936,.T.);
#988=ADVANCED_FACE('',(#878),#937,.F.);
#989=ADVANCED_FACE('',(#879),#938,.T.);
#990=ADVANCED_FACE('',(#880,#881),#939,.T.);
#991=ADVANCED_FACE('',(#882),#940,.F.);
#992=ADVANCED_FACE('',(#883,#884),#19,.F.);
#993=ADVANCED_FACE('',(#885),#941,.T.);
#994=ADVANCED_FACE('',(#886,#887),#20,.F.);
#995=ADVANCED_FACE('',(#888),#942,.T.);
#996=ADVANCED_FACE('',(#889,#890),#21,.F.);
#997=ADVANCED_FACE('',(#891),#943,.T.);
#998=ADVANCED_FACE('',(#892,#893),#22,.F.);
#999=ADVANCED_FACE('',(#894),#944,.T.);
#1000=ADVANCED_FACE('',(#895,#896),#23,.F.);
#1001=ADVANCED_FACE('',(#897),#945,.T.);
#1002=CLOSED_SHELL('',(#946,#947,#948,#949,#950,#951,#952,#953,#954,#955,
#956,#957,#958,#959,#960,#961,#962,#963,#964,#965,#966,#967,#968,#969,#970,
#971,#972,#973,#974,#975,#976,#977,#978,#979,#980,#981,#982,#983,#984,#985,
#986,#987,#988,#989,#990,#991,#992,#993,#994,#995,#996,#997,#998,#999,#1000,
#1001));
#1003=STYLED_ITEM('',(#1004),#1011);
#1004=PRESENTATION_STYLE_ASSIGNMENT((#1005));
#1005=SURFACE_STYLE_USAGE(.BOTH.,#1006);
#1006=SURFACE_SIDE_STYLE('',(#1007));
#1007=SURFACE_STYLE_FILL_AREA(#1008);
#1008=FILL_AREA_STYLE('',(#1009));
#1009=FILL_AREA_STYLE_COLOUR('',#1010);
#1010=COLOUR_RGB('',0.768627450980392,0.886274509803922,0.952941176470588);
#1011=MANIFOLD_SOLID_BREP('Part 3',#1002);
#1012=SHAPE_DEFINITION_REPRESENTATION(#1640,#1014);
#1013=SHAPE_DEFINITION_REPRESENTATION(#1641,#1015);
#1014=SHAPE_REPRESENTATION('Body',(#1016,#1089),#1633);
#1015=SHAPE_REPRESENTATION('Part 3',(#1016),#1634);
#1016=AXIS2_PLACEMENT_3D('',#1352,#1090,#1091);
#1017=AXIS2_PLACEMENT_3D('',#1353,#1092,#1093);
#1018=AXIS2_PLACEMENT_3D('',#1406,#1120,#1121);
#1019=AXIS2_PLACEMENT_3D('',#1417,#1128,#1129);
#1020=AXIS2_PLACEMENT_3D('',#1425,#1134,#1135);
#1021=AXIS2_PLACEMENT_3D('',#1440,#1144,#1145);
#1022=AXIS2_PLACEMENT_3D('',#1444,#1148,#1149);
#1023=AXIS2_PLACEMENT_3D('',#1445,#1150,#1151);
#1024=AXIS2_PLACEMENT_3D('',#1452,#1155,#1156);
#1025=AXIS2_PLACEMENT_3D('',#1454,#1158,#1159);
#1026=AXIS2_PLACEMENT_3D('',#1456,#1161,#1162);
#1027=AXIS2_PLACEMENT_3D('',#1457,#1163,#1164);
#1028=AXIS2_PLACEMENT_3D('',#1459,#1165,#1166);
#1029=AXIS2_PLACEMENT_3D('',#1460,#1167,#1168);
#1030=AXIS2_PLACEMENT_3D('',#1474,#1176,#1177);
#1031=AXIS2_PLACEMENT_3D('',#1480,#1181,#1182);
#1032=AXIS2_PLACEMENT_3D('',#1481,#1183,#1184);
#1033=AXIS2_PLACEMENT_3D('',#1483,#1185,#1186);
#1034=AXIS2_PLACEMENT_3D('',#1485,#1187,#1188);
#1035=AXIS2_PLACEMENT_3D('',#1487,#1189,#1190);
#1036=AXIS2_PLACEMENT_3D('',#1501,#1198,#1199);
#1037=AXIS2_PLACEMENT_3D('',#1502,#1200,#1201);
#1038=AXIS2_PLACEMENT_3D('',#1504,#1202,#1203);
#1039=AXIS2_PLACEMENT_3D('',#1505,#1204,#1205);
#1040=AXIS2_PLACEMENT_3D('',#1507,#1206,#1207);
#1041=AXIS2_PLACEMENT_3D('',#1513,#1211,#1212);
#1042=AXIS2_PLACEMENT_3D('',#1527,#1220,#1221);
#1043=AXIS2_PLACEMENT_3D('',#1529,#1223,#1224);
#1044=AXIS2_PLACEMENT_3D('',#1532,#1227,#1228);
#1045=AXIS2_PLACEMENT_3D('',#1533,#1229,#1230);
#1046=AXIS2_PLACEMENT_3D('',#1535,#1231,#1232);
#1047=AXIS2_PLACEMENT_3D('',#1544,#1237,#1238);
#1048=AXIS2_PLACEMENT_3D('',#1546,#1239,#1240);
#1049=AXIS2_PLACEMENT_3D('',#1549,#1243,#1244);
#1050=AXIS2_PLACEMENT_3D('',#1550,#1245,#1246);
#1051=AXIS2_PLACEMENT_3D('',#1552,#1248,#1249);
#1052=AXIS2_PLACEMENT_3D('',#1554,#1251,#1252);
#1053=AXIS2_PLACEMENT_3D('',#1558,#1255,#1256);
#1054=AXIS2_PLACEMENT_3D('',#1562,#1259,#1260);
#1055=AXIS2_PLACEMENT_3D('',#1564,#1262,#1263);
#1056=AXIS2_PLACEMENT_3D('',#1573,#1268,#1269);
#1057=AXIS2_PLACEMENT_3D('',#1576,#1272,#1273);
#1058=AXIS2_PLACEMENT_3D('',#1578,#1275,#1276);
#1059=AXIS2_PLACEMENT_3D('',#1581,#1279,#1280);
#1060=AXIS2_PLACEMENT_3D('',#1582,#1281,#1282);
#1061=AXIS2_PLACEMENT_3D('',#1586,#1285,#1286);
#1062=AXIS2_PLACEMENT_3D('',#1588,#1288,#1289);
#1063=AXIS2_PLACEMENT_3D('',#1590,#1291,#1292);
#1064=AXIS2_PLACEMENT_3D('',#1592,#1294,#1295);
#1065=AXIS2_PLACEMENT_3D('',#1593,#1296,#1297);
#1066=AXIS2_PLACEMENT_3D('',#1595,#1299,#1300);
#1067=AXIS2_PLACEMENT_3D('',#1596,#1301,#1302);
#1068=AXIS2_PLACEMENT_3D('',#1597,#1303,#1304);
#1069=AXIS2_PLACEMENT_3D('',#1598,#1305,#1306);
#1070=AXIS2_PLACEMENT_3D('',#1602,#1309,#1310);
#1071=AXIS2_PLACEMENT_3D('',#1606,#1313,#1314);
#1072=AXIS2_PLACEMENT_3D('',#1607,#1315,#1316);
#1073=AXIS2_PLACEMENT_3D('',#1610,#1318,#1319);
#1074=AXIS2_PLACEMENT_3D('',#1611,#1320,#1321);
#1075=AXIS2_PLACEMENT_3D('',#1612,#1322,#1323);
#1076=AXIS2_PLACEMENT_3D('',#1614,#1324,#1325);
#1077=AXIS2_PLACEMENT_3D('',#1615,#1326,#1327);
#1078=AXIS2_PLACEMENT_3D('',#1616,#1328,#1329);
#1079=AXIS2_PLACEMENT_3D('',#1618,#1330,#1331);
#1080=AXIS2_PLACEMENT_3D('',#1619,#1332,#1333);
#1081=AXIS2_PLACEMENT_3D('',#1620,#1334,#1335);
#1082=AXIS2_PLACEMENT_3D('',#1622,#1336,#1337);
#1083=AXIS2_PLACEMENT_3D('',#1623,#1338,#1339);
#1084=AXIS2_PLACEMENT_3D('',#1624,#1340,#1341);
#1085=AXIS2_PLACEMENT_3D('',#1626,#1342,#1343);
#1086=AXIS2_PLACEMENT_3D('',#1627,#1344,#1345);
#1087=AXIS2_PLACEMENT_3D('',#1628,#1346,#1347);
#1088=AXIS2_PLACEMENT_3D('',#1630,#1348,#1349);
#1089=AXIS2_PLACEMENT_3D('',#1631,#1350,#1351);
#1090=DIRECTION('',(0.,0.,1.));
#1091=DIRECTION('',(1.,0.,0.));
#1092=DIRECTION('',(0.,0.,1.));
#1093=DIRECTION('',(1.,0.,0.));
#1094=DIRECTION('',(0.,-1.,0.));
#1095=DIRECTION('',(-1.,0.,0.));
#1096=DIRECTION('',(0.,-1.,0.));
#1097=DIRECTION('',(-1.,0.,0.));
#1098=DIRECTION('',(0.,-1.,0.));
#1099=DIRECTION('',(-1.,-1.1760837125266E-16,0.));
#1100=DIRECTION('',(0.,-1.,0.));
#1101=DIRECTION('',(1.,0.,0.));
#1102=DIRECTION('',(0.,-1.,0.));
#1103=DIRECTION('',(1.,0.,0.));
#1104=DIRECTION('',(0.,-1.,0.));
#1105=DIRECTION('',(1.,0.,0.));
#1106=DIRECTION('',(0.,1.,0.));
#1107=DIRECTION('',(-1.,0.,0.));
#1108=DIRECTION('',(0.,1.,0.));
#1109=DIRECTION('',(-1.,-1.96848054011552E-16,0.));
#1110=DIRECTION('',(0.,1.,0.));
#1111=DIRECTION('',(1.,0.,0.));
#1112=DIRECTION('',(0.,1.,0.));
#1113=DIRECTION('',(-1.,-1.56811161670214E-16,0.));
#1114=DIRECTION('',(0.,1.,0.));
#1115=DIRECTION('',(-1.,0.,0.));
#1116=DIRECTION('',(0.,1.,0.));
#1117=DIRECTION('',(-1.,0.,0.));
#1118=DIRECTION('',(0.,1.,0.));
#1119=DIRECTION('',(-1.,0.,0.));
#1120=DIRECTION('',(1.,0.,0.));
#1121=DIRECTION('',(0.,0.,-1.));
#1122=DIRECTION('',(0.,0.,1.));
#1123=DIRECTION('',(0.,1.,0.));
#1124=DIRECTION('',(0.,0.,1.));
#1125=DIRECTION('',(0.,0.,1.));
#1126=DIRECTION('',(0.,-1.,0.));
#1127=DIRECTION('',(0.,0.,-1.));
#1128=DIRECTION('',(0.,-1.,0.));
#1129=DIRECTION('',(0.,0.,-1.));
#1130=DIRECTION('',(0.,0.,1.));
#1131=DIRECTION('',(1.,0.,0.));
#1132=DIRECTION('',(0.,0.,-1.));
#1133=DIRECTION('',(-1.,0.,0.));
#1134=DIRECTION('',(-1.,0.,0.));
#1135=DIRECTION('',(0.,0.,1.));
#1136=DIRECTION('',(0.,0.,1.));
#1137=DIRECTION('',(1.32801797203962E-16,-1.,0.));
#1138=DIRECTION('',(0.,0.,-1.));
#1139=DIRECTION('',(1.32801797203962E-16,-1.,0.));
#1140=DIRECTION('',(0.,0.,1.));
#1141=DIRECTION('',(0.,1.,0.));
#1142=DIRECTION('',(0.,-1.,0.));
#1143=DIRECTION('',(0.,0.,-1.));
#1144=DIRECTION('',(-1.,0.,0.));
#1145=DIRECTION('',(0.,0.,1.));
#1146=DIRECTION('',(0.,0.,-1.));
#1147=DIRECTION('',(0.,1.,0.));
#1148=DIRECTION('',(0.,0.,1.));
#1149=DIRECTION('',(1.,0.,0.));
#1150=DIRECTION('',(0.,0.,1.));
#1151=DIRECTION('',(1.,0.,0.));
#1152=DIRECTION('',(-1.,0.,0.));
#1153=DIRECTION('',(0.,1.,0.));
#1154=DIRECTION('',(-1.,0.,0.));
#1155=DIRECTION('',(0.,-1.,0.));
#1156=DIRECTION('',(0.,0.,-1.));
#1157=DIRECTION('',(0.,0.,-1.));
#1158=DIRECTION('',(0.,-1.,0.));
#1159=DIRECTION('',(0.,0.,-1.));
#1160=DIRECTION('',(0.,0.,-1.));
#1161=DIRECTION('',(0.,0.,-1.));
#1162=DIRECTION('',(-1.,0.,0.));
#1163=DIRECTION('',(0.,0.,1.));
#1164=DIRECTION('',(1.,0.,0.));
#1165=DIRECTION('',(-1.,0.,0.));
#1166=DIRECTION('',(0.,0.,1.));
#1167=DIRECTION('',(0.,-1.,0.));
#1168=DIRECTION('',(0.,0.,-1.));
#1169=DIRECTION('',(1.,1.32801797203962E-16,0.));
#1170=DIRECTION('',(1.,1.32801797203962E-16,0.));
#1171=DIRECTION('',(0.,0.,-1.));
#1172=DIRECTION('',(-1.,-1.32801797203962E-16,0.));
#1173=DIRECTION('',(0.,0.,-1.));
#1174=DIRECTION('',(-1.,0.,0.));
#1175=DIRECTION('',(0.,0.,-1.));
#1176=DIRECTION('',(-1.,0.,0.));
#1177=DIRECTION('',(0.,0.,1.));
#1178=DIRECTION('',(3.808342207143E-16,-1.,0.));
#1179=DIRECTION('',(0.,0.,1.));
#1180=DIRECTION('',(0.,1.,0.));
#1181=DIRECTION('',(0.,0.,1.));
#1182=DIRECTION('',(1.,0.,0.));
#1183=DIRECTION('',(0.,0.,1.));
#1184=DIRECTION('',(1.,0.,0.));
#1185=DIRECTION('',(0.,0.,1.));
#1186=DIRECTION('',(1.,0.,0.));
#1187=DIRECTION('',(0.,0.,1.));
#1188=DIRECTION('',(1.,0.,0.));
#1189=DIRECTION('',(0.,0.,1.));
#1190=DIRECTION('',(1.,0.,0.));
#1191=DIRECTION('',(-1.,-1.56811161670214E-16,0.));
#1192=DIRECTION('',(0.,1.,0.));
#1193=DIRECTION('',(1.,0.,0.));
#1194=DIRECTION('',(0.,-1.,0.));
#1195=DIRECTION('',(-1.,-1.1760837125266E-16,0.));
#1196=DIRECTION('',(-1.,-1.32801797203962E-16,0.));
#1197=DIRECTION('',(0.,1.,0.));
#1198=DIRECTION('',(0.,0.,1.));
#1199=DIRECTION('',(1.,0.,0.));
#1200=DIRECTION('',(0.,0.,1.));
#1201=DIRECTION('',(1.,0.,0.));
#1202=DIRECTION('',(0.,0.,-1.));
#1203=DIRECTION('',(-1.,0.,0.));
#1204=DIRECTION('',(0.,0.,1.));
#1205=DIRECTION('',(1.,0.,0.));
#1206=DIRECTION('',(0.,1.,0.));
#1207=DIRECTION('',(0.,0.,1.));
#1208=DIRECTION('',(0.,0.,-1.));
#1209=DIRECTION('',(1.,0.,0.));
#1210=DIRECTION('',(0.,0.,-1.));
#1211=DIRECTION('',(0.,0.,1.));
#1212=DIRECTION('',(1.,0.,0.));
#1213=DIRECTION('',(-1.,0.,0.));
#1214=DIRECTION('',(0.,-1.,0.));
#1215=DIRECTION('',(1.,0.,0.));
#1216=DIRECTION('',(0.,-1.,0.));
#1217=DIRECTION('',(1.,0.,0.));
#1218=DIRECTION('',(0.,1.,0.));
#1219=DIRECTION('',(0.,1.,0.));
#1220=DIRECTION('',(-1.,0.,0.));
#1221=DIRECTION('',(0.,0.,1.));
#1222=DIRECTION('',(0.,0.,1.));
#1223=DIRECTION('',(0.,1.,0.));
#1224=DIRECTION('',(0.,0.,1.));
#1225=DIRECTION('',(0.,0.,1.));
#1226=DIRECTION('',(0.,0.,1.));
#1227=DIRECTION('',(0.,0.,1.));
#1228=DIRECTION('',(1.,0.,0.));
#1229=DIRECTION('',(0.,0.,1.));
#1230=DIRECTION('',(1.,0.,0.));
#1231=DIRECTION('',(0.,0.,1.));
#1232=DIRECTION('',(1.,0.,0.));
#1233=DIRECTION('',(0.,1.,0.));
#1234=DIRECTION('',(1.,0.,0.));
#1235=DIRECTION('',(0.,-1.,0.));
#1236=DIRECTION('',(1.,0.,0.));
#1237=DIRECTION('',(0.,0.,1.));
#1238=DIRECTION('',(1.,0.,0.));
#1239=DIRECTION('',(1.,0.,0.));
#1240=DIRECTION('',(0.,0.,-1.));
#1241=DIRECTION('',(0.,0.,-1.));
#1242=DIRECTION('',(0.,0.,-1.));
#1243=DIRECTION('',(0.,0.,-1.));
#1244=DIRECTION('',(-1.,0.,0.));
#1245=DIRECTION('',(0.,1.,0.));
#1246=DIRECTION('',(0.,0.,1.));
#1247=DIRECTION('',(0.,0.,-1.));
#1248=DIRECTION('',(0.,1.,0.));
#1249=DIRECTION('',(0.,0.,1.));
#1250=DIRECTION('',(0.,0.,-1.));
#1251=DIRECTION('',(0.,0.,-1.));
#1252=DIRECTION('',(-1.,0.,0.));
#1253=DIRECTION('',(1.,1.32801797203962E-16,0.));
#1254=DIRECTION('',(1.32801797203962E-16,-1.,0.));
#1255=DIRECTION('',(-1.,-1.32801797203962E-16,0.));
#1256=DIRECTION('',(1.32801797203962E-16,-1.,0.));
#1257=DIRECTION('',(0.,0.,-1.));
#1258=DIRECTION('',(1.32801797203962E-16,-1.,0.));
#1259=DIRECTION('',(0.,0.,-1.));
#1260=DIRECTION('',(-1.,0.,0.));
#1261=DIRECTION('',(1.,1.32801797203962E-16,0.));
#1262=DIRECTION('',(0.,0.,1.));
#1263=DIRECTION('',(1.,0.,0.));
#1264=DIRECTION('',(-1.,-1.96848054011552E-16,0.));
#1265=DIRECTION('',(0.,1.,0.));
#1266=DIRECTION('',(-1.,0.,0.));
#1267=DIRECTION('',(0.,1.,0.));
#1268=DIRECTION('',(-1.,0.,0.));
#1269=DIRECTION('',(0.,0.,1.));
#1270=DIRECTION('',(0.,0.,-1.));
#1271=DIRECTION('',(0.,0.,-1.));
#1272=DIRECTION('',(1.96848054011552E-16,-1.,0.));
#1273=DIRECTION('',(1.,1.96848054011552E-16,0.));
#1274=DIRECTION('',(0.,0.,-1.));
#1275=DIRECTION('',(1.,0.,0.));
#1276=DIRECTION('',(0.,0.,-1.));
#1277=DIRECTION('',(0.,0.,-1.));
#1278=DIRECTION('',(0.,0.,-1.));
#1279=DIRECTION('',(1.1760837125266E-16,-1.,0.));
#1280=DIRECTION('',(1.,1.1760837125266E-16,0.));
#1281=DIRECTION('',(0.,0.,1.));
#1282=DIRECTION('',(1.,0.,0.));
#1283=DIRECTION('',(2.85625665535726E-16,-1.,0.));
#1284=DIRECTION('',(-1.,-1.32801797203962E-16,0.));
#1285=DIRECTION('',(-1.32801797203962E-16,1.,0.));
#1286=DIRECTION('',(-1.,-1.32801797203962E-16,0.));
#1287=DIRECTION('',(0.,0.,1.));
#1288=DIRECTION('',(1.56811161670214E-16,-1.,0.));
#1289=DIRECTION('',(1.,1.56811161670214E-16,0.));
#1290=DIRECTION('',(0.,0.,1.));
#1291=DIRECTION('',(0.,1.,0.));
#1292=DIRECTION('',(0.,0.,1.));
#1293=DIRECTION('',(0.,0.,-1.));
#1294=DIRECTION('',(-1.,0.,0.));
#1295=DIRECTION('',(0.,0.,1.));
#1296=DIRECTION('',(-1.,0.,0.));
#1297=DIRECTION('',(0.,0.,1.));
#1298=DIRECTION('',(0.,0.,-1.));
#1299=DIRECTION('',(0.,-1.,0.));
#1300=DIRECTION('',(0.,0.,-1.));
#1301=DIRECTION('',(-1.,0.,0.));
#1302=DIRECTION('',(0.,0.,1.));
#1303=DIRECTION('',(0.,0.,1.));
#1304=DIRECTION('',(1.,0.,0.));
#1305=DIRECTION('',(0.,-1.,0.));
#1306=DIRECTION('',(0.,0.,-1.));
#1307=DIRECTION('',(0.,0.,-1.));
#1308=DIRECTION('',(-1.,0.,0.));
#1309=DIRECTION('',(0.,-1.,0.));
#1310=DIRECTION('',(0.,0.,-1.));
#1311=DIRECTION('',(-1.,0.,0.));
#1312=DIRECTION('',(0.,0.,-1.));
#1313=DIRECTION('',(0.,0.,1.));
#1314=DIRECTION('',(1.,0.,0.));
#1315=DIRECTION('',(0.,0.,1.));
#1316=DIRECTION('',(1.,0.,0.));
#1317=DIRECTION('',(0.,-1.,0.));
#1318=DIRECTION('',(1.,0.,0.));
#1319=DIRECTION('',(0.,0.,-1.));
#1320=DIRECTION('',(0.,0.,-1.));
#1321=DIRECTION('',(-1.,0.,0.));
#1322=DIRECTION('',(0.,0.,1.));
#1323=DIRECTION('',(1.,0.,0.));
#1324=DIRECTION('',(0.,0.,1.));
#1325=DIRECTION('',(1.,0.,0.));
#1326=DIRECTION('',(0.,0.,1.));
#1327=DIRECTION('',(1.,0.,0.));
#1328=DIRECTION('',(0.,0.,1.));
#1329=DIRECTION('',(1.,0.,0.));
#1330=DIRECTION('',(0.,0.,1.));
#1331=DIRECTION('',(1.,0.,0.));
#1332=DIRECTION('',(0.,0.,1.));
#1333=DIRECTION('',(1.,0.,0.));
#1334=DIRECTION('',(0.,0.,1.));
#1335=DIRECTION('',(1.,0.,0.));
#1336=DIRECTION('',(0.,0.,1.));
#1337=DIRECTION('',(1.,0.,0.));
#1338=DIRECTION('',(0.,0.,1.));
#1339=DIRECTION('',(1.,0.,0.));
#1340=DIRECTION('',(0.,0.,1.));
#1341=DIRECTION('',(1.,0.,0.));
#1342=DIRECTION('',(0.,0.,1.));
#1343=DIRECTION('',(1.,0.,0.));
#1344=DIRECTION('',(0.,0.,1.));
#1345=DIRECTION('',(1.,0.,0.));
#1346=DIRECTION('',(0.,0.,1.));
#1347=DIRECTION('',(1.,0.,0.));
#1348=DIRECTION('',(0.,0.,1.));
#1349=DIRECTION('',(1.,0.,0.));
#1350=DIRECTION('',(0.,0.,1.));
#1351=DIRECTION('',(1.,0.,0.));
#1352=CARTESIAN_POINT('',(0.,0.,0.));
#1353=CARTESIAN_POINT('',(0.00198598749339636,-0.00383108708127283,0.));
#1354=CARTESIAN_POINT('',(0.0462359874933981,-0.00633108708127282,0.));
#1355=CARTESIAN_POINT('',(0.0462359874933981,0.0147133914679289,0.));
#1356=CARTESIAN_POINT('',(0.0462359874933981,-0.0237115828481317,0.));
#1357=CARTESIAN_POINT('',(0.0418349094688893,0.0147133914679289,0.));
#1358=CARTESIAN_POINT('',(0.0373349094688892,0.0147133914679289,0.));
#1359=CARTESIAN_POINT('',(0.0373349094688892,0.0192133914679289,0.));
#1360=CARTESIAN_POINT('',(0.0373349094688892,0.0237133914679289,0.));
#1361=CARTESIAN_POINT('',(0.0418349094688893,0.0237133914679289,0.));
#1362=CARTESIAN_POINT('',(0.0462359874933981,0.0237133914679289,0.));
#1363=CARTESIAN_POINT('',(0.0462359874933981,-0.00633108708127282,0.));
#1364=CARTESIAN_POINT('',(0.0462359874933981,0.024609408685586,0.));
#1365=CARTESIAN_POINT('',(0.00198598749339636,0.024609408685586,0.));
#1366=CARTESIAN_POINT('',(-0.0422640125066054,0.024609408685586,0.));
#1367=CARTESIAN_POINT('',(-0.0422640125066054,-0.00633108708127282,0.));
#1368=CARTESIAN_POINT('',(-0.0422640125066054,0.0242606012225151,0.));
#1369=CARTESIAN_POINT('',(-0.0378250181674958,0.0242606012225151,0.));
#1370=CARTESIAN_POINT('',(-0.0333250181674958,0.0242606012225151,0.));
#1371=CARTESIAN_POINT('',(-0.0333250181674958,0.0197606012225151,0.));
#1372=CARTESIAN_POINT('',(-0.0333250181674958,0.0152606012225151,0.));
#1373=CARTESIAN_POINT('',(-0.0378250181674958,0.0152606012225151,0.));
#1374=CARTESIAN_POINT('',(-0.0422640125066054,0.0152606012225151,0.));
#1375=CARTESIAN_POINT('',(-0.0422640125066054,-0.00633108708127282,0.));
#1376=CARTESIAN_POINT('',(-0.0422640125066054,-0.0152399556636811,0.));
#1377=CARTESIAN_POINT('',(-0.0383249036967755,-0.0152399556636811,0.));
#1378=CARTESIAN_POINT('',(-0.0338249036967754,-0.0152399556636811,0.));
#1379=CARTESIAN_POINT('',(-0.0338249036967754,-0.019739955663681,0.));
#1380=CARTESIAN_POINT('',(-0.0338249036967754,-0.0237115828481317,0.));
#1381=CARTESIAN_POINT('',(4.09874933958096E-5,-0.0237115828481317,0.));
#1382=CARTESIAN_POINT('',(0.0352909874933958,-0.0237115828481317,0.));
#1383=CARTESIAN_POINT('',(0.0352909874933958,-0.0282115828481317,0.));
#1384=CARTESIAN_POINT('',(0.0352909874933958,-0.0327115828481317,0.));
#1385=CARTESIAN_POINT('',(4.09874933958166E-5,-0.0327115828481317,0.));
#1386=CARTESIAN_POINT('',(-0.0352090125066042,-0.0327115828481317,0.));
#1387=CARTESIAN_POINT('',(-0.0352090125066042,-0.0282115828481317,0.));
#1388=CARTESIAN_POINT('',(-0.0352090125066042,-0.0242399556636811,0.));
#1389=CARTESIAN_POINT('',(-0.0383249036967755,-0.0242399556636811,0.));
#1390=CARTESIAN_POINT('',(-0.0357042178511619,-0.0242399556636811,0.));
#1391=CARTESIAN_POINT('',(-0.0357042178511619,-0.0320061542199552,0.));
#1392=CARTESIAN_POINT('',(-0.0357042178511619,-0.0372715828481317,0.));
#1393=CARTESIAN_POINT('',(0.00198598749339638,-0.0372715828481317,0.));
#1394=CARTESIAN_POINT('',(0.0390609874933958,-0.0372715828481317,0.));
#1395=CARTESIAN_POINT('',(0.0390609874933958,-0.0319915828481317,0.));
#1396=CARTESIAN_POINT('',(0.0390609874933958,-0.0242344198822975,0.));
#1397=CARTESIAN_POINT('',(0.0416757687926292,-0.0242344198822975,0.));
#1398=CARTESIAN_POINT('',(0.0371757687926293,-0.0242344198822975,0.));
#1399=CARTESIAN_POINT('',(0.0371757687926293,-0.0197344198822975,0.));
#1400=CARTESIAN_POINT('',(0.0371757687926293,-0.0152344198822975,0.));
#1401=CARTESIAN_POINT('',(0.0416757687926292,-0.0152344198822975,0.));
#1402=CARTESIAN_POINT('',(0.0461757687926293,-0.0152344198822975,0.));
#1403=CARTESIAN_POINT('',(0.0461757687926293,-0.0197344198822975,0.));
#1404=CARTESIAN_POINT('',(0.0461757687926293,-0.0237115828481317,0.));
#1405=CARTESIAN_POINT('',(0.0466484874933969,-0.0237115828481317,0.));
#1406=CARTESIAN_POINT('',(0.0462359874933981,-0.00633108708127282,0.033));
#1407=CARTESIAN_POINT('',(0.0462359874933981,0.0237133914679289,0.025));
#1408=CARTESIAN_POINT('',(0.0462359874933981,0.0237133914679289,0.025));
#1409=CARTESIAN_POINT('',(0.0462359874933981,1.0322779417038E-5,0.025));
#1410=CARTESIAN_POINT('',(0.0462359874933981,0.0147133914679289,0.025));
#1411=CARTESIAN_POINT('',(0.0462359874933981,0.0147133914679289,0.025));
#1412=CARTESIAN_POINT('',(0.0462359874933981,-0.0237115828481317,0.033));
#1413=CARTESIAN_POINT('',(0.0462359874933981,-0.0237115828481317,0.033));
#1414=CARTESIAN_POINT('',(0.0462359874933981,-0.00633108708127282,0.033));
#1415=CARTESIAN_POINT('',(0.0462359874933981,0.024609408685586,0.033));
#1416=CARTESIAN_POINT('',(0.0462359874933981,0.024609408685586,0.033));
#1417=CARTESIAN_POINT('',(0.0466484874933969,-0.0237115828481317,0.033));
#1418=CARTESIAN_POINT('',(0.0461757687926293,-0.0237115828481317,0.025));
#1419=CARTESIAN_POINT('',(0.0461757687926293,-0.0237115828481317,0.025));
#1420=CARTESIAN_POINT('',(0.0017550028860569,-0.0237115828481317,0.025));
#1421=CARTESIAN_POINT('',(0.0390609874933958,-0.0237115828481317,0.025));
#1422=CARTESIAN_POINT('',(0.0390609874933958,-0.0237115828481317,0.033));
#1423=CARTESIAN_POINT('',(0.0390609874933958,-0.0237115828481317,0.033));
#1424=CARTESIAN_POINT('',(0.0466484874933969,-0.0237115828481317,0.033));
#1425=CARTESIAN_POINT('',(0.0390609874933958,-0.0319915828481317,0.033));
#1426=CARTESIAN_POINT('',(0.0390609874933958,-0.0372715828481317,0.033));
#1427=CARTESIAN_POINT('',(0.0390609874933958,-0.0372715828481317,0.00316406367198397));
#1428=CARTESIAN_POINT('',(0.0390609874933958,-0.0372715828481317,0.00316406367198397));
#1429=CARTESIAN_POINT('',(0.0390609874933958,-0.0402715828481316,0.00316406367198397));
#1430=CARTESIAN_POINT('',(0.0390609874933958,-0.0402715828481316,0.033));
#1431=CARTESIAN_POINT('',(0.0390609874933958,-0.0402715828481316,0.0240746484472846));
#1432=CARTESIAN_POINT('',(0.0390609874933958,-0.0372715828481317,0.0240746484472846));
#1433=CARTESIAN_POINT('',(0.0390609874933958,-0.0372715828481317,0.0240746484472846));
#1434=CARTESIAN_POINT('',(0.0390609874933958,-0.0372715828481317,0.033));
#1435=CARTESIAN_POINT('',(0.0390609874933958,-0.0372715828481317,0.033));
#1436=CARTESIAN_POINT('',(0.0390609874933958,-0.0319915828481317,0.033));
#1437=CARTESIAN_POINT('',(0.0390609874933958,1.0322779417038E-5,0.025));
#1438=CARTESIAN_POINT('',(0.0390609874933958,-0.0242344198822975,0.025));
#1439=CARTESIAN_POINT('',(0.0390609874933958,-0.0242344198822975,0.025));
#1440=CARTESIAN_POINT('',(0.0461757687926293,-0.0197344198822975,0.025));
#1441=CARTESIAN_POINT('',(0.0461757687926293,-0.0152344198822975,0.025));
#1442=CARTESIAN_POINT('',(0.0461757687926293,-0.0152344198822975,0.025));
#1443=CARTESIAN_POINT('',(0.0461757687926293,-0.0197344198822975,0.025));
#1444=CARTESIAN_POINT('',(0.0017550028860569,1.0322779417038E-5,0.025));
#1445=CARTESIAN_POINT('',(0.0416757687926292,-0.0197344198822975,0.025));
#1446=CARTESIAN_POINT('',(0.0439757687926293,-0.0197344198822975,0.025));
#1447=CARTESIAN_POINT('',(0.0416757687926292,-0.0152344198822975,0.025));
#1448=CARTESIAN_POINT('',(0.0371757687926293,-0.0152344198822975,0.025));
#1449=CARTESIAN_POINT('',(0.0371757687926293,-0.0197344198822975,0.025));
#1450=CARTESIAN_POINT('',(0.0371757687926293,-0.0242344198822975,0.025));
#1451=CARTESIAN_POINT('',(0.0416757687926292,-0.0242344198822975,0.025));
#1452=CARTESIAN_POINT('',(0.0416757687926292,-0.0242344198822975,0.025));
#1453=CARTESIAN_POINT('',(0.0371757687926293,-0.0242344198822975,0.025));
#1454=CARTESIAN_POINT('',(0.0416757687926292,-0.0152344198822975,0.025));
#1455=CARTESIAN_POINT('',(0.0371757687926293,-0.0152344198822975,0.025));
#1456=CARTESIAN_POINT('',(0.0416757687926292,-0.0197344198822975,0.025));
#1457=CARTESIAN_POINT('',(0.0416757687926292,-0.0197344198822975,0.));
#1458=CARTESIAN_POINT('',(0.0439757687926293,-0.0197344198822975,0.));
#1459=CARTESIAN_POINT('',(0.0371757687926293,-0.0197344198822975,0.025));
#1460=CARTESIAN_POINT('',(0.0466484874933969,-0.0402715828481316,0.033));
#1461=CARTESIAN_POINT('',(0.00478303290768593,-0.0402715828481316,0.0240746484472846));
#1462=CARTESIAN_POINT('',(-0.0294949216780239,-0.0402715828481316,0.0240746484472846));
#1463=CARTESIAN_POINT('',(0.00478303290768593,-0.0402715828481316,0.00316406367198397));
#1464=CARTESIAN_POINT('',(-0.0294949216780239,-0.0402715828481316,0.00316406367198397));
#1465=CARTESIAN_POINT('',(-0.0294949216780239,-0.0402715828481316,0.0136193560596343));
#1466=CARTESIAN_POINT('',(0.00198598749339636,-0.0402715828481316,-0.003));
#1467=CARTESIAN_POINT('',(0.0542359874933981,-0.0402715828481316,-0.003));
#1468=CARTESIAN_POINT('',(-0.0502640125066053,-0.0402715828481316,-0.003));
#1469=CARTESIAN_POINT('',(0.0542359874933981,-0.0402715828481316,0.033));
#1470=CARTESIAN_POINT('',(0.0542359874933981,-0.0402715828481316,0.033));
#1471=CARTESIAN_POINT('',(0.0466484874933969,-0.0402715828481316,0.033));
#1472=CARTESIAN_POINT('',(-0.0502640125066053,-0.0402715828481316,0.033));
#1473=CARTESIAN_POINT('',(-0.0502640125066053,-0.0402715828481316,0.033));
#1474=CARTESIAN_POINT('',(0.0542359874933981,-0.0319915828481317,0.033));
#1475=CARTESIAN_POINT('',(0.0542359874933981,-0.00383108708127282,-0.003));
#1476=CARTESIAN_POINT('',(0.0542359874933981,0.032609408685586,-0.003));
#1477=CARTESIAN_POINT('',(0.0542359874933981,0.032609408685586,-0.003));
#1478=CARTESIAN_POINT('',(0.0542359874933981,0.032609408685586,0.033));
#1479=CARTESIAN_POINT('',(0.0542359874933981,-0.0319915828481317,0.033));
#1480=CARTESIAN_POINT('',(0.00198598749339638,-0.0319915828481317,0.033));
#1481=CARTESIAN_POINT('',(-0.0462427581832837,0.027874386421425,0.033));
#1482=CARTESIAN_POINT('',(-0.0439427581832837,0.027874386421425,0.033));
#1483=CARTESIAN_POINT('',(-0.0462427581832837,-0.0362677433829385,0.033));
#1484=CARTESIAN_POINT('',(-0.0439427581832837,-0.0362677433829385,0.033));
#1485=CARTESIAN_POINT('',(0.0500448476721699,-0.036642292694115,0.033));
#1486=CARTESIAN_POINT('',(0.0523448476721699,-0.036642292694115,0.033));
#1487=CARTESIAN_POINT('',(0.0500448476721699,0.0288273308607234,0.033));
#1488=CARTESIAN_POINT('',(0.0523448476721699,0.0288273308607234,0.033));
#1489=CARTESIAN_POINT('',(0.00198598749339638,-0.0372715828481317,0.033));
#1490=CARTESIAN_POINT('',(-0.0357042178511619,-0.0372715828481317,0.033));
#1491=CARTESIAN_POINT('',(-0.0357042178511619,-0.0320061542199552,0.033));
#1492=CARTESIAN_POINT('',(-0.0357042178511619,-0.0237407255917788,0.033));
#1493=CARTESIAN_POINT('',(-0.0429841151788836,-0.0237407255917788,0.033));
#1494=CARTESIAN_POINT('',(-0.0422640125066054,-0.0237407255917788,0.033));
#1495=CARTESIAN_POINT('',(-0.0422640125066054,-0.00633108708127282,0.033));
#1496=CARTESIAN_POINT('',(-0.0422640125066054,0.024609408685586,0.033));
#1497=CARTESIAN_POINT('',(0.00198598749339636,0.024609408685586,0.033));
#1498=CARTESIAN_POINT('',(0.00198598749339635,0.032609408685586,0.033));
#1499=CARTESIAN_POINT('',(-0.0502640125066054,0.032609408685586,0.033));
#1500=CARTESIAN_POINT('',(-0.0502640125066053,-0.0320061542199552,0.033));
#1501=CARTESIAN_POINT('',(0.00198598749339636,-0.00383108708127283,0.));
#1502=CARTESIAN_POINT('',(-0.0383249036967755,-0.019739955663681,0.));
#1503=CARTESIAN_POINT('',(-0.0360249036967755,-0.019739955663681,0.));
#1504=CARTESIAN_POINT('',(-0.0383249036967755,-0.019739955663681,0.025));
#1505=CARTESIAN_POINT('',(-0.0383249036967755,-0.019739955663681,0.025));
#1506=CARTESIAN_POINT('',(-0.0360249036967755,-0.019739955663681,0.025));
#1507=CARTESIAN_POINT('',(-0.0383249036967755,-0.0152399556636811,0.025));
#1508=CARTESIAN_POINT('',(-0.0422640125066054,-0.0152399556636811,0.025));
#1509=CARTESIAN_POINT('',(-0.0422640125066054,-0.0152399556636811,0.025));
#1510=CARTESIAN_POINT('',(-0.0383249036967755,-0.0152399556636811,0.025));
#1511=CARTESIAN_POINT('',(-0.0338249036967754,-0.0152399556636811,0.025));
#1512=CARTESIAN_POINT('',(-0.0338249036967754,-0.0152399556636811,0.025));
#1513=CARTESIAN_POINT('',(0.0017550028860569,1.0322779417038E-5,0.025));
#1514=CARTESIAN_POINT('',(0.0017550028860569,-0.0237407255917788,0.025));
#1515=CARTESIAN_POINT('',(-0.0357042178511619,-0.0237407255917788,0.025));
#1516=CARTESIAN_POINT('',(-0.0422640125066054,-0.0237407255917788,0.025));
#1517=CARTESIAN_POINT('',(-0.0357042178511619,1.0322779417038E-5,0.025));
#1518=CARTESIAN_POINT('',(-0.0357042178511619,-0.0242399556636811,0.025));
#1519=CARTESIAN_POINT('',(-0.0383249036967755,-0.0242399556636811,0.025));
#1520=CARTESIAN_POINT('',(-0.0352090125066042,-0.0242399556636811,0.025));
#1521=CARTESIAN_POINT('',(-0.0352090125066042,1.0322779417038E-5,0.025));
#1522=CARTESIAN_POINT('',(-0.0352090125066042,-0.0237115828481317,0.025));
#1523=CARTESIAN_POINT('',(0.0017550028860569,-0.0237115828481317,0.025));
#1524=CARTESIAN_POINT('',(-0.0338249036967754,-0.0237115828481317,0.025));
#1525=CARTESIAN_POINT('',(-0.0338249036967754,-0.019739955663681,0.025));
#1526=CARTESIAN_POINT('',(-0.0422640125066054,1.0322779417038E-5,0.025));
#1527=CARTESIAN_POINT('',(-0.0338249036967754,-0.019739955663681,0.025));
#1528=CARTESIAN_POINT('',(-0.0338249036967754,-0.0237115828481317,0.025));
#1529=CARTESIAN_POINT('',(-0.0383249036967755,-0.0242399556636811,0.025));
#1530=CARTESIAN_POINT('',(-0.0357042178511619,-0.0242399556636811,0.025));
#1531=CARTESIAN_POINT('',(-0.0352090125066042,-0.0242399556636811,0.025));
#1532=CARTESIAN_POINT('',(0.00198598749339636,-0.00383108708127283,0.));
#1533=CARTESIAN_POINT('',(-0.0378250181674958,0.0197606012225151,0.));
#1534=CARTESIAN_POINT('',(-0.0355250181674958,0.0197606012225151,0.));
#1535=CARTESIAN_POINT('',(0.0017550028860569,1.0322779417038E-5,0.025));
#1536=CARTESIAN_POINT('',(-0.0422640125066054,1.0322779417038E-5,0.025));
#1537=CARTESIAN_POINT('',(-0.0422640125066054,0.0152606012225151,0.025));
#1538=CARTESIAN_POINT('',(-0.0422640125066054,0.0242606012225151,0.025));
#1539=CARTESIAN_POINT('',(-0.0378250181674958,0.0152606012225151,0.025));
#1540=CARTESIAN_POINT('',(-0.0333250181674958,0.0152606012225151,0.025));
#1541=CARTESIAN_POINT('',(-0.0333250181674958,0.0197606012225151,0.025));
#1542=CARTESIAN_POINT('',(-0.0333250181674958,0.0242606012225151,0.025));
#1543=CARTESIAN_POINT('',(-0.0378250181674958,0.0242606012225151,0.025));
#1544=CARTESIAN_POINT('',(-0.0378250181674958,0.0197606012225151,0.025));
#1545=CARTESIAN_POINT('',(-0.0355250181674958,0.0197606012225151,0.025));
#1546=CARTESIAN_POINT('',(-0.0333250181674958,0.0197606012225151,0.025));
#1547=CARTESIAN_POINT('',(-0.0333250181674958,0.0242606012225151,0.025));
#1548=CARTESIAN_POINT('',(-0.0333250181674958,0.0152606012225151,0.025));
#1549=CARTESIAN_POINT('',(-0.0378250181674958,0.0197606012225151,0.025));
#1550=CARTESIAN_POINT('',(-0.0378250181674958,0.0152606012225151,0.025));
#1551=CARTESIAN_POINT('',(-0.0422640125066054,0.0152606012225151,0.025));
#1552=CARTESIAN_POINT('',(-0.0378250181674958,0.0242606012225151,0.025));
#1553=CARTESIAN_POINT('',(-0.0422640125066054,0.0242606012225151,0.025));
#1554=CARTESIAN_POINT('',(0.00478303290768593,-0.0372715828481317,0.00316406367198397));
#1555=CARTESIAN_POINT('',(0.00478303290768593,-0.0372715828481317,0.00316406367198397));
#1556=CARTESIAN_POINT('',(-0.0294949216780239,-0.0372715828481317,0.00316406367198397));
#1557=CARTESIAN_POINT('',(-0.0294949216780239,-0.0372715828481317,0.00316406367198397));
#1558=CARTESIAN_POINT('',(-0.0294949216780239,-0.0372715828481317,0.0136193560596343));
#1559=CARTESIAN_POINT('',(-0.0294949216780239,-0.0372715828481317,0.0136193560596343));
#1560=CARTESIAN_POINT('',(-0.0294949216780239,-0.0372715828481317,0.0240746484472846));
#1561=CARTESIAN_POINT('',(-0.0294949216780239,-0.0372715828481317,0.0240746484472846));
#1562=CARTESIAN_POINT('',(0.00478303290768593,-0.0372715828481317,0.0240746484472846));
#1563=CARTESIAN_POINT('',(0.00478303290768593,-0.0372715828481317,0.0240746484472846));
#1564=CARTESIAN_POINT('',(0.00198598749339638,-0.0319915828481317,0.033));
#1565=CARTESIAN_POINT('',(4.09874933958166E-5,-0.0327115828481317,0.033));
#1566=CARTESIAN_POINT('',(0.0352909874933958,-0.0327115828481317,0.033));
#1567=CARTESIAN_POINT('',(-0.0352090125066042,-0.0327115828481317,0.033));
#1568=CARTESIAN_POINT('',(0.0352909874933958,-0.0282115828481317,0.033));
#1569=CARTESIAN_POINT('',(0.0352909874933958,-0.0237115828481317,0.033));
#1570=CARTESIAN_POINT('',(4.09874933958096E-5,-0.0237115828481317,0.033));
#1571=CARTESIAN_POINT('',(-0.0352090125066042,-0.0237115828481317,0.033));
#1572=CARTESIAN_POINT('',(-0.0352090125066042,-0.0282115828481317,0.033));
#1573=CARTESIAN_POINT('',(0.0352909874933958,-0.0282115828481317,0.033));
#1574=CARTESIAN_POINT('',(0.0352909874933958,-0.0237115828481317,0.033));
#1575=CARTESIAN_POINT('',(0.0352909874933958,-0.0327115828481317,0.033));
#1576=CARTESIAN_POINT('',(4.09874933958166E-5,-0.0327115828481317,0.033));
#1577=CARTESIAN_POINT('',(-0.0352090125066042,-0.0327115828481317,0.033));
#1578=CARTESIAN_POINT('',(-0.0422640125066054,-0.00633108708127282,0.033));
#1579=CARTESIAN_POINT('',(-0.0422640125066054,0.024609408685586,0.033));
#1580=CARTESIAN_POINT('',(-0.0422640125066054,-0.0237407255917788,0.033));
#1581=CARTESIAN_POINT('',(0.00198598749339636,0.024609408685586,0.033));
#1582=CARTESIAN_POINT('',(0.00198598749339636,-0.00383108708127283,-0.003));
#1583=CARTESIAN_POINT('',(-0.0502640125066053,-0.00383108708127284,-0.003));
#1584=CARTESIAN_POINT('',(-0.0502640125066054,0.032609408685586,-0.003));
#1585=CARTESIAN_POINT('',(0.00198598749339635,0.032609408685586,-0.003));
#1586=CARTESIAN_POINT('',(0.00198598749339635,0.032609408685586,-0.003));
#1587=CARTESIAN_POINT('',(-0.0502640125066054,0.032609408685586,-0.003));
#1588=CARTESIAN_POINT('',(0.00198598749339638,-0.0372715828481317,0.033));
#1589=CARTESIAN_POINT('',(-0.0357042178511619,-0.0372715828481317,0.033));
#1590=CARTESIAN_POINT('',(-0.0429841151788836,-0.0237407255917788,0.033));
#1591=CARTESIAN_POINT('',(-0.0357042178511619,-0.0237407255917788,0.033));
#1592=CARTESIAN_POINT('',(-0.0502640125066053,-0.0320061542199552,0.033));
#1593=CARTESIAN_POINT('',(-0.0352090125066042,-0.0282115828481317,0.033));
#1594=CARTESIAN_POINT('',(-0.0352090125066042,-0.0237115828481317,0.033));
#1595=CARTESIAN_POINT('',(4.09874933958096E-5,-0.0237115828481317,0.033));
#1596=CARTESIAN_POINT('',(-0.0357042178511619,-0.0320061542199552,0.033));
#1597=CARTESIAN_POINT('',(0.00198598749339636,-0.00383108708127283,0.));
#1598=CARTESIAN_POINT('',(0.0418349094688893,0.0237133914679289,0.025));
#1599=CARTESIAN_POINT('',(0.0373349094688892,0.0237133914679289,0.025));
#1600=CARTESIAN_POINT('',(0.0373349094688892,0.0237133914679289,0.025));
#1601=CARTESIAN_POINT('',(0.0418349094688893,0.0237133914679289,0.025));
#1602=CARTESIAN_POINT('',(0.0418349094688893,0.0147133914679289,0.025));
#1603=CARTESIAN_POINT('',(0.0418349094688893,0.0147133914679289,0.025));
#1604=CARTESIAN_POINT('',(0.0373349094688892,0.0147133914679289,0.025));
#1605=CARTESIAN_POINT('',(0.0373349094688892,0.0147133914679289,0.025));
#1606=CARTESIAN_POINT('',(0.0017550028860569,1.0322779417038E-5,0.025));
#1607=CARTESIAN_POINT('',(0.0418349094688893,0.0192133914679289,0.025));
#1608=CARTESIAN_POINT('',(0.0441349094688892,0.0192133914679289,0.025));
#1609=CARTESIAN_POINT('',(0.0373349094688892,0.0192133914679289,0.025));
#1610=CARTESIAN_POINT('',(0.0373349094688892,0.0192133914679289,0.025));
#1611=CARTESIAN_POINT('',(0.0418349094688893,0.0192133914679289,0.025));
#1612=CARTESIAN_POINT('',(0.0418349094688893,0.0192133914679289,0.));
#1613=CARTESIAN_POINT('',(0.0441349094688892,0.0192133914679289,0.));
#1614=CARTESIAN_POINT('',(0.00198598749339636,-0.00383108708127283,0.));
#1615=CARTESIAN_POINT('',(0.0500448476721699,0.0288273308607234,0.026));
#1616=CARTESIAN_POINT('',(0.0500448476721699,0.0288273308607234,0.026));
#1617=CARTESIAN_POINT('',(0.0523448476721699,0.0288273308607234,0.026));
#1618=CARTESIAN_POINT('',(0.00198598749339636,-0.00383108708127283,0.026));
#1619=CARTESIAN_POINT('',(0.0500448476721699,-0.036642292694115,0.026));
#1620=CARTESIAN_POINT('',(0.0500448476721699,-0.036642292694115,0.026));
#1621=CARTESIAN_POINT('',(0.0523448476721699,-0.036642292694115,0.026));
#1622=CARTESIAN_POINT('',(0.00198598749339636,-0.00383108708127283,0.026));
#1623=CARTESIAN_POINT('',(-0.0462427581832837,-0.0362677433829385,0.026));
#1624=CARTESIAN_POINT('',(-0.0462427581832837,-0.0362677433829385,0.026));
#1625=CARTESIAN_POINT('',(-0.0439427581832837,-0.0362677433829385,0.026));
#1626=CARTESIAN_POINT('',(0.00198598749339636,-0.00383108708127283,0.026));
#1627=CARTESIAN_POINT('',(-0.0462427581832837,0.027874386421425,0.026));
#1628=CARTESIAN_POINT('',(-0.0462427581832837,0.027874386421425,0.026));
#1629=CARTESIAN_POINT('',(-0.0439427581832837,0.027874386421425,0.026));
#1630=CARTESIAN_POINT('',(0.00198598749339636,-0.00383108708127283,0.026));
#1631=CARTESIAN_POINT('',(0.0150361584186548,0.0210952408896282,-0.00384538002312183));
#1632=MECHANICAL_DESIGN_GEOMETRIC_PRESENTATION_REPRESENTATION('',(#1003),
#1633);
#1633=(
GEOMETRIC_REPRESENTATION_CONTEXT(3)
GLOBAL_UNCERTAINTY_ASSIGNED_CONTEXT((#1635))
GLOBAL_UNIT_ASSIGNED_CONTEXT((#1639,#1638,#1637))
REPRESENTATION_CONTEXT('Body','TOP_LEVEL_ASSEMBLY_PART')
);
#1634=(
GEOMETRIC_REPRESENTATION_CONTEXT(3)
GLOBAL_UNCERTAINTY_ASSIGNED_CONTEXT((#1636))
GLOBAL_UNIT_ASSIGNED_CONTEXT((#1639,#1638,#1637))
REPRESENTATION_CONTEXT('Part 3','COMPONENT_PART')
);
#1635=UNCERTAINTY_MEASURE_WITH_UNIT(LENGTH_MEASURE(1.E-8),#1639,
'DISTANCE_ACCURACY_VALUE','Maximum Tolerance applied to model');
#1636=UNCERTAINTY_MEASURE_WITH_UNIT(LENGTH_MEASURE(1.E-8),#1639,
'DISTANCE_ACCURACY_VALUE','Maximum Tolerance applied to model');
#1637=(
NAMED_UNIT(*)
SI_UNIT($,.STERADIAN.)
SOLID_ANGLE_UNIT()
);
#1638=(
NAMED_UNIT(*)
PLANE_ANGLE_UNIT()
SI_UNIT($,.RADIAN.)
);
#1639=(
LENGTH_UNIT()
NAMED_UNIT(*)
SI_UNIT($,.METRE.)
);
#1640=PRODUCT_DEFINITION_SHAPE('','',#1643);
#1641=PRODUCT_DEFINITION_SHAPE('','',#1644);
#1642=PRODUCT_DEFINITION_SHAPE(' ','NAUO PRDDFN',#11);
#1643=PRODUCT_DEFINITION('','',#1647,#1645);
#1644=PRODUCT_DEFINITION('','',#1648,#1646);
#1645=PRODUCT_DEFINITION_CONTEXT('',#1658,'design');
#1646=PRODUCT_DEFINITION_CONTEXT('',#1658,'design');
#1647=PRODUCT_DEFINITION_FORMATION_WITH_SPECIFIED_SOURCE('','',#1651,
 .NOT_KNOWN.);
#1648=PRODUCT_DEFINITION_FORMATION_WITH_SPECIFIED_SOURCE('','',#1652,
 .NOT_KNOWN.);
#1649=PRODUCT_RELATED_PRODUCT_CATEGORY('','',(#1651));
#1650=PRODUCT_RELATED_PRODUCT_CATEGORY('','',(#1652));
#1651=PRODUCT('Body','Body','Body',(#1655));
#1652=PRODUCT('Part 3','Part 3','Part 3',(#1656));
#1653=PRODUCT_CATEGORY('','');
#1654=PRODUCT_CATEGORY('','');
#1655=PRODUCT_CONTEXT('',#1658,'mechanical');
#1656=PRODUCT_CONTEXT('',#1658,'mechanical');
#1657=APPLICATION_PROTOCOL_DEFINITION('international standard',
'ap242_managed_model_based_3d_engineering',2020,#1658);
#1658=APPLICATION_CONTEXT('managed model based 3d engineering');
ENDSEC;
END-ISO-10303-21;
