ISO-10303-21;
HEADER;
/* Generated by software containing ST-Developer
 * from STEP Tools, Inc. (www.steptools.com) 
 */
/* OPTION: using custom renumber hook */

FILE_DESCRIPTION(
/* description */ ('STEP AP242 Edition 2',
'CAx-IF Rec.Pracs.---Representation and Presentation of Product Manufa
cturing Information (PMI)---4.0---2014-10-13',
'CAx-IF Rec.Pracs.---3D Tessellated Geometry---0.4---2014-09-14','2;1',
'CAx-IF Rec.Pracs.---User Defined Attributes---1.5---2016-08-15'),
/* implementation_level */ '2;1');

FILE_NAME(
/* name */ '6aa4a9e271516e2374e2126e',
/* time_stamp */ '2026-09-12T01:24:51Z',
/* author */ (''),
/* organization */ (''),
/* preprocessor_version */ 'ST-DEVELOPER v20',
/* originating_system */ 'ONSHAPE BY PTC INC, 1.220',
/* authorisation */ '  ');

FILE_SCHEMA (('AP242_MANAGED_MODEL_BASED_3D_ENGINEERING_MIM_LF { 1 0 10303 442 3 1 4 }'));
ENDSEC;

DATA;
#10=CONTEXT_DEPENDENT_SHAPE_REPRESENTATION(#12,#1642);
#11=NEXT_ASSEMBLY_USAGE_OCCURRENCE('NAUO1','Part 1','Part 1',#1643,#1644,
'');
#12=(
REPRESENTATION_RELATIONSHIP(' ',' ',#1015,#1014)
REPRESENTATION_RELATIONSHIP_WITH_TRANSFORMATION(#13)
SHAPE_REPRESENTATION_RELATIONSHIP()
);
#13=ITEM_DEFINED_TRANSFORMATION(' ',' ',#1016,#1089);
#14=SHAPE_REPRESENTATION_RELATIONSHIP('','',#1015,#15);
#15=ADVANCED_BREP_SHAPE_REPRESENTATION('',(#1011),#1634);
#16=CYLINDRICAL_SURFACE('',#1047,0.0023);
#17=CYLINDRICAL_SURFACE('',#1052,0.0023);
#18=CYLINDRICAL_SURFACE('',#1064,0.0023);
#19=CYLINDRICAL_SURFACE('',#1073,0.0023);
#20=CYLINDRICAL_SURFACE('',#1077,0.0023);
#21=CYLINDRICAL_SURFACE('',#1080,0.0023);
#22=CYLINDRICAL_SURFACE('',#1083,0.0023);
#23=CYLINDRICAL_SURFACE('',#1086,0.0023);
#24=CIRCLE('',#1029,0.0023);
#25=CIRCLE('',#1030,0.0023);
#26=CIRCLE('',#1031,0.0023);
#27=CIRCLE('',#1032,0.0023);
#28=CIRCLE('',#1044,0.0023);
#29=CIRCLE('',#1048,0.0023);
#30=CIRCLE('',#1053,0.0023);
#31=CIRCLE('',#1054,0.0023);
#32=CIRCLE('',#1061,0.0023);
#33=CIRCLE('',#1065,0.0023);
#34=CIRCLE('',#1071,0.0023);
#35=CIRCLE('',#1074,0.0023);
#36=CIRCLE('',#1078,0.0023);
#37=CIRCLE('',#1081,0.0023);
#38=CIRCLE('',#1084,0.0023);
#39=CIRCLE('',#1087,0.0023);
#40=ORIENTED_EDGE('',*,*,#300,.F.);
#41=ORIENTED_EDGE('',*,*,#301,.F.);
#42=ORIENTED_EDGE('',*,*,#302,.T.);
#43=ORIENTED_EDGE('',*,*,#303,.F.);
#44=ORIENTED_EDGE('',*,*,#304,.T.);
#45=ORIENTED_EDGE('',*,*,#305,.T.);
#46=ORIENTED_EDGE('',*,*,#306,.T.);
#47=ORIENTED_EDGE('',*,*,#307,.T.);
#48=ORIENTED_EDGE('',*,*,#308,.F.);
#49=ORIENTED_EDGE('',*,*,#309,.T.);
#50=ORIENTED_EDGE('',*,*,#310,.T.);
#51=ORIENTED_EDGE('',*,*,#311,.T.);
#52=ORIENTED_EDGE('',*,*,#312,.F.);
#53=ORIENTED_EDGE('',*,*,#313,.F.);
#54=ORIENTED_EDGE('',*,*,#314,.T.);
#55=ORIENTED_EDGE('',*,*,#315,.T.);
#56=ORIENTED_EDGE('',*,*,#316,.T.);
#57=ORIENTED_EDGE('',*,*,#317,.T.);
#58=ORIENTED_EDGE('',*,*,#318,.F.);
#59=ORIENTED_EDGE('',*,*,#319,.F.);
#60=ORIENTED_EDGE('',*,*,#320,.F.);
#61=ORIENTED_EDGE('',*,*,#321,.T.);
#62=ORIENTED_EDGE('',*,*,#322,.T.);
#63=ORIENTED_EDGE('',*,*,#323,.F.);
#64=ORIENTED_EDGE('',*,*,#324,.F.);
#65=ORIENTED_EDGE('',*,*,#307,.F.);
#66=ORIENTED_EDGE('',*,*,#325,.T.);
#67=ORIENTED_EDGE('',*,*,#326,.T.);
#68=ORIENTED_EDGE('',*,*,#327,.T.);
#69=ORIENTED_EDGE('',*,*,#328,.F.);
#70=ORIENTED_EDGE('',*,*,#329,.F.);
#71=ORIENTED_EDGE('',*,*,#330,.F.);
#72=ORIENTED_EDGE('',*,*,#311,.F.);
#73=ORIENTED_EDGE('',*,*,#331,.T.);
#74=ORIENTED_EDGE('',*,*,#332,.F.);
#75=ORIENTED_EDGE('',*,*,#333,.F.);
#76=ORIENTED_EDGE('',*,*,#315,.F.);
#77=ORIENTED_EDGE('',*,*,#334,.T.);
#78=ORIENTED_EDGE('',*,*,#335,.T.);
#79=ORIENTED_EDGE('',*,*,#336,.T.);
#80=ORIENTED_EDGE('',*,*,#337,.T.);
#81=ORIENTED_EDGE('',*,*,#338,.F.);
#82=ORIENTED_EDGE('',*,*,#339,.F.);
#83=ORIENTED_EDGE('',*,*,#340,.T.);
#84=ORIENTED_EDGE('',*,*,#322,.F.);
#85=ORIENTED_EDGE('',*,*,#341,.F.);
#86=ORIENTED_EDGE('',*,*,#342,.T.);
#87=ORIENTED_EDGE('',*,*,#343,.T.);
#88=ORIENTED_EDGE('',*,*,#344,.T.);
#89=ORIENTED_EDGE('',*,*,#345,.T.);
#90=ORIENTED_EDGE('',*,*,#346,.F.);
#91=ORIENTED_EDGE('',*,*,#347,.F.);
#92=ORIENTED_EDGE('',*,*,#348,.T.);
#93=ORIENTED_EDGE('',*,*,#349,.F.);
#94=ORIENTED_EDGE('',*,*,#350,.F.);
#95=ORIENTED_EDGE('',*,*,#351,.T.);
#96=ORIENTED_EDGE('',*,*,#352,.T.);
#97=ORIENTED_EDGE('',*,*,#351,.F.);
#98=ORIENTED_EDGE('',*,*,#353,.F.);
#99=ORIENTED_EDGE('',*,*,#354,.T.);
#100=ORIENTED_EDGE('',*,*,#355,.T.);
#101=ORIENTED_EDGE('',*,*,#356,.F.);
#102=ORIENTED_EDGE('',*,*,#354,.F.);
#103=ORIENTED_EDGE('',*,*,#357,.T.);
#104=ORIENTED_EDGE('',*,*,#349,.T.);
#105=ORIENTED_EDGE('',*,*,#358,.F.);
#106=ORIENTED_EDGE('',*,*,#355,.F.);
#107=ORIENTED_EDGE('',*,*,#359,.T.);
#108=ORIENTED_EDGE('',*,*,#353,.T.);
#109=ORIENTED_EDGE('',*,*,#350,.T.);
#110=ORIENTED_EDGE('',*,*,#359,.F.);
#111=ORIENTED_EDGE('',*,*,#357,.F.);
#112=ORIENTED_EDGE('',*,*,#334,.F.);
#113=ORIENTED_EDGE('',*,*,#314,.F.);
#114=ORIENTED_EDGE('',*,*,#360,.T.);
#115=ORIENTED_EDGE('',*,*,#361,.T.);
#116=ORIENTED_EDGE('',*,*,#362,.F.);
#117=ORIENTED_EDGE('',*,*,#316,.F.);
#118=ORIENTED_EDGE('',*,*,#363,.T.);
#119=ORIENTED_EDGE('',*,*,#364,.F.);
#120=ORIENTED_EDGE('',*,*,#365,.F.);
#121=ORIENTED_EDGE('',*,*,#335,.F.);
#122=ORIENTED_EDGE('',*,*,#361,.F.);
#123=ORIENTED_EDGE('',*,*,#366,.T.);
#124=ORIENTED_EDGE('',*,*,#367,.F.);
#125=ORIENTED_EDGE('',*,*,#368,.F.);
#126=ORIENTED_EDGE('',*,*,#369,.F.);
#127=ORIENTED_EDGE('',*,*,#370,.F.);
#128=ORIENTED_EDGE('',*,*,#371,.F.);
#129=ORIENTED_EDGE('',*,*,#372,.F.);
#130=ORIENTED_EDGE('',*,*,#301,.T.);
#131=ORIENTED_EDGE('',*,*,#373,.T.);
#132=ORIENTED_EDGE('',*,*,#374,.F.);
#133=ORIENTED_EDGE('',*,*,#366,.F.);
#134=ORIENTED_EDGE('',*,*,#360,.F.);
#135=ORIENTED_EDGE('',*,*,#313,.T.);
#136=ORIENTED_EDGE('',*,*,#375,.T.);
#137=ORIENTED_EDGE('',*,*,#376,.F.);
#138=ORIENTED_EDGE('',*,*,#358,.T.);
#139=ORIENTED_EDGE('',*,*,#348,.F.);
#140=ORIENTED_EDGE('',*,*,#352,.F.);
#141=ORIENTED_EDGE('',*,*,#356,.T.);
#142=ORIENTED_EDGE('',*,*,#321,.F.);
#143=ORIENTED_EDGE('',*,*,#377,.F.);
#144=ORIENTED_EDGE('',*,*,#378,.T.);
#145=ORIENTED_EDGE('',*,*,#341,.T.);
#146=ORIENTED_EDGE('',*,*,#320,.T.);
#147=ORIENTED_EDGE('',*,*,#379,.F.);
#148=ORIENTED_EDGE('',*,*,#380,.F.);
#149=ORIENTED_EDGE('',*,*,#377,.T.);
#150=ORIENTED_EDGE('',*,*,#381,.F.);
#151=ORIENTED_EDGE('',*,*,#382,.T.);
#152=ORIENTED_EDGE('',*,*,#343,.F.);
#153=ORIENTED_EDGE('',*,*,#383,.F.);
#154=ORIENTED_EDGE('',*,*,#379,.T.);
#155=ORIENTED_EDGE('',*,*,#319,.T.);
#156=ORIENTED_EDGE('',*,*,#378,.F.);
#157=ORIENTED_EDGE('',*,*,#380,.T.);
#158=ORIENTED_EDGE('',*,*,#383,.T.);
#159=ORIENTED_EDGE('',*,*,#342,.F.);
#160=ORIENTED_EDGE('',*,*,#344,.F.);
#161=ORIENTED_EDGE('',*,*,#384,.F.);
#162=ORIENTED_EDGE('',*,*,#303,.T.);
#163=ORIENTED_EDGE('',*,*,#385,.T.);
#164=ORIENTED_EDGE('',*,*,#347,.T.);
#165=ORIENTED_EDGE('',*,*,#386,.F.);
#166=ORIENTED_EDGE('',*,*,#304,.F.);
#167=ORIENTED_EDGE('',*,*,#384,.T.);
#168=ORIENTED_EDGE('',*,*,#346,.T.);
#169=ORIENTED_EDGE('',*,*,#387,.F.);
#170=ORIENTED_EDGE('',*,*,#305,.F.);
#171=ORIENTED_EDGE('',*,*,#386,.T.);
#172=ORIENTED_EDGE('',*,*,#345,.F.);
#173=ORIENTED_EDGE('',*,*,#385,.F.);
#174=ORIENTED_EDGE('',*,*,#302,.F.);
#175=ORIENTED_EDGE('',*,*,#376,.T.);
#176=ORIENTED_EDGE('',*,*,#388,.T.);
#177=ORIENTED_EDGE('',*,*,#389,.T.);
#178=ORIENTED_EDGE('',*,*,#390,.T.);
#179=ORIENTED_EDGE('',*,*,#325,.F.);
#180=ORIENTED_EDGE('',*,*,#306,.F.);
#181=ORIENTED_EDGE('',*,*,#387,.T.);
#182=ORIENTED_EDGE('',*,*,#373,.F.);
#183=ORIENTED_EDGE('',*,*,#300,.T.);
#184=ORIENTED_EDGE('',*,*,#324,.T.);
#185=ORIENTED_EDGE('',*,*,#391,.T.);
#186=ORIENTED_EDGE('',*,*,#392,.F.);
#187=ORIENTED_EDGE('',*,*,#393,.F.);
#188=ORIENTED_EDGE('',*,*,#394,.F.);
#189=ORIENTED_EDGE('',*,*,#381,.T.);
#190=ORIENTED_EDGE('',*,*,#318,.T.);
#191=ORIENTED_EDGE('',*,*,#395,.F.);
#192=ORIENTED_EDGE('',*,*,#396,.F.);
#193=ORIENTED_EDGE('',*,*,#397,.F.);
#194=ORIENTED_EDGE('',*,*,#368,.T.);
#195=ORIENTED_EDGE('',*,*,#398,.F.);
#196=ORIENTED_EDGE('',*,*,#392,.T.);
#197=ORIENTED_EDGE('',*,*,#399,.T.);
#198=ORIENTED_EDGE('',*,*,#339,.T.);
#199=ORIENTED_EDGE('',*,*,#382,.F.);
#200=ORIENTED_EDGE('',*,*,#394,.T.);
#201=ORIENTED_EDGE('',*,*,#340,.F.);
#202=ORIENTED_EDGE('',*,*,#399,.F.);
#203=ORIENTED_EDGE('',*,*,#391,.F.);
#204=ORIENTED_EDGE('',*,*,#323,.T.);
#205=ORIENTED_EDGE('',*,*,#317,.F.);
#206=ORIENTED_EDGE('',*,*,#362,.T.);
#207=ORIENTED_EDGE('',*,*,#397,.T.);
#208=ORIENTED_EDGE('',*,*,#395,.T.);
#209=ORIENTED_EDGE('',*,*,#396,.T.);
#210=ORIENTED_EDGE('',*,*,#400,.T.);
#211=ORIENTED_EDGE('',*,*,#398,.T.);
#212=ORIENTED_EDGE('',*,*,#367,.T.);
#213=ORIENTED_EDGE('',*,*,#374,.T.);
#214=ORIENTED_EDGE('',*,*,#393,.T.);
#215=ORIENTED_EDGE('',*,*,#336,.F.);
#216=ORIENTED_EDGE('',*,*,#365,.T.);
#217=ORIENTED_EDGE('',*,*,#401,.T.);
#218=ORIENTED_EDGE('',*,*,#402,.T.);
#219=ORIENTED_EDGE('',*,*,#363,.F.);
#220=ORIENTED_EDGE('',*,*,#338,.T.);
#221=ORIENTED_EDGE('',*,*,#403,.F.);
#222=ORIENTED_EDGE('',*,*,#404,.F.);
#223=ORIENTED_EDGE('',*,*,#405,.T.);
#224=ORIENTED_EDGE('',*,*,#406,.T.);
#225=ORIENTED_EDGE('',*,*,#337,.F.);
#226=ORIENTED_EDGE('',*,*,#402,.F.);
#227=ORIENTED_EDGE('',*,*,#407,.T.);
#228=ORIENTED_EDGE('',*,*,#403,.T.);
#229=ORIENTED_EDGE('',*,*,#405,.F.);
#230=ORIENTED_EDGE('',*,*,#401,.F.);
#231=ORIENTED_EDGE('',*,*,#364,.T.);
#232=ORIENTED_EDGE('',*,*,#404,.T.);
#233=ORIENTED_EDGE('',*,*,#407,.F.);
#234=ORIENTED_EDGE('',*,*,#406,.F.);
#235=ORIENTED_EDGE('',*,*,#375,.F.);
#236=ORIENTED_EDGE('',*,*,#312,.T.);
#237=ORIENTED_EDGE('',*,*,#330,.T.);
#238=ORIENTED_EDGE('',*,*,#408,.T.);
#239=ORIENTED_EDGE('',*,*,#409,.F.);
#240=ORIENTED_EDGE('',*,*,#388,.F.);
#241=ORIENTED_EDGE('',*,*,#408,.F.);
#242=ORIENTED_EDGE('',*,*,#329,.T.);
#243=ORIENTED_EDGE('',*,*,#410,.F.);
#244=ORIENTED_EDGE('',*,*,#411,.F.);
#245=ORIENTED_EDGE('',*,*,#412,.F.);
#246=ORIENTED_EDGE('',*,*,#389,.F.);
#247=ORIENTED_EDGE('',*,*,#409,.T.);
#248=ORIENTED_EDGE('',*,*,#411,.T.);
#249=ORIENTED_EDGE('',*,*,#413,.T.);
#250=ORIENTED_EDGE('',*,*,#414,.F.);
#251=ORIENTED_EDGE('',*,*,#415,.F.);
#252=ORIENTED_EDGE('',*,*,#390,.F.);
#253=ORIENTED_EDGE('',*,*,#415,.T.);
#254=ORIENTED_EDGE('',*,*,#416,.T.);
#255=ORIENTED_EDGE('',*,*,#326,.F.);
#256=ORIENTED_EDGE('',*,*,#328,.T.);
#257=ORIENTED_EDGE('',*,*,#417,.F.);
#258=ORIENTED_EDGE('',*,*,#413,.F.);
#259=ORIENTED_EDGE('',*,*,#410,.T.);
#260=ORIENTED_EDGE('',*,*,#412,.T.);
#261=ORIENTED_EDGE('',*,*,#418,.T.);
#262=ORIENTED_EDGE('',*,*,#327,.F.);
#263=ORIENTED_EDGE('',*,*,#416,.F.);
#264=ORIENTED_EDGE('',*,*,#414,.T.);
#265=ORIENTED_EDGE('',*,*,#417,.T.);
#266=ORIENTED_EDGE('',*,*,#418,.F.);
#267=ORIENTED_EDGE('',*,*,#419,.F.);
#268=ORIENTED_EDGE('',*,*,#308,.T.);
#269=ORIENTED_EDGE('',*,*,#333,.T.);
#270=ORIENTED_EDGE('',*,*,#420,.F.);
#271=ORIENTED_EDGE('',*,*,#310,.F.);
#272=ORIENTED_EDGE('',*,*,#421,.T.);
#273=ORIENTED_EDGE('',*,*,#422,.T.);
#274=ORIENTED_EDGE('',*,*,#331,.F.);
#275=ORIENTED_EDGE('',*,*,#423,.F.);
#276=ORIENTED_EDGE('',*,*,#309,.F.);
#277=ORIENTED_EDGE('',*,*,#419,.T.);
#278=ORIENTED_EDGE('',*,*,#424,.T.);
#279=ORIENTED_EDGE('',*,*,#421,.F.);
#280=ORIENTED_EDGE('',*,*,#332,.T.);
#281=ORIENTED_EDGE('',*,*,#422,.F.);
#282=ORIENTED_EDGE('',*,*,#424,.F.);
#283=ORIENTED_EDGE('',*,*,#420,.T.);
#284=ORIENTED_EDGE('',*,*,#423,.T.);
#285=ORIENTED_EDGE('',*,*,#425,.T.);
#286=ORIENTED_EDGE('',*,*,#425,.F.);
#287=ORIENTED_EDGE('',*,*,#400,.F.);
#288=ORIENTED_EDGE('',*,*,#426,.F.);
#289=ORIENTED_EDGE('',*,*,#372,.T.);
#290=ORIENTED_EDGE('',*,*,#426,.T.);
#291=ORIENTED_EDGE('',*,*,#427,.F.);
#292=ORIENTED_EDGE('',*,*,#371,.T.);
#293=ORIENTED_EDGE('',*,*,#427,.T.);
#294=ORIENTED_EDGE('',*,*,#428,.F.);
#295=ORIENTED_EDGE('',*,*,#370,.T.);
#296=ORIENTED_EDGE('',*,*,#428,.T.);
#297=ORIENTED_EDGE('',*,*,#429,.F.);
#298=ORIENTED_EDGE('',*,*,#369,.T.);
#299=ORIENTED_EDGE('',*,*,#429,.T.);
#300=EDGE_CURVE('',#430,#431,#522,.T.);
#301=EDGE_CURVE('',#432,#430,#523,.T.);
#302=EDGE_CURVE('',#432,#433,#524,.T.);
#303=EDGE_CURVE('',#434,#433,#525,.T.);
#304=EDGE_CURVE('',#434,#435,#526,.T.);
#305=EDGE_CURVE('',#435,#436,#527,.T.);
#306=EDGE_CURVE('',#436,#437,#528,.T.);
#307=EDGE_CURVE('',#437,#431,#529,.T.);
#308=EDGE_CURVE('',#438,#439,#530,.T.);
#309=EDGE_CURVE('',#438,#440,#531,.T.);
#310=EDGE_CURVE('',#440,#441,#532,.T.);
#311=EDGE_CURVE('',#441,#442,#533,.T.);
#312=EDGE_CURVE('',#443,#442,#534,.T.);
#313=EDGE_CURVE('',#444,#443,#535,.T.);
#314=EDGE_CURVE('',#444,#445,#536,.T.);
#315=EDGE_CURVE('',#445,#439,#537,.T.);
#316=EDGE_CURVE('',#446,#447,#538,.T.);
#317=EDGE_CURVE('',#447,#448,#539,.T.);
#318=EDGE_CURVE('',#449,#448,#540,.T.);
#319=EDGE_CURVE('',#450,#449,#541,.T.);
#320=EDGE_CURVE('',#451,#450,#542,.T.);
#321=EDGE_CURVE('',#451,#452,#543,.T.);
#322=EDGE_CURVE('',#452,#453,#544,.T.);
#323=EDGE_CURVE('',#454,#453,#545,.T.);
#324=EDGE_CURVE('',#431,#454,#546,.T.);
#325=EDGE_CURVE('',#437,#455,#547,.T.);
#326=EDGE_CURVE('',#455,#456,#548,.T.);
#327=EDGE_CURVE('',#456,#457,#549,.T.);
#328=EDGE_CURVE('',#458,#457,#550,.T.);
#329=EDGE_CURVE('',#459,#458,#551,.T.);
#330=EDGE_CURVE('',#442,#459,#552,.T.);
#331=EDGE_CURVE('',#441,#460,#553,.T.);
#332=EDGE_CURVE('',#461,#460,#554,.T.);
#333=EDGE_CURVE('',#439,#461,#555,.T.);
#334=EDGE_CURVE('',#445,#462,#556,.T.);
#335=EDGE_CURVE('',#462,#463,#557,.T.);
#336=EDGE_CURVE('',#463,#464,#558,.T.);
#337=EDGE_CURVE('',#464,#465,#559,.T.);
#338=EDGE_CURVE('',#446,#465,#560,.T.);
#339=EDGE_CURVE('',#466,#467,#561,.T.);
#340=EDGE_CURVE('',#466,#453,#562,.T.);
#341=EDGE_CURVE('',#468,#452,#563,.T.);
#342=EDGE_CURVE('',#468,#469,#564,.T.);
#343=EDGE_CURVE('',#469,#467,#565,.T.);
#344=EDGE_CURVE('',#470,#471,#566,.T.);
#345=EDGE_CURVE('',#471,#472,#567,.T.);
#346=EDGE_CURVE('',#473,#472,#568,.T.);
#347=EDGE_CURVE('',#470,#473,#569,.T.);
#348=EDGE_CURVE('',#474,#475,#570,.T.);
#349=EDGE_CURVE('',#476,#475,#571,.T.);
#350=EDGE_CURVE('',#477,#476,#572,.T.);
#351=EDGE_CURVE('',#477,#474,#573,.T.);
#352=EDGE_CURVE('',#478,#474,#574,.T.);
#353=EDGE_CURVE('',#479,#477,#575,.T.);
#354=EDGE_CURVE('',#479,#478,#576,.T.);
#355=EDGE_CURVE('',#480,#481,#577,.T.);
#356=EDGE_CURVE('',#478,#481,#578,.T.);
#357=EDGE_CURVE('',#479,#480,#579,.T.);
#358=EDGE_CURVE('',#481,#475,#580,.T.);
#359=EDGE_CURVE('',#480,#476,#581,.T.);
#360=EDGE_CURVE('',#444,#482,#582,.T.);
#361=EDGE_CURVE('',#482,#462,#583,.T.);
#362=EDGE_CURVE('',#447,#483,#584,.T.);
#363=EDGE_CURVE('',#446,#484,#585,.T.);
#364=EDGE_CURVE('',#485,#484,#586,.T.);
#365=EDGE_CURVE('',#463,#485,#587,.T.);
#366=EDGE_CURVE('',#482,#486,#588,.T.);
#367=EDGE_CURVE('',#487,#486,#589,.T.);
#368=EDGE_CURVE('',#483,#487,#590,.T.);
#369=EDGE_CURVE('',#488,#488,#24,.T.);
#370=EDGE_CURVE('',#489,#489,#25,.T.);
#371=EDGE_CURVE('',#490,#490,#26,.T.);
#372=EDGE_CURVE('',#491,#491,#27,.T.);
#373=EDGE_CURVE('',#430,#492,#591,.T.);
#374=EDGE_CURVE('',#486,#492,#592,.T.);
#375=EDGE_CURVE('',#443,#493,#593,.T.);
#376=EDGE_CURVE('',#432,#493,#594,.T.);
#377=EDGE_CURVE('',#494,#451,#595,.T.);
#378=EDGE_CURVE('',#494,#468,#596,.T.);
#379=EDGE_CURVE('',#495,#450,#597,.T.);
#380=EDGE_CURVE('',#494,#495,#598,.T.);
#381=EDGE_CURVE('',#496,#449,#599,.T.);
#382=EDGE_CURVE('',#496,#467,#600,.T.);
#383=EDGE_CURVE('',#495,#469,#601,.T.);
#384=EDGE_CURVE('',#434,#470,#602,.T.);
#385=EDGE_CURVE('',#433,#471,#603,.T.);
#386=EDGE_CURVE('',#435,#473,#604,.T.);
#387=EDGE_CURVE('',#436,#472,#605,.T.);
#388=EDGE_CURVE('',#493,#497,#606,.T.);
#389=EDGE_CURVE('',#497,#498,#607,.T.);
#390=EDGE_CURVE('',#498,#455,#608,.T.);
#391=EDGE_CURVE('',#454,#499,#609,.T.);
#392=EDGE_CURVE('',#500,#499,#610,.T.);
#393=EDGE_CURVE('',#492,#500,#611,.T.);
#394=EDGE_CURVE('',#496,#501,#612,.T.);
#395=EDGE_CURVE('',#501,#448,#613,.T.);
#396=EDGE_CURVE('',#502,#502,#28,.T.);
#397=EDGE_CURVE('',#483,#501,#614,.T.);
#398=EDGE_CURVE('',#500,#487,#615,.T.);
#399=EDGE_CURVE('',#499,#466,#616,.T.);
#400=EDGE_CURVE('',#503,#503,#29,.F.);
#401=EDGE_CURVE('',#485,#504,#617,.T.);
#402=EDGE_CURVE('',#504,#464,#618,.T.);
#403=EDGE_CURVE('',#505,#465,#619,.T.);
#404=EDGE_CURVE('',#484,#505,#620,.T.);
#405=EDGE_CURVE('',#506,#506,#30,.T.);
#406=EDGE_CURVE('',#507,#507,#31,.F.);
#407=EDGE_CURVE('',#504,#505,#621,.T.);
#408=EDGE_CURVE('',#459,#508,#622,.T.);
#409=EDGE_CURVE('',#497,#508,#623,.T.);
#410=EDGE_CURVE('',#509,#458,#624,.T.);
#411=EDGE_CURVE('',#508,#509,#625,.T.);
#412=EDGE_CURVE('',#510,#510,#32,.T.);
#413=EDGE_CURVE('',#509,#511,#626,.T.);
#414=EDGE_CURVE('',#512,#511,#627,.T.);
#415=EDGE_CURVE('',#498,#512,#628,.T.);
#416=EDGE_CURVE('',#512,#456,#629,.T.);
#417=EDGE_CURVE('',#511,#457,#630,.T.);
#418=EDGE_CURVE('',#513,#513,#33,.F.);
#419=EDGE_CURVE('',#438,#514,#631,.T.);
#420=EDGE_CURVE('',#514,#461,#632,.T.);
#421=EDGE_CURVE('',#440,#515,#633,.T.);
#422=EDGE_CURVE('',#515,#460,#634,.T.);
#423=EDGE_CURVE('',#516,#516,#34,.T.);
#424=EDGE_CURVE('',#514,#515,#635,.T.);
#425=EDGE_CURVE('',#517,#517,#35,.F.);
#426=EDGE_CURVE('',#518,#518,#36,.T.);
#427=EDGE_CURVE('',#519,#519,#37,.T.);
#428=EDGE_CURVE('',#520,#520,#38,.T.);
#429=EDGE_CURVE('',#521,#521,#39,.T.);
#430=VERTEX_POINT('',#1355);
#431=VERTEX_POINT('',#1356);
#432=VERTEX_POINT('',#1358);
#433=VERTEX_POINT('',#1360);
#434=VERTEX_POINT('',#1362);
#435=VERTEX_POINT('',#1364);
#436=VERTEX_POINT('',#1366);
#437=VERTEX_POINT('',#1368);
#438=VERTEX_POINT('',#1372);
#439=VERTEX_POINT('',#1373);
#440=VERTEX_POINT('',#1375);
#441=VERTEX_POINT('',#1377);
#442=VERTEX_POINT('',#1379);
#443=VERTEX_POINT('',#1381);
#444=VERTEX_POINT('',#1383);
#445=VERTEX_POINT('',#1385);
#446=VERTEX_POINT('',#1389);
#447=VERTEX_POINT('',#1390);
#448=VERTEX_POINT('',#1392);
#449=VERTEX_POINT('',#1394);
#450=VERTEX_POINT('',#1396);
#451=VERTEX_POINT('',#1398);
#452=VERTEX_POINT('',#1400);
#453=VERTEX_POINT('',#1402);
#454=VERTEX_POINT('',#1404);
#455=VERTEX_POINT('',#1407);
#456=VERTEX_POINT('',#1409);
#457=VERTEX_POINT('',#1411);
#458=VERTEX_POINT('',#1413);
#459=VERTEX_POINT('',#1415);
#460=VERTEX_POINT('',#1418);
#461=VERTEX_POINT('',#1420);
#462=VERTEX_POINT('',#1423);
#463=VERTEX_POINT('',#1425);
#464=VERTEX_POINT('',#1427);
#465=VERTEX_POINT('',#1429);
#466=VERTEX_POINT('',#1433);
#467=VERTEX_POINT('',#1434);
#468=VERTEX_POINT('',#1437);
#469=VERTEX_POINT('',#1439);
#470=VERTEX_POINT('',#1443);
#471=VERTEX_POINT('',#1444);
#472=VERTEX_POINT('',#1446);
#473=VERTEX_POINT('',#1448);
#474=VERTEX_POINT('',#1451);
#475=VERTEX_POINT('',#1452);
#476=VERTEX_POINT('',#1454);
#477=VERTEX_POINT('',#1456);
#478=VERTEX_POINT('',#1460);
#479=VERTEX_POINT('',#1462);
#480=VERTEX_POINT('',#1466);
#481=VERTEX_POINT('',#1467);
#482=VERTEX_POINT('',#1476);
#483=VERTEX_POINT('',#1480);
#484=VERTEX_POINT('',#1482);
#485=VERTEX_POINT('',#1484);
#486=VERTEX_POINT('',#1487);
#487=VERTEX_POINT('',#1489);
#488=VERTEX_POINT('',#1493);
#489=VERTEX_POINT('',#1495);
#490=VERTEX_POINT('',#1497);
#491=VERTEX_POINT('',#1499);
#492=VERTEX_POINT('',#1501);
#493=VERTEX_POINT('',#1504);
#494=VERTEX_POINT('',#1508);
#495=VERTEX_POINT('',#1512);
#496=VERTEX_POINT('',#1516);
#497=VERTEX_POINT('',#1529);
#498=VERTEX_POINT('',#1531);
#499=VERTEX_POINT('',#1535);
#500=VERTEX_POINT('',#1537);
#501=VERTEX_POINT('',#1541);
#502=VERTEX_POINT('',#1545);
#503=VERTEX_POINT('',#1553);
#504=VERTEX_POINT('',#1557);
#505=VERTEX_POINT('',#1561);
#506=VERTEX_POINT('',#1565);
#507=VERTEX_POINT('',#1567);
#508=VERTEX_POINT('',#1574);
#509=VERTEX_POINT('',#1578);
#510=VERTEX_POINT('',#1582);
#511=VERTEX_POINT('',#1584);
#512=VERTEX_POINT('',#1586);
#513=VERTEX_POINT('',#1594);
#514=VERTEX_POINT('',#1599);
#515=VERTEX_POINT('',#1603);
#516=VERTEX_POINT('',#1607);
#517=VERTEX_POINT('',#1612);
#518=VERTEX_POINT('',#1617);
#519=VERTEX_POINT('',#1621);
#520=VERTEX_POINT('',#1625);
#521=VERTEX_POINT('',#1629);
#522=LINE('',#1354,#636);
#523=LINE('',#1357,#637);
#524=LINE('',#1359,#638);
#525=LINE('',#1361,#639);
#526=LINE('',#1363,#640);
#527=LINE('',#1365,#641);
#528=LINE('',#1367,#642);
#529=LINE('',#1369,#643);
#530=LINE('',#1371,#644);
#531=LINE('',#1374,#645);
#532=LINE('',#1376,#646);
#533=LINE('',#1378,#647);
#534=LINE('',#1380,#648);
#535=LINE('',#1382,#649);
#536=LINE('',#1384,#650);
#537=LINE('',#1386,#651);
#538=LINE('',#1388,#652);
#539=LINE('',#1391,#653);
#540=LINE('',#1393,#654);
#541=LINE('',#1395,#655);
#542=LINE('',#1397,#656);
#543=LINE('',#1399,#657);
#544=LINE('',#1401,#658);
#545=LINE('',#1403,#659);
#546=LINE('',#1405,#660);
#547=LINE('',#1406,#661);
#548=LINE('',#1408,#662);
#549=LINE('',#1410,#663);
#550=LINE('',#1412,#664);
#551=LINE('',#1414,#665);
#552=LINE('',#1416,#666);
#553=LINE('',#1417,#667);
#554=LINE('',#1419,#668);
#555=LINE('',#1421,#669);
#556=LINE('',#1422,#670);
#557=LINE('',#1424,#671);
#558=LINE('',#1426,#672);
#559=LINE('',#1428,#673);
#560=LINE('',#1430,#674);
#561=LINE('',#1432,#675);
#562=LINE('',#1435,#676);
#563=LINE('',#1436,#677);
#564=LINE('',#1438,#678);
#565=LINE('',#1440,#679);
#566=LINE('',#1442,#680);
#567=LINE('',#1445,#681);
#568=LINE('',#1447,#682);
#569=LINE('',#1449,#683);
#570=LINE('',#1450,#684);
#571=LINE('',#1453,#685);
#572=LINE('',#1455,#686);
#573=LINE('',#1457,#687);
#574=LINE('',#1459,#688);
#575=LINE('',#1461,#689);
#576=LINE('',#1463,#690);
#577=LINE('',#1465,#691);
#578=LINE('',#1468,#692);
#579=LINE('',#1469,#693);
#580=LINE('',#1471,#694);
#581=LINE('',#1472,#695);
#582=LINE('',#1475,#696);
#583=LINE('',#1477,#697);
#584=LINE('',#1479,#698);
#585=LINE('',#1481,#699);
#586=LINE('',#1483,#700);
#587=LINE('',#1485,#701);
#588=LINE('',#1486,#702);
#589=LINE('',#1488,#703);
#590=LINE('',#1490,#704);
#591=LINE('',#1500,#705);
#592=LINE('',#1502,#706);
#593=LINE('',#1503,#707);
#594=LINE('',#1505,#708);
#595=LINE('',#1507,#709);
#596=LINE('',#1509,#710);
#597=LINE('',#1511,#711);
#598=LINE('',#1513,#712);
#599=LINE('',#1515,#713);
#600=LINE('',#1517,#714);
#601=LINE('',#1518,#715);
#602=LINE('',#1521,#716);
#603=LINE('',#1522,#717);
#604=LINE('',#1524,#718);
#605=LINE('',#1526,#719);
#606=LINE('',#1528,#720);
#607=LINE('',#1530,#721);
#608=LINE('',#1532,#722);
#609=LINE('',#1534,#723);
#610=LINE('',#1536,#724);
#611=LINE('',#1538,#725);
#612=LINE('',#1540,#726);
#613=LINE('',#1542,#727);
#614=LINE('',#1546,#728);
#615=LINE('',#1547,#729);
#616=LINE('',#1548,#730);
#617=LINE('',#1556,#731);
#618=LINE('',#1558,#732);
#619=LINE('',#1560,#733);
#620=LINE('',#1562,#734);
#621=LINE('',#1569,#735);
#622=LINE('',#1573,#736);
#623=LINE('',#1575,#737);
#624=LINE('',#1577,#738);
#625=LINE('',#1579,#739);
#626=LINE('',#1583,#740);
#627=LINE('',#1585,#741);
#628=LINE('',#1587,#742);
#629=LINE('',#1589,#743);
#630=LINE('',#1591,#744);
#631=LINE('',#1598,#745);
#632=LINE('',#1600,#746);
#633=LINE('',#1602,#747);
#634=LINE('',#1604,#748);
#635=LINE('',#1608,#749);
#636=VECTOR('',#1094,1.);
#637=VECTOR('',#1095,1.);
#638=VECTOR('',#1096,1.);
#639=VECTOR('',#1097,1.);
#640=VECTOR('',#1098,1.);
#641=VECTOR('',#1099,1.);
#642=VECTOR('',#1100,1.);
#643=VECTOR('',#1101,1.);
#644=VECTOR('',#1104,1.);
#645=VECTOR('',#1105,1.);
#646=VECTOR('',#1106,1.);
#647=VECTOR('',#1107,1.);
#648=VECTOR('',#1108,1.);
#649=VECTOR('',#1109,1.);
#650=VECTOR('',#1110,1.);
#651=VECTOR('',#1111,1.);
#652=VECTOR('',#1114,1.);
#653=VECTOR('',#1115,1.);
#654=VECTOR('',#1116,1.);
#655=VECTOR('',#1117,1.);
#656=VECTOR('',#1118,1.);
#657=VECTOR('',#1119,1.);
#658=VECTOR('',#1120,1.);
#659=VECTOR('',#1121,1.);
#660=VECTOR('',#1122,1.);
#661=VECTOR('',#1123,1.);
#662=VECTOR('',#1124,1.);
#663=VECTOR('',#1125,1.);
#664=VECTOR('',#1126,1.);
#665=VECTOR('',#1127,1.);
#666=VECTOR('',#1128,1.);
#667=VECTOR('',#1129,1.);
#668=VECTOR('',#1130,1.);
#669=VECTOR('',#1131,1.);
#670=VECTOR('',#1132,1.);
#671=VECTOR('',#1133,1.);
#672=VECTOR('',#1134,1.);
#673=VECTOR('',#1135,1.);
#674=VECTOR('',#1136,1.);
#675=VECTOR('',#1139,1.);
#676=VECTOR('',#1140,1.);
#677=VECTOR('',#1141,1.);
#678=VECTOR('',#1142,1.);
#679=VECTOR('',#1143,1.);
#680=VECTOR('',#1146,1.);
#681=VECTOR('',#1147,1.);
#682=VECTOR('',#1148,1.);
#683=VECTOR('',#1149,1.);
#684=VECTOR('',#1150,1.);
#685=VECTOR('',#1151,1.);
#686=VECTOR('',#1152,1.);
#687=VECTOR('',#1153,1.);
#688=VECTOR('',#1156,1.);
#689=VECTOR('',#1157,1.);
#690=VECTOR('',#1158,1.);
#691=VECTOR('',#1161,1.);
#692=VECTOR('',#1162,1.);
#693=VECTOR('',#1163,1.);
#694=VECTOR('',#1166,1.);
#695=VECTOR('',#1167,1.);
#696=VECTOR('',#1172,1.);
#697=VECTOR('',#1173,1.);
#698=VECTOR('',#1176,1.);
#699=VECTOR('',#1177,1.);
#700=VECTOR('',#1178,1.);
#701=VECTOR('',#1179,1.);
#702=VECTOR('',#1180,1.);
#703=VECTOR('',#1181,1.);
#704=VECTOR('',#1182,1.);
#705=VECTOR('',#1193,1.);
#706=VECTOR('',#1194,1.);
#707=VECTOR('',#1195,1.);
#708=VECTOR('',#1196,1.);
#709=VECTOR('',#1199,1.);
#710=VECTOR('',#1200,1.);
#711=VECTOR('',#1203,1.);
#712=VECTOR('',#1204,1.);
#713=VECTOR('',#1207,1.);
#714=VECTOR('',#1208,1.);
#715=VECTOR('',#1209,1.);
#716=VECTOR('',#1214,1.);
#717=VECTOR('',#1215,1.);
#718=VECTOR('',#1218,1.);
#719=VECTOR('',#1221,1.);
#720=VECTOR('',#1224,1.);
#721=VECTOR('',#1225,1.);
#722=VECTOR('',#1226,1.);
#723=VECTOR('',#1229,1.);
#724=VECTOR('',#1230,1.);
#725=VECTOR('',#1231,1.);
#726=VECTOR('',#1234,1.);
#727=VECTOR('',#1235,1.);
#728=VECTOR('',#1240,1.);
#729=VECTOR('',#1241,1.);
#730=VECTOR('',#1242,1.);
#731=VECTOR('',#1255,1.);
#732=VECTOR('',#1256,1.);
#733=VECTOR('',#1259,1.);
#734=VECTOR('',#1260,1.);
#735=VECTOR('',#1269,1.);
#736=VECTOR('',#1276,1.);
#737=VECTOR('',#1277,1.);
#738=VECTOR('',#1280,1.);
#739=VECTOR('',#1281,1.);
#740=VECTOR('',#1286,1.);
#741=VECTOR('',#1287,1.);
#742=VECTOR('',#1288,1.);
#743=VECTOR('',#1291,1.);
#744=VECTOR('',#1294,1.);
#745=VECTOR('',#1305,1.);
#746=VECTOR('',#1306,1.);
#747=VECTOR('',#1309,1.);
#748=VECTOR('',#1310,1.);
#749=VECTOR('',#1315,1.);
#750=EDGE_LOOP('',(#40,#41,#42,#43,#44,#45,#46,#47));
#751=EDGE_LOOP('',(#48,#49,#50,#51,#52,#53,#54,#55));
#752=EDGE_LOOP('',(#56,#57,#58,#59,#60,#61,#62,#63,#64,#65,#66,#67,#68,
#69,#70,#71,#72,#73,#74,#75,#76,#77,#78,#79,#80,#81));
#753=EDGE_LOOP('',(#82,#83,#84,#85,#86,#87));
#754=EDGE_LOOP('',(#88,#89,#90,#91));
#755=EDGE_LOOP('',(#92,#93,#94,#95));
#756=EDGE_LOOP('',(#96,#97,#98,#99));
#757=EDGE_LOOP('',(#100,#101,#102,#103));
#758=EDGE_LOOP('',(#104,#105,#106,#107));
#759=EDGE_LOOP('',(#108,#109,#110,#111));
#760=EDGE_LOOP('',(#112,#113,#114,#115));
#761=EDGE_LOOP('',(#116,#117,#118,#119,#120,#121,#122,#123,#124,#125));
#762=EDGE_LOOP('',(#126));
#763=EDGE_LOOP('',(#127));
#764=EDGE_LOOP('',(#128));
#765=EDGE_LOOP('',(#129));
#766=EDGE_LOOP('',(#130,#131,#132,#133,#134,#135,#136,#137));
#767=EDGE_LOOP('',(#138,#139,#140,#141));
#768=EDGE_LOOP('',(#142,#143,#144,#145));
#769=EDGE_LOOP('',(#146,#147,#148,#149));
#770=EDGE_LOOP('',(#150,#151,#152,#153,#154,#155));
#771=EDGE_LOOP('',(#156,#157,#158,#159));
#772=EDGE_LOOP('',(#160,#161,#162,#163));
#773=EDGE_LOOP('',(#164,#165,#166,#167));
#774=EDGE_LOOP('',(#168,#169,#170,#171));
#775=EDGE_LOOP('',(#172,#173,#174,#175,#176,#177,#178,#179,#180,#181));
#776=EDGE_LOOP('',(#182,#183,#184,#185,#186,#187));
#777=EDGE_LOOP('',(#188,#189,#190,#191));
#778=EDGE_LOOP('',(#192));
#779=EDGE_LOOP('',(#193,#194,#195,#196,#197,#198,#199,#200));
#780=EDGE_LOOP('',(#201,#202,#203,#204));
#781=EDGE_LOOP('',(#205,#206,#207,#208));
#782=EDGE_LOOP('',(#209));
#783=EDGE_LOOP('',(#210));
#784=EDGE_LOOP('',(#211,#212,#213,#214));
#785=EDGE_LOOP('',(#215,#216,#217,#218));
#786=EDGE_LOOP('',(#219,#220,#221,#222));
#787=EDGE_LOOP('',(#223));
#788=EDGE_LOOP('',(#224));
#789=EDGE_LOOP('',(#225,#226,#227,#228));
#790=EDGE_LOOP('',(#229));
#791=EDGE_LOOP('',(#230,#231,#232,#233));
#792=EDGE_LOOP('',(#234));
#793=EDGE_LOOP('',(#235,#236,#237,#238,#239,#240));
#794=EDGE_LOOP('',(#241,#242,#243,#244));
#795=EDGE_LOOP('',(#245));
#796=EDGE_LOOP('',(#246,#247,#248,#249,#250,#251));
#797=EDGE_LOOP('',(#252,#253,#254,#255));
#798=EDGE_LOOP('',(#256,#257,#258,#259));
#799=EDGE_LOOP('',(#260));
#800=EDGE_LOOP('',(#261));
#801=EDGE_LOOP('',(#262,#263,#264,#265));
#802=EDGE_LOOP('',(#266));
#803=EDGE_LOOP('',(#267,#268,#269,#270));
#804=EDGE_LOOP('',(#271,#272,#273,#274));
#805=EDGE_LOOP('',(#275));
#806=EDGE_LOOP('',(#276,#277,#278,#279));
#807=EDGE_LOOP('',(#280,#281,#282,#283));
#808=EDGE_LOOP('',(#284));
#809=EDGE_LOOP('',(#285));
#810=EDGE_LOOP('',(#286));
#811=EDGE_LOOP('',(#287));
#812=EDGE_LOOP('',(#288));
#813=EDGE_LOOP('',(#289));
#814=EDGE_LOOP('',(#290));
#815=EDGE_LOOP('',(#291));
#816=EDGE_LOOP('',(#292));
#817=EDGE_LOOP('',(#293));
#818=EDGE_LOOP('',(#294));
#819=EDGE_LOOP('',(#295));
#820=EDGE_LOOP('',(#296));
#821=EDGE_LOOP('',(#297));
#822=EDGE_LOOP('',(#298));
#823=EDGE_LOOP('',(#299));
#824=FACE_BOUND('',#750,.T.);
#825=FACE_BOUND('',#751,.T.);
#826=FACE_BOUND('',#752,.T.);
#827=FACE_BOUND('',#753,.T.);
#828=FACE_BOUND('',#754,.T.);
#829=FACE_BOUND('',#755,.T.);
#830=FACE_BOUND('',#756,.T.);
#831=FACE_BOUND('',#757,.T.);
#832=FACE_BOUND('',#758,.T.);
#833=FACE_BOUND('',#759,.T.);
#834=FACE_BOUND('',#760,.T.);
#835=FACE_BOUND('',#761,.T.);
#836=FACE_BOUND('',#762,.T.);
#837=FACE_BOUND('',#763,.T.);
#838=FACE_BOUND('',#764,.T.);
#839=FACE_BOUND('',#765,.T.);
#840=FACE_BOUND('',#766,.T.);
#841=FACE_BOUND('',#767,.T.);
#842=FACE_BOUND('',#768,.T.);
#843=FACE_BOUND('',#769,.T.);
#844=FACE_BOUND('',#770,.T.);
#845=FACE_BOUND('',#771,.T.);
#846=FACE_BOUND('',#772,.T.);
#847=FACE_BOUND('',#773,.T.);
#848=FACE_BOUND('',#774,.T.);
#849=FACE_BOUND('',#775,.T.);
#850=FACE_BOUND('',#776,.T.);
#851=FACE_BOUND('',#777,.T.);
#852=FACE_BOUND('',#778,.T.);
#853=FACE_BOUND('',#779,.T.);
#854=FACE_BOUND('',#780,.T.);
#855=FACE_BOUND('',#781,.T.);
#856=FACE_BOUND('',#782,.T.);
#857=FACE_BOUND('',#783,.T.);
#858=FACE_BOUND('',#784,.T.);
#859=FACE_BOUND('',#785,.T.);
#860=FACE_BOUND('',#786,.T.);
#861=FACE_BOUND('',#787,.T.);
#862=FACE_BOUND('',#788,.T.);
#863=FACE_BOUND('',#789,.T.);
#864=FACE_BOUND('',#790,.T.);
#865=FACE_BOUND('',#791,.T.);
#866=FACE_BOUND('',#792,.T.);
#867=FACE_BOUND('',#793,.T.);
#868=FACE_BOUND('',#794,.T.);
#869=FACE_BOUND('',#795,.T.);
#870=FACE_BOUND('',#796,.T.);
#871=FACE_BOUND('',#797,.T.);
#872=FACE_BOUND('',#798,.T.);
#873=FACE_BOUND('',#799,.T.);
#874=FACE_BOUND('',#800,.T.);
#875=FACE_BOUND('',#801,.T.);
#876=FACE_BOUND('',#802,.T.);
#877=FACE_BOUND('',#803,.T.);
#878=FACE_BOUND('',#804,.T.);
#879=FACE_BOUND('',#805,.T.);
#880=FACE_BOUND('',#806,.T.);
#881=FACE_BOUND('',#807,.T.);
#882=FACE_BOUND('',#808,.T.);
#883=FACE_BOUND('',#809,.T.);
#884=FACE_BOUND('',#810,.T.);
#885=FACE_BOUND('',#811,.T.);
#886=FACE_BOUND('',#812,.T.);
#887=FACE_BOUND('',#813,.T.);
#888=FACE_BOUND('',#814,.T.);
#889=FACE_BOUND('',#815,.T.);
#890=FACE_BOUND('',#816,.T.);
#891=FACE_BOUND('',#817,.T.);
#892=FACE_BOUND('',#818,.T.);
#893=FACE_BOUND('',#819,.T.);
#894=FACE_BOUND('',#820,.T.);
#895=FACE_BOUND('',#821,.T.);
#896=FACE_BOUND('',#822,.T.);
#897=FACE_BOUND('',#823,.T.);
#898=PLANE('',#1017);
#899=PLANE('',#1018);
#900=PLANE('',#1019);
#901=PLANE('',#1020);
#902=PLANE('',#1021);
#903=PLANE('',#1022);
#904=PLANE('',#1023);
#905=PLANE('',#1024);
#906=PLANE('',#1025);
#907=PLANE('',#1026);
#908=PLANE('',#1027);
#909=PLANE('',#1028);
#910=PLANE('',#1033);
#911=PLANE('',#1034);
#912=PLANE('',#1035);
#913=PLANE('',#1036);
#914=PLANE('',#1037);
#915=PLANE('',#1038);
#916=PLANE('',#1039);
#917=PLANE('',#1040);
#918=PLANE('',#1041);
#919=PLANE('',#1042);
#920=PLANE('',#1043);
#921=PLANE('',#1045);
#922=PLANE('',#1046);
#923=PLANE('',#1049);
#924=PLANE('',#1050);
#925=PLANE('',#1051);
#926=PLANE('',#1055);
#927=PLANE('',#1056);
#928=PLANE('',#1057);
#929=PLANE('',#1058);
#930=PLANE('',#1059);
#931=PLANE('',#1060);
#932=PLANE('',#1062);
#933=PLANE('',#1063);
#934=PLANE('',#1066);
#935=PLANE('',#1067);
#936=PLANE('',#1068);
#937=PLANE('',#1069);
#938=PLANE('',#1070);
#939=PLANE('',#1072);
#940=PLANE('',#1075);
#941=PLANE('',#1076);
#942=PLANE('',#1079);
#943=PLANE('',#1082);
#944=PLANE('',#1085);
#945=PLANE('',#1088);
#946=ADVANCED_FACE('',(#824),#898,.F.);
#947=ADVANCED_FACE('',(#825),#899,.F.);
#948=ADVANCED_FACE('',(#826),#900,.T.);
#949=ADVANCED_FACE('',(#827),#901,.T.);
#950=ADVANCED_FACE('',(#828,#829),#902,.F.);
#951=ADVANCED_FACE('',(#830),#903,.F.);
#952=ADVANCED_FACE('',(#831),#904,.T.);
#953=ADVANCED_FACE('',(#832),#905,.T.);
#954=ADVANCED_FACE('',(#833),#906,.F.);
#955=ADVANCED_FACE('',(#834),#907,.T.);
#956=ADVANCED_FACE('',(#835),#908,.T.);
#957=ADVANCED_FACE('',(#836,#837,#838,#839,#840,#841),#909,.T.);
#958=ADVANCED_FACE('',(#842),#910,.T.);
#959=ADVANCED_FACE('',(#843),#911,.F.);
#960=ADVANCED_FACE('',(#844),#912,.F.);
#961=ADVANCED_FACE('',(#845),#913,.T.);
#962=ADVANCED_FACE('',(#846),#914,.T.);
#963=ADVANCED_FACE('',(#847),#915,.F.);
#964=ADVANCED_FACE('',(#848),#916,.F.);
#965=ADVANCED_FACE('',(#849),#917,.T.);
#966=ADVANCED_FACE('',(#850),#918,.F.);
#967=ADVANCED_FACE('',(#851),#919,.F.);
#968=ADVANCED_FACE('',(#852,#853),#920,.T.);
#969=ADVANCED_FACE('',(#854),#921,.F.);
#970=ADVANCED_FACE('',(#855),#922,.T.);
#971=ADVANCED_FACE('',(#856,#857),#16,.F.);
#972=ADVANCED_FACE('',(#858),#923,.T.);
#973=ADVANCED_FACE('',(#859),#924,.T.);
#974=ADVANCED_FACE('',(#860),#925,.F.);
#975=ADVANCED_FACE('',(#861,#862),#17,.F.);
#976=ADVANCED_FACE('',(#863),#926,.T.);
#977=ADVANCED_FACE('',(#864,#865),#927,.T.);
#978=ADVANCED_FACE('',(#866),#928,.T.);
#979=ADVANCED_FACE('',(#867),#929,.F.);
#980=ADVANCED_FACE('',(#868),#930,.F.);
#981=ADVANCED_FACE('',(#869,#870),#931,.T.);
#982=ADVANCED_FACE('',(#871),#932,.T.);
#983=ADVANCED_FACE('',(#872),#933,.F.);
#984=ADVANCED_FACE('',(#873,#874),#18,.F.);
#985=ADVANCED_FACE('',(#875),#934,.T.);
#986=ADVANCED_FACE('',(#876),#935,.T.);
#987=ADVANCED_FACE('',(#877),#936,.F.);
#988=ADVANCED_FACE('',(#878),#937,.T.);
#989=ADVANCED_FACE('',(#879,#880),#938,.T.);
#990=ADVANCED_FACE('',(#881),#939,.F.);
#991=ADVANCED_FACE('',(#882,#883),#19,.F.);
#992=ADVANCED_FACE('',(#884),#940,.T.);
#993=ADVANCED_FACE('',(#885),#941,.T.);
#994=ADVANCED_FACE('',(#886,#887),#20,.F.);
#995=ADVANCED_FACE('',(#888),#942,.T.);
#996=ADVANCED_FACE('',(#889,#890),#21,.F.);
#997=ADVANCED_FACE('',(#891),#943,.T.);
#998=ADVANCED_FACE('',(#892,#893),#22,.F.);
#999=ADVANCED_FACE('',(#894),#944,.T.);
#1000=ADVANCED_FACE('',(#895,#896),#23,.F.);
#1001=ADVANCED_FACE('',(#897),#945,.T.);
#1002=CLOSED_SHELL('',(#946,#947,#948,#949,#950,#951,#952,#953,#954,#955,
#956,#957,#958,#959,#960,#961,#962,#963,#964,#965,#966,#967,#968,#969,#970,
#971,#972,#973,#974,#975,#976,#977,#978,#979,#980,#981,#982,#983,#984,#985,
#986,#987,#988,#989,#990,#991,#992,#993,#994,#995,#996,#997,#998,#999,#1000,
#1001));
#1003=STYLED_ITEM('',(#1004),#1011);
#1004=PRESENTATION_STYLE_ASSIGNMENT((#1005));
#1005=SURFACE_STYLE_USAGE(.BOTH.,#1006);
#1006=SURFACE_SIDE_STYLE('',(#1007));
#1007=SURFACE_STYLE_FILL_AREA(#1008);
#1008=FILL_AREA_STYLE('',(#1009));
#1009=FILL_AREA_STYLE_COLOUR('',#1010);
#1010=COLOUR_RGB('',0.615686274509804,0.811764705882353,0.929411764705882);
#1011=MANIFOLD_SOLID_BREP('Part 1',#1002);
#1012=SHAPE_DEFINITION_REPRESENTATION(#1640,#1014);
#1013=SHAPE_DEFINITION_REPRESENTATION(#1641,#1015);
#1014=SHAPE_REPRESENTATION('Case',(#1016,#1089),#1633);
#1015=SHAPE_REPRESENTATION('Part 1',(#1016),#1634);
#1016=AXIS2_PLACEMENT_3D('',#1352,#1090,#1091);
#1017=AXIS2_PLACEMENT_3D('',#1353,#1092,#1093);
#1018=AXIS2_PLACEMENT_3D('',#1370,#1102,#1103);
#1019=AXIS2_PLACEMENT_3D('',#1387,#1112,#1113);
#1020=AXIS2_PLACEMENT_3D('',#1431,#1137,#1138);
#1021=AXIS2_PLACEMENT_3D('',#1441,#1144,#1145);
#1022=AXIS2_PLACEMENT_3D('',#1458,#1154,#1155);
#1023=AXIS2_PLACEMENT_3D('',#1464,#1159,#1160);
#1024=AXIS2_PLACEMENT_3D('',#1470,#1164,#1165);
#1025=AXIS2_PLACEMENT_3D('',#1473,#1168,#1169);
#1026=AXIS2_PLACEMENT_3D('',#1474,#1170,#1171);
#1027=AXIS2_PLACEMENT_3D('',#1478,#1174,#1175);
#1028=AXIS2_PLACEMENT_3D('',#1491,#1183,#1184);
#1029=AXIS2_PLACEMENT_3D('',#1492,#1185,#1186);
#1030=AXIS2_PLACEMENT_3D('',#1494,#1187,#1188);
#1031=AXIS2_PLACEMENT_3D('',#1496,#1189,#1190);
#1032=AXIS2_PLACEMENT_3D('',#1498,#1191,#1192);
#1033=AXIS2_PLACEMENT_3D('',#1506,#1197,#1198);
#1034=AXIS2_PLACEMENT_3D('',#1510,#1201,#1202);
#1035=AXIS2_PLACEMENT_3D('',#1514,#1205,#1206);
#1036=AXIS2_PLACEMENT_3D('',#1519,#1210,#1211);
#1037=AXIS2_PLACEMENT_3D('',#1520,#1212,#1213);
#1038=AXIS2_PLACEMENT_3D('',#1523,#1216,#1217);
#1039=AXIS2_PLACEMENT_3D('',#1525,#1219,#1220);
#1040=AXIS2_PLACEMENT_3D('',#1527,#1222,#1223);
#1041=AXIS2_PLACEMENT_3D('',#1533,#1227,#1228);
#1042=AXIS2_PLACEMENT_3D('',#1539,#1232,#1233);
#1043=AXIS2_PLACEMENT_3D('',#1543,#1236,#1237);
#1044=AXIS2_PLACEMENT_3D('',#1544,#1238,#1239);
#1045=AXIS2_PLACEMENT_3D('',#1549,#1243,#1244);
#1046=AXIS2_PLACEMENT_3D('',#1550,#1245,#1246);
#1047=AXIS2_PLACEMENT_3D('',#1551,#1247,#1248);
#1048=AXIS2_PLACEMENT_3D('',#1552,#1249,#1250);
#1049=AXIS2_PLACEMENT_3D('',#1554,#1251,#1252);
#1050=AXIS2_PLACEMENT_3D('',#1555,#1253,#1254);
#1051=AXIS2_PLACEMENT_3D('',#1559,#1257,#1258);
#1052=AXIS2_PLACEMENT_3D('',#1563,#1261,#1262);
#1053=AXIS2_PLACEMENT_3D('',#1564,#1263,#1264);
#1054=AXIS2_PLACEMENT_3D('',#1566,#1265,#1266);
#1055=AXIS2_PLACEMENT_3D('',#1568,#1267,#1268);
#1056=AXIS2_PLACEMENT_3D('',#1570,#1270,#1271);
#1057=AXIS2_PLACEMENT_3D('',#1571,#1272,#1273);
#1058=AXIS2_PLACEMENT_3D('',#1572,#1274,#1275);
#1059=AXIS2_PLACEMENT_3D('',#1576,#1278,#1279);
#1060=AXIS2_PLACEMENT_3D('',#1580,#1282,#1283);
#1061=AXIS2_PLACEMENT_3D('',#1581,#1284,#1285);
#1062=AXIS2_PLACEMENT_3D('',#1588,#1289,#1290);
#1063=AXIS2_PLACEMENT_3D('',#1590,#1292,#1293);
#1064=AXIS2_PLACEMENT_3D('',#1592,#1295,#1296);
#1065=AXIS2_PLACEMENT_3D('',#1593,#1297,#1298);
#1066=AXIS2_PLACEMENT_3D('',#1595,#1299,#1300);
#1067=AXIS2_PLACEMENT_3D('',#1596,#1301,#1302);
#1068=AXIS2_PLACEMENT_3D('',#1597,#1303,#1304);
#1069=AXIS2_PLACEMENT_3D('',#1601,#1307,#1308);
#1070=AXIS2_PLACEMENT_3D('',#1605,#1311,#1312);
#1071=AXIS2_PLACEMENT_3D('',#1606,#1313,#1314);
#1072=AXIS2_PLACEMENT_3D('',#1609,#1316,#1317);
#1073=AXIS2_PLACEMENT_3D('',#1610,#1318,#1319);
#1074=AXIS2_PLACEMENT_3D('',#1611,#1320,#1321);
#1075=AXIS2_PLACEMENT_3D('',#1613,#1322,#1323);
#1076=AXIS2_PLACEMENT_3D('',#1614,#1324,#1325);
#1077=AXIS2_PLACEMENT_3D('',#1615,#1326,#1327);
#1078=AXIS2_PLACEMENT_3D('',#1616,#1328,#1329);
#1079=AXIS2_PLACEMENT_3D('',#1618,#1330,#1331);
#1080=AXIS2_PLACEMENT_3D('',#1619,#1332,#1333);
#1081=AXIS2_PLACEMENT_3D('',#1620,#1334,#1335);
#1082=AXIS2_PLACEMENT_3D('',#1622,#1336,#1337);
#1083=AXIS2_PLACEMENT_3D('',#1623,#1338,#1339);
#1084=AXIS2_PLACEMENT_3D('',#1624,#1340,#1341);
#1085=AXIS2_PLACEMENT_3D('',#1626,#1342,#1343);
#1086=AXIS2_PLACEMENT_3D('',#1627,#1344,#1345);
#1087=AXIS2_PLACEMENT_3D('',#1628,#1346,#1347);
#1088=AXIS2_PLACEMENT_3D('',#1630,#1348,#1349);
#1089=AXIS2_PLACEMENT_3D('',#1631,#1350,#1351);
#1090=DIRECTION('',(0.,0.,1.));
#1091=DIRECTION('',(1.,0.,0.));
#1092=DIRECTION('',(1.56811161670214E-16,-1.,0.));
#1093=DIRECTION('',(1.,1.56811161670214E-16,0.));
#1094=DIRECTION('',(0.,0.,-1.));
#1095=DIRECTION('',(-1.,-1.56811161670214E-16,0.));
#1096=DIRECTION('',(0.,0.,-1.));
#1097=DIRECTION('',(1.,1.32801797203962E-16,0.));
#1098=DIRECTION('',(0.,0.,-1.));
#1099=DIRECTION('',(1.,1.32801797203962E-16,0.));
#1100=DIRECTION('',(0.,0.,-1.));
#1101=DIRECTION('',(-1.,-1.56811161670214E-16,0.));
#1102=DIRECTION('',(1.,0.,0.));
#1103=DIRECTION('',(0.,0.,-1.));
#1104=DIRECTION('',(0.,0.,-1.));
#1105=DIRECTION('',(0.,-1.,0.));
#1106=DIRECTION('',(0.,0.,-1.));
#1107=DIRECTION('',(0.,-1.,0.));
#1108=DIRECTION('',(0.,0.,-1.));
#1109=DIRECTION('',(0.,-1.,0.));
#1110=DIRECTION('',(0.,0.,-1.));
#1111=DIRECTION('',(0.,-1.,0.));
#1112=DIRECTION('',(0.,0.,1.));
#1113=DIRECTION('',(1.,0.,0.));
#1114=DIRECTION('',(0.,-1.,0.));
#1115=DIRECTION('',(1.,0.,0.));
#1116=DIRECTION('',(0.,1.,0.));
#1117=DIRECTION('',(-1.,0.,0.));
#1118=DIRECTION('',(0.,1.,0.));
#1119=DIRECTION('',(-1.,-1.96848054011552E-16,0.));
#1120=DIRECTION('',(0.,1.,0.));
#1121=DIRECTION('',(1.,0.,0.));
#1122=DIRECTION('',(0.,1.,0.));
#1123=DIRECTION('',(0.,1.,0.));
#1124=DIRECTION('',(-1.,0.,0.));
#1125=DIRECTION('',(0.,1.,0.));
#1126=DIRECTION('',(-1.,0.,0.));
#1127=DIRECTION('',(0.,1.,0.));
#1128=DIRECTION('',(-1.,0.,0.));
#1129=DIRECTION('',(-1.,0.,0.));
#1130=DIRECTION('',(0.,-1.,0.));
#1131=DIRECTION('',(-1.,0.,0.));
#1132=DIRECTION('',(-1.,-1.1760837125266E-16,0.));
#1133=DIRECTION('',(0.,-1.,0.));
#1134=DIRECTION('',(1.,0.,0.));
#1135=DIRECTION('',(0.,-1.,0.));
#1136=DIRECTION('',(1.,0.,0.));
#1137=DIRECTION('',(-1.,0.,0.));
#1138=DIRECTION('',(0.,0.,1.));
#1139=DIRECTION('',(0.,1.,0.));
#1140=DIRECTION('',(0.,0.,-1.));
#1141=DIRECTION('',(0.,0.,-1.));
#1142=DIRECTION('',(0.,1.,0.));
#1143=DIRECTION('',(0.,0.,-1.));
#1144=DIRECTION('',(-1.32801797203962E-16,1.,0.));
#1145=DIRECTION('',(-1.,-1.32801797203962E-16,0.));
#1146=DIRECTION('',(1.,1.32801797203962E-16,0.));
#1147=DIRECTION('',(0.,0.,-1.));
#1148=DIRECTION('',(1.,1.32801797203962E-16,0.));
#1149=DIRECTION('',(0.,0.,-1.));
#1150=DIRECTION('',(-1.,-1.32801797203962E-16,0.));
#1151=DIRECTION('',(0.,0.,1.));
#1152=DIRECTION('',(-1.,-1.32801797203962E-16,0.));
#1153=DIRECTION('',(0.,0.,1.));
#1154=DIRECTION('',(-1.,-3.808342207143E-16,0.));
#1155=DIRECTION('',(3.808342207143E-16,-1.,0.));
#1156=DIRECTION('',(3.808342207143E-16,-1.,0.));
#1157=DIRECTION('',(3.808342207143E-16,-1.,0.));
#1158=DIRECTION('',(0.,0.,1.));
#1159=DIRECTION('',(-1.32801797203962E-16,1.,0.));
#1160=DIRECTION('',(-1.,-1.32801797203962E-16,0.));
#1161=DIRECTION('',(0.,0.,1.));
#1162=DIRECTION('',(-1.,-1.32801797203962E-16,0.));
#1163=DIRECTION('',(-1.,-1.32801797203962E-16,0.));
#1164=DIRECTION('',(-1.,-2.85625665535726E-16,0.));
#1165=DIRECTION('',(2.85625665535726E-16,-1.,0.));
#1166=DIRECTION('',(2.85625665535726E-16,-1.,0.));
#1167=DIRECTION('',(2.85625665535726E-16,-1.,0.));
#1168=DIRECTION('',(0.,0.,1.));
#1169=DIRECTION('',(1.,0.,0.));
#1170=DIRECTION('',(1.1760837125266E-16,-1.,0.));
#1171=DIRECTION('',(1.,1.1760837125266E-16,0.));
#1172=DIRECTION('',(-1.,-1.1760837125266E-16,0.));
#1173=DIRECTION('',(0.,0.,-1.));
#1174=DIRECTION('',(1.,0.,0.));
#1175=DIRECTION('',(0.,0.,-1.));
#1176=DIRECTION('',(0.,0.,1.));
#1177=DIRECTION('',(0.,0.,1.));
#1178=DIRECTION('',(0.,-1.,0.));
#1179=DIRECTION('',(0.,0.,1.));
#1180=DIRECTION('',(0.,-1.,0.));
#1181=DIRECTION('',(0.,0.,1.));
#1182=DIRECTION('',(0.,-1.,0.));
#1183=DIRECTION('',(0.,0.,1.));
#1184=DIRECTION('',(1.,0.,0.));
#1185=DIRECTION('',(0.,0.,1.));
#1186=DIRECTION('',(1.,0.,0.));
#1187=DIRECTION('',(0.,0.,1.));
#1188=DIRECTION('',(1.,0.,0.));
#1189=DIRECTION('',(0.,0.,1.));
#1190=DIRECTION('',(1.,0.,0.));
#1191=DIRECTION('',(0.,0.,1.));
#1192=DIRECTION('',(1.,0.,0.));
#1193=DIRECTION('',(0.,1.,0.));
#1194=DIRECTION('',(1.,0.,0.));
#1195=DIRECTION('',(-1.,0.,0.));
#1196=DIRECTION('',(0.,1.,0.));
#1197=DIRECTION('',(1.96848054011552E-16,-1.,0.));
#1198=DIRECTION('',(1.,1.96848054011552E-16,0.));
#1199=DIRECTION('',(0.,0.,-1.));
#1200=DIRECTION('',(-1.,-1.96848054011552E-16,0.));
#1201=DIRECTION('',(-1.,0.,0.));
#1202=DIRECTION('',(0.,0.,1.));
#1203=DIRECTION('',(0.,0.,-1.));
#1204=DIRECTION('',(0.,1.,0.));
#1205=DIRECTION('',(0.,-1.,0.));
#1206=DIRECTION('',(0.,0.,-1.));
#1207=DIRECTION('',(0.,0.,-1.));
#1208=DIRECTION('',(-1.,0.,0.));
#1209=DIRECTION('',(-1.,0.,0.));
#1210=DIRECTION('',(0.,0.,1.));
#1211=DIRECTION('',(1.,0.,0.));
#1212=DIRECTION('',(0.,0.,-1.));
#1213=DIRECTION('',(-1.,0.,0.));
#1214=DIRECTION('',(1.32801797203962E-16,-1.,0.));
#1215=DIRECTION('',(1.32801797203962E-16,-1.,0.));
#1216=DIRECTION('',(-1.,-1.32801797203962E-16,0.));
#1217=DIRECTION('',(1.32801797203962E-16,-1.,0.));
#1218=DIRECTION('',(1.32801797203962E-16,-1.,0.));
#1219=DIRECTION('',(0.,0.,-1.));
#1220=DIRECTION('',(-1.,0.,0.));
#1221=DIRECTION('',(1.32801797203962E-16,-1.,0.));
#1222=DIRECTION('',(-1.,-1.32801797203962E-16,0.));
#1223=DIRECTION('',(1.32801797203962E-16,-1.,0.));
#1224=DIRECTION('',(0.,0.,-1.));
#1225=DIRECTION('',(0.,-1.,0.));
#1226=DIRECTION('',(0.,0.,-1.));
#1227=DIRECTION('',(-1.,0.,0.));
#1228=DIRECTION('',(0.,0.,1.));
#1229=DIRECTION('',(0.,0.,1.));
#1230=DIRECTION('',(0.,-1.,0.));
#1231=DIRECTION('',(0.,0.,-1.));
#1232=DIRECTION('',(-1.,0.,0.));
#1233=DIRECTION('',(0.,0.,1.));
#1234=DIRECTION('',(0.,1.,0.));
#1235=DIRECTION('',(0.,0.,-1.));
#1236=DIRECTION('',(0.,0.,1.));
#1237=DIRECTION('',(1.,0.,0.));
#1238=DIRECTION('',(0.,0.,1.));
#1239=DIRECTION('',(1.,0.,0.));
#1240=DIRECTION('',(1.,0.,0.));
#1241=DIRECTION('',(-1.,0.,0.));
#1242=DIRECTION('',(1.,0.,0.));
#1243=DIRECTION('',(0.,1.,0.));
#1244=DIRECTION('',(0.,0.,1.));
#1245=DIRECTION('',(0.,1.,0.));
#1246=DIRECTION('',(0.,0.,1.));
#1247=DIRECTION('',(0.,0.,-1.));
#1248=DIRECTION('',(-1.,0.,0.));
#1249=DIRECTION('',(0.,0.,1.));
#1250=DIRECTION('',(1.,0.,0.));
#1251=DIRECTION('',(0.,1.,0.));
#1252=DIRECTION('',(0.,0.,1.));
#1253=DIRECTION('',(0.,1.,0.));
#1254=DIRECTION('',(0.,0.,1.));
#1255=DIRECTION('',(1.,0.,0.));
#1256=DIRECTION('',(0.,0.,-1.));
#1257=DIRECTION('',(0.,1.,0.));
#1258=DIRECTION('',(0.,0.,1.));
#1259=DIRECTION('',(0.,0.,-1.));
#1260=DIRECTION('',(1.,0.,0.));
#1261=DIRECTION('',(0.,0.,-1.));
#1262=DIRECTION('',(-1.,0.,0.));
#1263=DIRECTION('',(0.,0.,1.));
#1264=DIRECTION('',(1.,0.,0.));
#1265=DIRECTION('',(0.,0.,1.));
#1266=DIRECTION('',(1.,0.,0.));
#1267=DIRECTION('',(1.,0.,0.));
#1268=DIRECTION('',(0.,0.,-1.));
#1269=DIRECTION('',(0.,-1.,0.));
#1270=DIRECTION('',(0.,0.,1.));
#1271=DIRECTION('',(1.,0.,0.));
#1272=DIRECTION('',(0.,0.,1.));
#1273=DIRECTION('',(1.,0.,0.));
#1274=DIRECTION('',(0.,-1.,0.));
#1275=DIRECTION('',(0.,0.,-1.));
#1276=DIRECTION('',(0.,0.,1.));
#1277=DIRECTION('',(1.,0.,0.));
#1278=DIRECTION('',(-1.,0.,0.));
#1279=DIRECTION('',(0.,0.,1.));
#1280=DIRECTION('',(0.,0.,-1.));
#1281=DIRECTION('',(0.,1.,0.));
#1282=DIRECTION('',(0.,0.,1.));
#1283=DIRECTION('',(1.,0.,0.));
#1284=DIRECTION('',(0.,0.,1.));
#1285=DIRECTION('',(1.,0.,0.));
#1286=DIRECTION('',(-1.,0.,0.));
#1287=DIRECTION('',(0.,1.,0.));
#1288=DIRECTION('',(-1.,0.,0.));
#1289=DIRECTION('',(0.,-1.,0.));
#1290=DIRECTION('',(0.,0.,-1.));
#1291=DIRECTION('',(0.,0.,-1.));
#1292=DIRECTION('',(0.,-1.,0.));
#1293=DIRECTION('',(0.,0.,-1.));
#1294=DIRECTION('',(0.,0.,-1.));
#1295=DIRECTION('',(0.,0.,-1.));
#1296=DIRECTION('',(-1.,0.,0.));
#1297=DIRECTION('',(0.,0.,1.));
#1298=DIRECTION('',(1.,0.,0.));
#1299=DIRECTION('',(-1.,0.,0.));
#1300=DIRECTION('',(0.,0.,1.));
#1301=DIRECTION('',(0.,0.,1.));
#1302=DIRECTION('',(1.,0.,0.));
#1303=DIRECTION('',(0.,-1.,0.));
#1304=DIRECTION('',(0.,0.,-1.));
#1305=DIRECTION('',(-1.,0.,0.));
#1306=DIRECTION('',(0.,0.,-1.));
#1307=DIRECTION('',(0.,-1.,0.));
#1308=DIRECTION('',(0.,0.,-1.));
#1309=DIRECTION('',(-1.,0.,0.));
#1310=DIRECTION('',(0.,0.,-1.));
#1311=DIRECTION('',(0.,0.,1.));
#1312=DIRECTION('',(1.,0.,0.));
#1313=DIRECTION('',(0.,0.,1.));
#1314=DIRECTION('',(1.,0.,0.));
#1315=DIRECTION('',(0.,-1.,0.));
#1316=DIRECTION('',(1.,0.,0.));
#1317=DIRECTION('',(0.,0.,-1.));
#1318=DIRECTION('',(0.,0.,-1.));
#1319=DIRECTION('',(-1.,0.,0.));
#1320=DIRECTION('',(0.,0.,1.));
#1321=DIRECTION('',(1.,0.,0.));
#1322=DIRECTION('',(0.,0.,1.));
#1323=DIRECTION('',(1.,0.,0.));
#1324=DIRECTION('',(0.,0.,1.));
#1325=DIRECTION('',(1.,0.,0.));
#1326=DIRECTION('',(0.,0.,1.));
#1327=DIRECTION('',(1.,0.,0.));
#1328=DIRECTION('',(0.,0.,1.));
#1329=DIRECTION('',(1.,0.,0.));
#1330=DIRECTION('',(0.,0.,1.));
#1331=DIRECTION('',(1.,0.,0.));
#1332=DIRECTION('',(0.,0.,1.));
#1333=DIRECTION('',(1.,0.,0.));
#1334=DIRECTION('',(0.,0.,1.));
#1335=DIRECTION('',(1.,0.,0.));
#1336=DIRECTION('',(0.,0.,1.));
#1337=DIRECTION('',(1.,0.,0.));
#1338=DIRECTION('',(0.,0.,1.));
#1339=DIRECTION('',(1.,0.,0.));
#1340=DIRECTION('',(0.,0.,1.));
#1341=DIRECTION('',(1.,0.,0.));
#1342=DIRECTION('',(0.,0.,1.));
#1343=DIRECTION('',(1.,0.,0.));
#1344=DIRECTION('',(0.,0.,1.));
#1345=DIRECTION('',(1.,0.,0.));
#1346=DIRECTION('',(0.,0.,1.));
#1347=DIRECTION('',(1.,0.,0.));
#1348=DIRECTION('',(0.,0.,1.));
#1349=DIRECTION('',(1.,0.,0.));
#1350=DIRECTION('',(0.,0.,1.));
#1351=DIRECTION('',(1.,0.,0.));
#1352=CARTESIAN_POINT('',(0.,0.,0.));
#1353=CARTESIAN_POINT('',(0.00198598749339638,-0.0372715828481317,0.033));
#1354=CARTESIAN_POINT('',(-0.0357042178511619,-0.0372715828481317,0.033));
#1355=CARTESIAN_POINT('',(-0.0357042178511619,-0.0372715828481317,0.033));
#1356=CARTESIAN_POINT('',(-0.0357042178511619,-0.0372715828481317,0.));
#1357=CARTESIAN_POINT('',(0.00198598749339638,-0.0372715828481317,0.033));
#1358=CARTESIAN_POINT('',(0.0390609874933958,-0.0372715828481317,0.033));
#1359=CARTESIAN_POINT('',(0.0390609874933958,-0.0372715828481317,0.033));
#1360=CARTESIAN_POINT('',(0.0390609874933958,-0.0372715828481317,0.0240746484472846));
#1361=CARTESIAN_POINT('',(0.00478303290768593,-0.0372715828481317,0.0240746484472846));
#1362=CARTESIAN_POINT('',(-0.0294949216780239,-0.0372715828481317,0.0240746484472846));
#1363=CARTESIAN_POINT('',(-0.0294949216780239,-0.0372715828481317,0.0136193560596343));
#1364=CARTESIAN_POINT('',(-0.0294949216780239,-0.0372715828481317,0.00316406367198397));
#1365=CARTESIAN_POINT('',(0.00478303290768593,-0.0372715828481317,0.00316406367198397));
#1366=CARTESIAN_POINT('',(0.0390609874933958,-0.0372715828481317,0.00316406367198397));
#1367=CARTESIAN_POINT('',(0.0390609874933958,-0.0372715828481317,0.033));
#1368=CARTESIAN_POINT('',(0.0390609874933958,-0.0372715828481317,0.));
#1369=CARTESIAN_POINT('',(0.00198598749339638,-0.0372715828481317,0.));
#1370=CARTESIAN_POINT('',(0.0462359874933981,-0.00633108708127282,0.033));
#1371=CARTESIAN_POINT('',(0.0462359874933981,0.0237133914679289,0.033));
#1372=CARTESIAN_POINT('',(0.0462359874933981,0.0237133914679289,0.025));
#1373=CARTESIAN_POINT('',(0.0462359874933981,0.0237133914679289,0.));
#1374=CARTESIAN_POINT('',(0.0462359874933981,-0.00633108708127282,0.025));
#1375=CARTESIAN_POINT('',(0.0462359874933981,0.0147133914679289,0.025));
#1376=CARTESIAN_POINT('',(0.0462359874933981,0.0147133914679289,0.033));
#1377=CARTESIAN_POINT('',(0.0462359874933981,0.0147133914679289,0.));
#1378=CARTESIAN_POINT('',(0.0462359874933981,-0.00633108708127282,0.));
#1379=CARTESIAN_POINT('',(0.0462359874933981,-0.0237115828481317,0.));
#1380=CARTESIAN_POINT('',(0.0462359874933981,-0.0237115828481317,0.033));
#1381=CARTESIAN_POINT('',(0.0462359874933981,-0.0237115828481317,0.033));
#1382=CARTESIAN_POINT('',(0.0462359874933981,-0.00633108708127282,0.033));
#1383=CARTESIAN_POINT('',(0.0462359874933981,0.024609408685586,0.033));
#1384=CARTESIAN_POINT('',(0.0462359874933981,0.024609408685586,0.033));
#1385=CARTESIAN_POINT('',(0.0462359874933981,0.024609408685586,0.));
#1386=CARTESIAN_POINT('',(0.0462359874933981,-0.00633108708127282,0.));
#1387=CARTESIAN_POINT('',(0.00198598749339636,-0.00383108708127283,0.));
#1388=CARTESIAN_POINT('',(-0.0422640125066054,-0.00633108708127282,0.));
#1389=CARTESIAN_POINT('',(-0.0422640125066054,0.0152606012225151,0.));
#1390=CARTESIAN_POINT('',(-0.0422640125066054,-0.0152399556636811,0.));
#1391=CARTESIAN_POINT('',(-0.0383249036967755,-0.0152399556636811,0.));
#1392=CARTESIAN_POINT('',(-0.0338249036967754,-0.0152399556636811,0.));
#1393=CARTESIAN_POINT('',(-0.0338249036967754,-0.019739955663681,0.));
#1394=CARTESIAN_POINT('',(-0.0338249036967754,-0.0237115828481317,0.));
#1395=CARTESIAN_POINT('',(-0.000259012506604192,-0.0237115828481317,0.));
#1396=CARTESIAN_POINT('',(0.0349909874933958,-0.0237115828481317,0.));
#1397=CARTESIAN_POINT('',(0.0349909874933958,-0.0282115828481317,0.));
#1398=CARTESIAN_POINT('',(0.0349909874933958,-0.0327115828481317,0.));
#1399=CARTESIAN_POINT('',(-0.000259012506604192,-0.0327115828481317,0.));
#1400=CARTESIAN_POINT('',(-0.0355090125066042,-0.0327115828481317,0.));
#1401=CARTESIAN_POINT('',(-0.0355090125066042,-0.0282115828481317,0.));
#1402=CARTESIAN_POINT('',(-0.0355090125066042,-0.0242399556636811,0.));
#1403=CARTESIAN_POINT('',(-0.0383249036967755,-0.0242399556636811,0.));
#1404=CARTESIAN_POINT('',(-0.0357042178511619,-0.0242399556636811,0.));
#1405=CARTESIAN_POINT('',(-0.0357042178511619,-0.0320061542199552,0.));
#1406=CARTESIAN_POINT('',(0.0390609874933958,-0.0319915828481317,0.));
#1407=CARTESIAN_POINT('',(0.0390609874933958,-0.0242344198822975,0.));
#1408=CARTESIAN_POINT('',(0.0422757687926293,-0.0242344198822975,0.));
#1409=CARTESIAN_POINT('',(0.0383757687926293,-0.0242344198822975,0.));
#1410=CARTESIAN_POINT('',(0.0383757687926293,-0.0197344198822975,0.));
#1411=CARTESIAN_POINT('',(0.0383757687926293,-0.0152344198822975,0.));
#1412=CARTESIAN_POINT('',(0.0422757687926293,-0.0152344198822975,0.));
#1413=CARTESIAN_POINT('',(0.0461757687926293,-0.0152344198822975,0.));
#1414=CARTESIAN_POINT('',(0.0461757687926293,-0.0197344198822975,0.));
#1415=CARTESIAN_POINT('',(0.0461757687926293,-0.0237115828481317,0.));
#1416=CARTESIAN_POINT('',(0.0466484874933969,-0.0237115828481317,0.));
#1417=CARTESIAN_POINT('',(0.0418349094688893,0.0147133914679289,0.));
#1418=CARTESIAN_POINT('',(0.0373349094688892,0.0147133914679289,0.));
#1419=CARTESIAN_POINT('',(0.0373349094688892,0.0192133914679289,0.));
#1420=CARTESIAN_POINT('',(0.0373349094688892,0.0237133914679289,0.));
#1421=CARTESIAN_POINT('',(0.0418349094688893,0.0237133914679289,0.));
#1422=CARTESIAN_POINT('',(0.00198598749339636,0.024609408685586,0.));
#1423=CARTESIAN_POINT('',(-0.0422640125066054,0.024609408685586,0.));
#1424=CARTESIAN_POINT('',(-0.0422640125066054,-0.00633108708127282,0.));
#1425=CARTESIAN_POINT('',(-0.0422640125066054,0.0242606012225151,0.));
#1426=CARTESIAN_POINT('',(-0.0378250181674958,0.0242606012225151,0.));
#1427=CARTESIAN_POINT('',(-0.0333250181674958,0.0242606012225151,0.));
#1428=CARTESIAN_POINT('',(-0.0333250181674958,0.0197606012225151,0.));
#1429=CARTESIAN_POINT('',(-0.0333250181674958,0.0152606012225151,0.));
#1430=CARTESIAN_POINT('',(-0.0378250181674958,0.0152606012225151,0.));
#1431=CARTESIAN_POINT('',(-0.0355090125066042,-0.0282115828481317,0.033));
#1432=CARTESIAN_POINT('',(-0.0355090125066042,-0.0282115828481317,0.025));
#1433=CARTESIAN_POINT('',(-0.0355090125066042,-0.0242399556636811,0.025));
#1434=CARTESIAN_POINT('',(-0.0355090125066042,-0.0237115828481317,0.025));
#1435=CARTESIAN_POINT('',(-0.0355090125066042,-0.0242399556636811,0.033));
#1436=CARTESIAN_POINT('',(-0.0355090125066042,-0.0327115828481317,0.033));
#1437=CARTESIAN_POINT('',(-0.0355090125066042,-0.0327115828481317,0.033));
#1438=CARTESIAN_POINT('',(-0.0355090125066042,-0.0282115828481317,0.033));
#1439=CARTESIAN_POINT('',(-0.0355090125066042,-0.0237115828481317,0.033));
#1440=CARTESIAN_POINT('',(-0.0355090125066042,-0.0237115828481317,0.033));
#1441=CARTESIAN_POINT('',(0.00198598749339636,-0.0402715828481316,-0.003));
#1442=CARTESIAN_POINT('',(0.00478303290768593,-0.0402715828481316,0.0240746484472846));
#1443=CARTESIAN_POINT('',(-0.0294949216780239,-0.0402715828481316,0.0240746484472846));
#1444=CARTESIAN_POINT('',(0.0390609874933958,-0.0402715828481316,0.0240746484472846));
#1445=CARTESIAN_POINT('',(0.0390609874933958,-0.0402715828481316,0.0136193560596343));
#1446=CARTESIAN_POINT('',(0.0390609874933958,-0.0402715828481316,0.00316406367198397));
#1447=CARTESIAN_POINT('',(0.00478303290768593,-0.0402715828481316,0.00316406367198397));
#1448=CARTESIAN_POINT('',(-0.0294949216780239,-0.0402715828481316,0.00316406367198397));
#1449=CARTESIAN_POINT('',(-0.0294949216780239,-0.0402715828481316,0.0136193560596343));
#1450=CARTESIAN_POINT('',(0.00198598749339636,-0.0402715828481316,0.033));
#1451=CARTESIAN_POINT('',(0.0542359874933981,-0.0402715828481316,0.033));
#1452=CARTESIAN_POINT('',(-0.0502640125066053,-0.0402715828481316,0.033));
#1453=CARTESIAN_POINT('',(-0.0502640125066053,-0.0402715828481316,-0.003));
#1454=CARTESIAN_POINT('',(-0.0502640125066053,-0.0402715828481316,-0.003));
#1455=CARTESIAN_POINT('',(0.00198598749339636,-0.0402715828481316,-0.003));
#1456=CARTESIAN_POINT('',(0.0542359874933981,-0.0402715828481316,-0.003));
#1457=CARTESIAN_POINT('',(0.0542359874933981,-0.0402715828481316,-0.003));
#1458=CARTESIAN_POINT('',(0.0542359874933981,-0.00383108708127282,-0.003));
#1459=CARTESIAN_POINT('',(0.0542359874933981,-0.00383108708127282,0.033));
#1460=CARTESIAN_POINT('',(0.0542359874933981,0.032609408685586,0.033));
#1461=CARTESIAN_POINT('',(0.0542359874933981,-0.00383108708127282,-0.003));
#1462=CARTESIAN_POINT('',(0.0542359874933981,0.032609408685586,-0.003));
#1463=CARTESIAN_POINT('',(0.0542359874933981,0.032609408685586,-0.003));
#1464=CARTESIAN_POINT('',(0.00198598749339635,0.032609408685586,-0.003));
#1465=CARTESIAN_POINT('',(-0.0502640125066054,0.032609408685586,-0.003));
#1466=CARTESIAN_POINT('',(-0.0502640125066054,0.032609408685586,-0.003));
#1467=CARTESIAN_POINT('',(-0.0502640125066054,0.032609408685586,0.033));
#1468=CARTESIAN_POINT('',(0.00198598749339635,0.032609408685586,0.033));
#1469=CARTESIAN_POINT('',(0.00198598749339635,0.032609408685586,-0.003));
#1470=CARTESIAN_POINT('',(-0.0502640125066053,-0.00383108708127284,-0.003));
#1471=CARTESIAN_POINT('',(-0.0502640125066053,-0.00383108708127284,0.033));
#1472=CARTESIAN_POINT('',(-0.0502640125066053,-0.00383108708127284,-0.003));
#1473=CARTESIAN_POINT('',(0.00198598749339636,-0.00383108708127283,-0.003));
#1474=CARTESIAN_POINT('',(0.00198598749339636,0.024609408685586,0.033));
#1475=CARTESIAN_POINT('',(0.00198598749339636,0.024609408685586,0.033));
#1476=CARTESIAN_POINT('',(-0.0422640125066054,0.024609408685586,0.033));
#1477=CARTESIAN_POINT('',(-0.0422640125066054,0.024609408685586,0.033));
#1478=CARTESIAN_POINT('',(-0.0422640125066054,-0.00633108708127282,0.033));
#1479=CARTESIAN_POINT('',(-0.0422640125066054,-0.0152399556636811,0.033));
#1480=CARTESIAN_POINT('',(-0.0422640125066054,-0.0152399556636811,0.025));
#1481=CARTESIAN_POINT('',(-0.0422640125066054,0.0152606012225151,0.033));
#1482=CARTESIAN_POINT('',(-0.0422640125066054,0.0152606012225151,0.025));
#1483=CARTESIAN_POINT('',(-0.0422640125066054,-0.00633108708127282,0.025));
#1484=CARTESIAN_POINT('',(-0.0422640125066054,0.0242606012225151,0.025));
#1485=CARTESIAN_POINT('',(-0.0422640125066054,0.0242606012225151,0.033));
#1486=CARTESIAN_POINT('',(-0.0422640125066054,-0.00633108708127282,0.033));
#1487=CARTESIAN_POINT('',(-0.0422640125066054,-0.0237407255917788,0.033));
#1488=CARTESIAN_POINT('',(-0.0422640125066054,-0.0237407255917788,0.033));
#1489=CARTESIAN_POINT('',(-0.0422640125066054,-0.0237407255917788,0.025));
#1490=CARTESIAN_POINT('',(-0.0422640125066054,-0.00633108708127282,0.025));
#1491=CARTESIAN_POINT('',(0.00198598749339636,-0.00383108708127283,0.033));
#1492=CARTESIAN_POINT('',(-0.0462427581832837,0.027874386421425,0.033));
#1493=CARTESIAN_POINT('',(-0.0439427581832837,0.027874386421425,0.033));
#1494=CARTESIAN_POINT('',(-0.0462427581832837,-0.0362677433829385,0.033));
#1495=CARTESIAN_POINT('',(-0.0439427581832837,-0.0362677433829385,0.033));
#1496=CARTESIAN_POINT('',(0.0500448476721699,-0.036642292694115,0.033));
#1497=CARTESIAN_POINT('',(0.0523448476721699,-0.036642292694115,0.033));
#1498=CARTESIAN_POINT('',(0.0500448476721699,0.0288273308607234,0.033));
#1499=CARTESIAN_POINT('',(0.0523448476721699,0.0288273308607234,0.033));
#1500=CARTESIAN_POINT('',(-0.0357042178511619,-0.0320061542199552,0.033));
#1501=CARTESIAN_POINT('',(-0.0357042178511619,-0.0237407255917788,0.033));
#1502=CARTESIAN_POINT('',(-0.0429841151788836,-0.0237407255917788,0.033));
#1503=CARTESIAN_POINT('',(0.0466484874933969,-0.0237115828481317,0.033));
#1504=CARTESIAN_POINT('',(0.0390609874933958,-0.0237115828481317,0.033));
#1505=CARTESIAN_POINT('',(0.0390609874933958,-0.0319915828481317,0.033));
#1506=CARTESIAN_POINT('',(-0.000259012506604192,-0.0327115828481317,0.033));
#1507=CARTESIAN_POINT('',(0.0349909874933958,-0.0327115828481317,0.033));
#1508=CARTESIAN_POINT('',(0.0349909874933958,-0.0327115828481317,0.033));
#1509=CARTESIAN_POINT('',(-0.000259012506604192,-0.0327115828481317,0.033));
#1510=CARTESIAN_POINT('',(0.0349909874933958,-0.0282115828481317,0.033));
#1511=CARTESIAN_POINT('',(0.0349909874933958,-0.0237115828481317,0.033));
#1512=CARTESIAN_POINT('',(0.0349909874933958,-0.0237115828481317,0.033));
#1513=CARTESIAN_POINT('',(0.0349909874933958,-0.0282115828481317,0.033));
#1514=CARTESIAN_POINT('',(-0.000259012506604192,-0.0237115828481317,0.033));
#1515=CARTESIAN_POINT('',(-0.0338249036967754,-0.0237115828481317,0.033));
#1516=CARTESIAN_POINT('',(-0.0338249036967754,-0.0237115828481317,0.025));
#1517=CARTESIAN_POINT('',(-0.000259012506604192,-0.0237115828481317,0.025));
#1518=CARTESIAN_POINT('',(-0.000259012506604192,-0.0237115828481317,0.033));
#1519=CARTESIAN_POINT('',(0.00198598749339638,-0.0319915828481317,0.033));
#1520=CARTESIAN_POINT('',(0.00478303290768593,-0.0372715828481317,0.0240746484472846));
#1521=CARTESIAN_POINT('',(-0.0294949216780239,-0.0372715828481317,0.0240746484472846));
#1522=CARTESIAN_POINT('',(0.0390609874933958,-0.0372715828481317,0.0240746484472846));
#1523=CARTESIAN_POINT('',(-0.0294949216780239,-0.0372715828481317,0.0136193560596343));
#1524=CARTESIAN_POINT('',(-0.0294949216780239,-0.0372715828481317,0.00316406367198397));
#1525=CARTESIAN_POINT('',(0.00478303290768593,-0.0372715828481317,0.00316406367198397));
#1526=CARTESIAN_POINT('',(0.0390609874933958,-0.0372715828481317,0.00316406367198397));
#1527=CARTESIAN_POINT('',(0.0390609874933958,-0.0372715828481317,0.0136193560596343));
#1528=CARTESIAN_POINT('',(0.0390609874933958,-0.0237115828481317,0.033));
#1529=CARTESIAN_POINT('',(0.0390609874933958,-0.0237115828481317,0.025));
#1530=CARTESIAN_POINT('',(0.0390609874933958,1.0322779417038E-5,0.025));
#1531=CARTESIAN_POINT('',(0.0390609874933958,-0.0242344198822975,0.025));
#1532=CARTESIAN_POINT('',(0.0390609874933958,-0.0242344198822975,0.025));
#1533=CARTESIAN_POINT('',(-0.0357042178511619,-0.0320061542199552,0.033));
#1534=CARTESIAN_POINT('',(-0.0357042178511619,-0.0242399556636811,0.025));
#1535=CARTESIAN_POINT('',(-0.0357042178511619,-0.0242399556636811,0.025));
#1536=CARTESIAN_POINT('',(-0.0357042178511619,1.0322779417038E-5,0.025));
#1537=CARTESIAN_POINT('',(-0.0357042178511619,-0.0237407255917788,0.025));
#1538=CARTESIAN_POINT('',(-0.0357042178511619,-0.0237407255917788,0.033));
#1539=CARTESIAN_POINT('',(-0.0338249036967754,-0.019739955663681,0.025));
#1540=CARTESIAN_POINT('',(-0.0338249036967754,-0.019739955663681,0.025));
#1541=CARTESIAN_POINT('',(-0.0338249036967754,-0.0152399556636811,0.025));
#1542=CARTESIAN_POINT('',(-0.0338249036967754,-0.0152399556636811,0.025));
#1543=CARTESIAN_POINT('',(0.0017550028860569,1.0322779417038E-5,0.025));
#1544=CARTESIAN_POINT('',(-0.0383249036967755,-0.019739955663681,0.025));
#1545=CARTESIAN_POINT('',(-0.0360249036967755,-0.019739955663681,0.025));
#1546=CARTESIAN_POINT('',(-0.0383249036967755,-0.0152399556636811,0.025));
#1547=CARTESIAN_POINT('',(0.0017550028860569,-0.0237407255917788,0.025));
#1548=CARTESIAN_POINT('',(-0.0383249036967755,-0.0242399556636811,0.025));
#1549=CARTESIAN_POINT('',(-0.0383249036967755,-0.0242399556636811,0.025));
#1550=CARTESIAN_POINT('',(-0.0383249036967755,-0.0152399556636811,0.025));
#1551=CARTESIAN_POINT('',(-0.0383249036967755,-0.019739955663681,0.025));
#1552=CARTESIAN_POINT('',(-0.0383249036967755,-0.019739955663681,0.));
#1553=CARTESIAN_POINT('',(-0.0360249036967755,-0.019739955663681,0.));
#1554=CARTESIAN_POINT('',(-0.0429841151788836,-0.0237407255917788,0.033));
#1555=CARTESIAN_POINT('',(-0.0378250181674958,0.0242606012225151,0.025));
#1556=CARTESIAN_POINT('',(-0.0378250181674958,0.0242606012225151,0.025));
#1557=CARTESIAN_POINT('',(-0.0333250181674958,0.0242606012225151,0.025));
#1558=CARTESIAN_POINT('',(-0.0333250181674958,0.0242606012225151,0.025));
#1559=CARTESIAN_POINT('',(-0.0378250181674958,0.0152606012225151,0.025));
#1560=CARTESIAN_POINT('',(-0.0333250181674958,0.0152606012225151,0.025));
#1561=CARTESIAN_POINT('',(-0.0333250181674958,0.0152606012225151,0.025));
#1562=CARTESIAN_POINT('',(-0.0378250181674958,0.0152606012225151,0.025));
#1563=CARTESIAN_POINT('',(-0.0378250181674958,0.0197606012225151,0.025));
#1564=CARTESIAN_POINT('',(-0.0378250181674958,0.0197606012225151,0.025));
#1565=CARTESIAN_POINT('',(-0.0355250181674958,0.0197606012225151,0.025));
#1566=CARTESIAN_POINT('',(-0.0378250181674958,0.0197606012225151,0.));
#1567=CARTESIAN_POINT('',(-0.0355250181674958,0.0197606012225151,0.));
#1568=CARTESIAN_POINT('',(-0.0333250181674958,0.0197606012225151,0.025));
#1569=CARTESIAN_POINT('',(-0.0333250181674958,0.0197606012225151,0.025));
#1570=CARTESIAN_POINT('',(0.0017550028860569,1.0322779417038E-5,0.025));
#1571=CARTESIAN_POINT('',(0.00198598749339636,-0.00383108708127283,0.));
#1572=CARTESIAN_POINT('',(0.0466484874933969,-0.0237115828481317,0.033));
#1573=CARTESIAN_POINT('',(0.0461757687926293,-0.0237115828481317,0.025));
#1574=CARTESIAN_POINT('',(0.0461757687926293,-0.0237115828481317,0.025));
#1575=CARTESIAN_POINT('',(0.0017550028860569,-0.0237115828481317,0.025));
#1576=CARTESIAN_POINT('',(0.0461757687926293,-0.0197344198822975,0.025));
#1577=CARTESIAN_POINT('',(0.0461757687926293,-0.0152344198822975,0.025));
#1578=CARTESIAN_POINT('',(0.0461757687926293,-0.0152344198822975,0.025));
#1579=CARTESIAN_POINT('',(0.0461757687926293,-0.0197344198822975,0.025));
#1580=CARTESIAN_POINT('',(0.0017550028860569,1.0322779417038E-5,0.025));
#1581=CARTESIAN_POINT('',(0.0416757687926292,-0.0197344198822975,0.025));
#1582=CARTESIAN_POINT('',(0.0439757687926293,-0.0197344198822975,0.025));
#1583=CARTESIAN_POINT('',(0.0422757687926293,-0.0152344198822975,0.025));
#1584=CARTESIAN_POINT('',(0.0383757687926293,-0.0152344198822975,0.025));
#1585=CARTESIAN_POINT('',(0.0383757687926293,-0.0197344198822975,0.025));
#1586=CARTESIAN_POINT('',(0.0383757687926293,-0.0242344198822975,0.025));
#1587=CARTESIAN_POINT('',(0.0422757687926293,-0.0242344198822975,0.025));
#1588=CARTESIAN_POINT('',(0.0422757687926293,-0.0242344198822975,0.025));
#1589=CARTESIAN_POINT('',(0.0383757687926293,-0.0242344198822975,0.025));
#1590=CARTESIAN_POINT('',(0.0422757687926293,-0.0152344198822975,0.025));
#1591=CARTESIAN_POINT('',(0.0383757687926293,-0.0152344198822975,0.025));
#1592=CARTESIAN_POINT('',(0.0416757687926292,-0.0197344198822975,0.025));
#1593=CARTESIAN_POINT('',(0.0416757687926292,-0.0197344198822975,0.));
#1594=CARTESIAN_POINT('',(0.0439757687926293,-0.0197344198822975,0.));
#1595=CARTESIAN_POINT('',(0.0383757687926293,-0.0197344198822975,0.025));
#1596=CARTESIAN_POINT('',(0.00198598749339636,-0.00383108708127283,0.));
#1597=CARTESIAN_POINT('',(0.0418349094688893,0.0237133914679289,0.025));
#1598=CARTESIAN_POINT('',(0.0418349094688893,0.0237133914679289,0.025));
#1599=CARTESIAN_POINT('',(0.0373349094688892,0.0237133914679289,0.025));
#1600=CARTESIAN_POINT('',(0.0373349094688892,0.0237133914679289,0.025));
#1601=CARTESIAN_POINT('',(0.0418349094688893,0.0147133914679289,0.025));
#1602=CARTESIAN_POINT('',(0.0418349094688893,0.0147133914679289,0.025));
#1603=CARTESIAN_POINT('',(0.0373349094688892,0.0147133914679289,0.025));
#1604=CARTESIAN_POINT('',(0.0373349094688892,0.0147133914679289,0.025));
#1605=CARTESIAN_POINT('',(0.0017550028860569,1.0322779417038E-5,0.025));
#1606=CARTESIAN_POINT('',(0.0418349094688893,0.0192133914679289,0.025));
#1607=CARTESIAN_POINT('',(0.0441349094688892,0.0192133914679289,0.025));
#1608=CARTESIAN_POINT('',(0.0373349094688892,0.0192133914679289,0.025));
#1609=CARTESIAN_POINT('',(0.0373349094688892,0.0192133914679289,0.025));
#1610=CARTESIAN_POINT('',(0.0418349094688893,0.0192133914679289,0.025));
#1611=CARTESIAN_POINT('',(0.0418349094688893,0.0192133914679289,0.));
#1612=CARTESIAN_POINT('',(0.0441349094688892,0.0192133914679289,0.));
#1613=CARTESIAN_POINT('',(0.00198598749339636,-0.00383108708127283,0.));
#1614=CARTESIAN_POINT('',(0.00198598749339636,-0.00383108708127283,0.));
#1615=CARTESIAN_POINT('',(0.0500448476721699,0.0288273308607234,0.026));
#1616=CARTESIAN_POINT('',(0.0500448476721699,0.0288273308607234,0.026));
#1617=CARTESIAN_POINT('',(0.0523448476721699,0.0288273308607234,0.026));
#1618=CARTESIAN_POINT('',(0.00198598749339636,-0.00383108708127283,0.026));
#1619=CARTESIAN_POINT('',(0.0500448476721699,-0.036642292694115,0.026));
#1620=CARTESIAN_POINT('',(0.0500448476721699,-0.036642292694115,0.026));
#1621=CARTESIAN_POINT('',(0.0523448476721699,-0.036642292694115,0.026));
#1622=CARTESIAN_POINT('',(0.00198598749339636,-0.00383108708127283,0.026));
#1623=CARTESIAN_POINT('',(-0.0462427581832837,-0.0362677433829385,0.026));
#1624=CARTESIAN_POINT('',(-0.0462427581832837,-0.0362677433829385,0.026));
#1625=CARTESIAN_POINT('',(-0.0439427581832837,-0.0362677433829385,0.026));
#1626=CARTESIAN_POINT('',(0.00198598749339636,-0.00383108708127283,0.026));
#1627=CARTESIAN_POINT('',(-0.0462427581832837,0.027874386421425,0.026));
#1628=CARTESIAN_POINT('',(-0.0462427581832837,0.027874386421425,0.026));
#1629=CARTESIAN_POINT('',(-0.0439427581832837,0.027874386421425,0.026));
#1630=CARTESIAN_POINT('',(0.00198598749339636,-0.00383108708127283,0.026));
#1631=CARTESIAN_POINT('',(0.0130823209568853,0.0211874418245151,-0.0148984597041272));
#1632=MECHANICAL_DESIGN_GEOMETRIC_PRESENTATION_REPRESENTATION('',(#1003),
#1633);
#1633=(
GEOMETRIC_REPRESENTATION_CONTEXT(3)
GLOBAL_UNCERTAINTY_ASSIGNED_CONTEXT((#1635))
GLOBAL_UNIT_ASSIGNED_CONTEXT((#1639,#1638,#1637))
REPRESENTATION_CONTEXT('Case','TOP_LEVEL_ASSEMBLY_PART')
);
#1634=(
GEOMETRIC_REPRESENTATION_CONTEXT(3)
GLOBAL_UNCERTAINTY_ASSIGNED_CONTEXT((#1636))
GLOBAL_UNIT_ASSIGNED_CONTEXT((#1639,#1638,#1637))
REPRESENTATION_CONTEXT('Part 1','COMPONENT_PART')
);
#1635=UNCERTAINTY_MEASURE_WITH_UNIT(LENGTH_MEASURE(1.E-8),#1639,
'DISTANCE_ACCURACY_VALUE','Maximum Tolerance applied to model');
#1636=UNCERTAINTY_MEASURE_WITH_UNIT(LENGTH_MEASURE(1.E-8),#1639,
'DISTANCE_ACCURACY_VALUE','Maximum Tolerance applied to model');
#1637=(
NAMED_UNIT(*)
SI_UNIT($,.STERADIAN.)
SOLID_ANGLE_UNIT()
);
#1638=(
NAMED_UNIT(*)
PLANE_ANGLE_UNIT()
SI_UNIT($,.RADIAN.)
);
#1639=(
LENGTH_UNIT()
NAMED_UNIT(*)
SI_UNIT($,.METRE.)
);
#1640=PRODUCT_DEFINITION_SHAPE('','',#1643);
#1641=PRODUCT_DEFINITION_SHAPE('','',#1644);
#1642=PRODUCT_DEFINITION_SHAPE(' ','NAUO PRDDFN',#11);
#1643=PRODUCT_DEFINITION('','',#1647,#1645);
#1644=PRODUCT_DEFINITION('','',#1648,#1646);
#1645=PRODUCT_DEFINITION_CONTEXT('',#1658,'design');
#1646=PRODUCT_DEFINITION_CONTEXT('',#1658,'design');
#1647=PRODUCT_DEFINITION_FORMATION_WITH_SPECIFIED_SOURCE('','',#1651,
 .NOT_KNOWN.);
#1648=PRODUCT_DEFINITION_FORMATION_WITH_SPECIFIED_SOURCE('','',#1652,
 .NOT_KNOWN.);
#1649=PRODUCT_RELATED_PRODUCT_CATEGORY('','',(#1651));
#1650=PRODUCT_RELATED_PRODUCT_CATEGORY('','',(#1652));
#1651=PRODUCT('Case','Case','Case',(#1655));
#1652=PRODUCT('Part 1','Part 1','Part 1',(#1656));
#1653=PRODUCT_CATEGORY('','');
#1654=PRODUCT_CATEGORY('','');
#1655=PRODUCT_CONTEXT('',#1658,'mechanical');
#1656=PRODUCT_CONTEXT('',#1658,'mechanical');
#1657=APPLICATION_PROTOCOL_DEFINITION('international standard',
'ap242_managed_model_based_3d_engineering',2020,#1658);
#1658=APPLICATION_CONTEXT('managed model based 3d engineering');
ENDSEC;
END-ISO-10303-21;
